<svg width="18" height="18" viewBox="0 0 18 18" fill="none" xmlns="http://www.w3.org/2000/svg">
<path d="M9.30445 1.03141L13.9993 1.03141C15.2752 1.03141 16.3104 2.07046 16.3104 3.34253L16.3104 14.6575C16.3104 15.9334 15.2713 16.9686 13.9993 16.9686L9.22804 16.9686C8.94154 16.9686 8.71234 17.1978 8.71234 17.4843C8.71234 17.7708 8.94154 18 9.22804 18L13.9993 18C15.8443 18 17.3418 16.4987 17.3418 14.6575L17.3418 3.34253C17.3418 1.49745 15.8405 -1.31245e-07 13.9993 -2.92213e-07L9.30445 -7.02648e-07C9.01794 -7.27694e-07 8.78874 0.229202 8.78874 0.515704C8.78874 0.802207 9.02176 1.03141 9.30445 1.03141Z" fill="#2FDDC0"/>
<path d="M0.809473 9.36353L4.08706 12.6411C4.28952 12.8436 4.61423 12.8436 4.81669 12.6411C5.01915 12.4387 5.01915 12.114 4.81669 11.9115L2.41771 9.51251L12.8808 9.51251C13.1673 9.51251 13.3965 9.28331 13.3965 8.99681C13.3965 8.71031 13.1673 8.48111 12.8808 8.48111L2.41771 8.4811L4.81669 6.08212C5.01915 5.87966 5.01915 5.55496 4.81669 5.3525C4.71737 5.25318 4.58367 5.19969 4.45379 5.19969C4.32391 5.19969 4.1902 5.24935 4.09088 5.3525L0.813293 8.63009C0.607011 8.83637 0.607012 9.16489 0.809473 9.36353Z" fill="#2FDDC0"/>
</svg>
