<svg width="43" height="43" viewBox="0 0 43 43" fill="none" xmlns="http://www.w3.org/2000/svg">
<g clip-path="url(#clip0_120_3)">
<path fill-rule="evenodd" clip-rule="evenodd" d="M21.5 43C33.3741 43 43 33.3741 43 21.5C43 9.62587 33.3741 0 21.5 0C9.62587 0 0 9.62587 0 21.5C0 33.3741 9.62587 43 21.5 43Z" fill="#EEF4FA"/>
<path d="M10 21.5C9.72386 21.5 9.5 21.7239 9.5 22C9.5 22.2761 9.72386 22.5 10 22.5L10 21.5ZM34.3536 22.3536C34.5488 22.1583 34.5488 21.8417 34.3536 21.6464L31.1716 18.4645C30.9763 18.2692 30.6597 18.2692 30.4645 18.4645C30.2692 18.6597 30.2692 18.9763 30.4645 19.1716L33.2929 22L30.4645 24.8284C30.2692 25.0237 30.2692 25.3403 30.4645 25.5355C30.6597 25.7308 30.9763 25.7308 31.1716 25.5355L34.3536 22.3536ZM10 22.5L34 22.5L34 21.5L10 21.5L10 22.5Z" fill="#006BDA"/>
</g>
<defs>
<clipPath id="clip0_120_3">
<rect width="43" height="43" fill="white"/>
</clipPath>
</defs>
</svg>
