<svg width="43" height="43" viewBox="0 0 43 43" fill="none" xmlns="http://www.w3.org/2000/svg">
<g clip-path="url(#clip0_119_3639)">
<path fill-rule="evenodd" clip-rule="evenodd" d="M21.5 43C33.3741 43 43 33.3741 43 21.5C43 9.62587 33.3741 0 21.5 0C9.62587 0 0 9.62587 0 21.5C0 33.3741 9.62587 43 21.5 43Z" fill="#EEF4FA"/>
<g clip-path="url(#clip1_119_3639)">
<path d="M13.89 24.9536C16.2572 27.7833 19.1068 30.0112 22.3592 31.5877C23.5975 32.1745 25.2535 32.8707 27.0985 32.9901C27.2129 32.995 27.3223 33 27.4367 33C28.675 33 29.6696 32.5723 30.4802 31.6921C30.4852 31.6871 30.4951 31.6772 30.5001 31.6672C30.7885 31.3191 31.1167 31.0058 31.4599 30.6726C31.6936 30.4488 31.9323 30.2151 32.1611 29.9764C33.2203 28.8724 33.2203 27.47 32.1511 26.4007L29.1623 23.4119C28.6551 22.8848 28.0484 22.6063 27.4118 22.6063C26.7753 22.6063 26.1636 22.8848 25.6414 23.407L23.861 25.1873C23.6969 25.0928 23.5278 25.0083 23.3687 24.9287C23.1698 24.8293 22.9858 24.7348 22.8217 24.6303C21.2004 23.6009 19.7284 22.2582 18.321 20.5325C17.6099 19.6324 17.1325 18.8765 16.7993 18.1057C17.2668 17.683 17.7044 17.2404 18.1271 16.8077C18.2763 16.6535 18.4305 16.4994 18.5846 16.3452C19.1217 15.8081 19.4101 15.1865 19.4101 14.5549C19.4101 13.9233 19.1267 13.3017 18.5846 12.7646L17.1026 11.2826C16.9286 11.1086 16.7645 10.9395 16.5954 10.7654C16.2672 10.4273 15.924 10.0792 15.5859 9.76585C15.0736 9.26357 14.4719 9 13.8353 9C13.2038 9 12.5971 9.26357 12.0649 9.77082L10.205 11.6308C9.52867 12.3071 9.14575 13.1276 9.06618 14.0775C8.97169 15.2661 9.1905 16.5292 9.75743 18.0559C10.6277 20.4182 11.9406 22.6113 13.89 24.9536ZM10.2796 14.1819C10.3393 13.5205 10.5929 12.9685 11.0703 12.4911L12.9203 10.6411C13.2087 10.3626 13.527 10.2184 13.8353 10.2184C14.1387 10.2184 14.447 10.3626 14.7305 10.6511C15.0637 10.9594 15.377 11.2826 15.7152 11.6258C15.8842 11.7998 16.0583 11.9739 16.2324 12.1529L17.7143 13.6349C18.0227 13.9432 18.1818 14.2565 18.1818 14.5649C18.1818 14.8732 18.0227 15.1865 17.7143 15.4948C17.5602 15.649 17.406 15.8081 17.2518 15.9623C16.7893 16.4298 16.3567 16.8724 15.8793 17.2951L15.8544 17.3199C15.4416 17.7327 15.5063 18.1256 15.6058 18.424C15.6107 18.4389 15.6157 18.4488 15.6207 18.4637C16.0036 19.3838 16.5357 20.259 17.3662 21.3034C18.8581 23.1434 20.4296 24.5707 22.1603 25.6697C22.3741 25.809 22.6029 25.9184 22.8167 26.0278C23.0156 26.1272 23.1996 26.2217 23.3637 26.3261C23.3836 26.3361 23.3985 26.346 23.4184 26.356C23.5825 26.4405 23.7417 26.4803 23.9008 26.4803C24.2987 26.4803 24.5573 26.2267 24.6418 26.1421L26.5017 24.2822C26.7902 23.9938 27.1035 23.8396 27.4118 23.8396C27.7898 23.8396 28.0981 24.0734 28.292 24.2822L31.2908 27.276C31.8876 27.8728 31.8826 28.5193 31.2759 29.1509C31.067 29.3746 30.8482 29.5885 30.6145 29.8123C30.2663 30.1504 29.9033 30.4986 29.5751 30.8914C29.0032 31.5081 28.3219 31.7965 27.4416 31.7965C27.3571 31.7965 27.2676 31.7915 27.183 31.7866C25.5519 31.6821 24.0351 31.0456 22.8963 30.5035C19.803 29.0066 17.0877 26.8831 14.8349 24.1877C12.98 21.9548 11.7317 19.8761 10.9062 17.6482C10.394 16.2806 10.2 15.1815 10.2796 14.1819Z" fill="#006BDA"/>
</g>
</g>
<defs>
<clipPath id="clip0_119_3639">
<rect width="43" height="43" fill="white"/>
</clipPath>
<clipPath id="clip1_119_3639">
<rect width="24" height="24" fill="white" transform="translate(9 9)"/>
</clipPath>
</defs>
</svg>
