<svg width="21" height="16" viewBox="0 0 21 16" fill="none" xmlns="http://www.w3.org/2000/svg">
<path d="M19.1543 0.617188H1.8457C0.825932 0.617188 0 1.44825 0 2.46289V13.5371C0 14.5578 0.832002 15.3828 1.8457 15.3828H19.1543C20.1655 15.3828 21 14.5613 21 13.5371V2.46289C21 1.45005 20.1773 0.617188 19.1543 0.617188ZM18.8958 1.84766L11.8051 8.90099C11.4565 9.24962 10.993 9.44158 10.5 9.44158C10.007 9.44158 9.54352 9.24958 9.19373 8.89984L2.10418 1.84766H18.8958ZM1.23047 13.2867V2.71411L6.54765 8.00328L1.23047 13.2867ZM2.10496 14.1523L7.42005 8.87105L8.32482 9.77105C8.90585 10.3521 9.67833 10.672 10.5 10.672C11.3217 10.672 12.0942 10.3521 12.674 9.7722L13.5799 8.87105L18.895 14.1523H2.10496ZM19.7695 13.2867L14.4523 8.00328L19.7695 2.71411V13.2867Z" fill="#006BDA" stroke="white" stroke-width="0.3"/>
</svg>
