<svg width="21" height="22" viewBox="0 0 21 22" fill="none" xmlns="http://www.w3.org/2000/svg">
<path d="M4.27952 14.4594C6.3508 16.9353 8.84417 18.8848 11.69 20.2642C12.7735 20.7777 14.2225 21.3869 15.8369 21.4913C15.937 21.4956 16.0327 21.5 16.1328 21.5C17.2163 21.5 18.0866 21.1258 18.7959 20.3556C18.8002 20.3512 18.8089 20.3425 18.8133 20.3338C19.0657 20.0292 19.3529 19.7551 19.6531 19.4635C19.8576 19.2677 20.0665 19.0632 20.2667 18.8543C21.1935 17.8883 21.1935 16.6612 20.258 15.7257L17.6428 13.1104C17.1989 12.6492 16.668 12.4055 16.1111 12.4055C15.5541 12.4055 15.0189 12.6492 14.562 13.1061L13.0041 14.6639C12.8605 14.5812 12.7126 14.5073 12.5733 14.4376C12.3993 14.3506 12.2383 14.2679 12.0947 14.1765C10.6761 13.2758 9.3881 12.1009 8.15665 10.591C7.53439 9.80336 7.11666 9.14194 6.82511 8.46747C7.23415 8.0976 7.61707 7.71032 7.98694 7.33174C8.11749 7.19685 8.25238 7.06196 8.38727 6.92706C8.85723 6.45711 9.10961 5.91318 9.10961 5.36055C9.10961 4.80792 8.86158 4.26399 8.38727 3.79403L7.09055 2.49731C6.93825 2.34501 6.79465 2.19706 6.6467 2.04476C6.35951 1.74886 6.05926 1.44426 5.76336 1.17012C5.31516 0.730626 4.78864 0.5 4.23166 0.5C3.67903 0.5 3.14815 0.730626 2.68255 1.17447L1.05511 2.80191C0.46332 3.3937 0.12826 4.11169 0.0586367 4.94281C-0.0240405 5.9828 0.167422 7.08806 0.663485 8.42395C1.42499 10.4909 2.57376 12.4099 4.27952 14.4594ZM1.12039 5.03419C1.1726 4.45545 1.39453 3.97244 1.81226 3.5547L3.43099 1.93597C3.68338 1.69229 3.96187 1.5661 4.23166 1.5661C4.4971 1.5661 4.76688 1.69229 5.01492 1.94467C5.30646 2.21446 5.5806 2.49731 5.8765 2.79755C6.02445 2.94985 6.17675 3.10215 6.32905 3.25881L7.62577 4.55553C7.89556 4.82532 8.03481 5.09946 8.03481 5.36925C8.03481 5.63904 7.89556 5.91318 7.62577 6.18297C7.49088 6.31786 7.35598 6.45711 7.22109 6.592C6.81641 7.00104 6.43783 7.38831 6.0201 7.75818L5.99834 7.77994C5.63717 8.14111 5.69374 8.48487 5.78077 8.74596C5.78512 8.75901 5.78947 8.76772 5.79382 8.78077C6.12888 9.58578 6.59448 10.3516 7.32117 11.2654C8.6266 12.8755 10.0017 14.1243 11.516 15.086C11.7031 15.2078 11.9032 15.3036 12.0903 15.3993C12.2644 15.4863 12.4254 15.569 12.569 15.6604C12.5864 15.6691 12.5995 15.6778 12.6169 15.6865C12.7605 15.7605 12.8997 15.7953 13.039 15.7953C13.3871 15.7953 13.6133 15.5734 13.6873 15.4994L15.3147 13.8719C15.5671 13.6196 15.8413 13.4847 16.1111 13.4847C16.4418 13.4847 16.7116 13.6892 16.8813 13.8719L19.5052 16.4915C20.0273 17.0137 20.023 17.5794 19.4921 18.132C19.3094 18.3278 19.1179 18.5149 18.9134 18.7107C18.6088 19.0066 18.2911 19.3112 18.0039 19.655C17.5035 20.1946 16.9074 20.447 16.1372 20.447C16.0632 20.447 15.9849 20.4426 15.9109 20.4383C14.4836 20.3469 13.1564 19.7899 12.16 19.3156C9.45337 18.0058 7.07749 16.1477 5.1063 13.7893C3.48321 11.8355 2.391 10.0166 1.66867 8.06714C1.22047 6.87049 1.05076 5.90883 1.12039 5.03419Z" fill="#006BDA"/>
</svg>
