<svg width="33" height="33" viewBox="0 0 33 33" fill="none" xmlns="http://www.w3.org/2000/svg">
<g clip-path="url(#clip0_3281_3789)">
<path d="M17.2577 3.60335L15.3676 0.569061H12.7055C12.106 0.568959 11.5167 0.724138 10.995 1.01948C10.4733 1.31482 10.037 1.74026 9.72863 2.25433L7.96484 5.12078L14.2235 9.10353L17.2577 3.60335Z" fill="#6A9923"/>
<path d="M27.2252 6.0385L25.0353 2.27594C24.7618 1.75904 24.3522 1.32677 23.8508 1.02591C23.3494 0.725056 22.7752 0.567068 22.1905 0.569049H15.3691L20.4836 10.2414L17.6387 11.9483L26.1061 12.9116L30.156 4.5518L27.2252 6.0385Z" fill="#88B337"/>
<path d="M30.7241 12.5173L23.8965 16.5001L26.7413 21.6207H31.293L32.4822 19.7005C32.8065 19.1754 32.9849 18.5734 32.9991 17.9565C33.0133 17.3395 32.8627 16.7299 32.5629 16.1905L30.7241 12.5173Z" fill="#6A9923"/>
<path d="M19.9143 21.6207V18.7759L14.2246 25.0345L19.9143 32.4311V30.1552H24.466C25.0532 30.1695 25.6323 30.0167 26.136 29.7145C26.6397 29.4123 27.0471 28.9732 27.3108 28.4483L31.2935 21.6207H19.9143Z" fill="#88B337"/>
<path d="M5.69012 22.1897L4.30469 25.3827L6.03605 28.3817C6.3518 28.9161 6.80001 29.3601 7.33741 29.6708C7.8748 29.9814 8.48321 30.1483 9.1039 30.1552H11.3798V22.1897H5.69012Z" fill="#6A9923"/>
<path d="M12.5172 17.069L9.10343 9.67249L0 10.2414L3.25391 12.259L1.13793 16.5001C0.848397 17.0224 0.696486 17.6098 0.696486 18.207C0.696486 18.8041 0.848397 19.3915 1.13793 19.9138L4.30365 25.3827L5.48823 23.3276L9.71677 15.988L12.5172 17.069Z" fill="#88B337"/>
</g>
<defs>
<clipPath id="clip0_3281_3789">
<rect width="33" height="33" fill="white"/>
</clipPath>
</defs>
</svg>
