<svg width="55" height="55" viewBox="0 0 55 55" fill="none" xmlns="http://www.w3.org/2000/svg">
<path d="M25.9814 1.77191C26.7796 0.840564 28.2204 0.840565 29.0186 1.77191L31.492 4.65793C32.065 5.32649 33.0078 5.54168 33.8141 5.18794L37.2948 3.6609C38.418 3.16811 39.7161 3.79325 40.0312 4.97869L41.0075 8.65208C41.2336 9.50304 41.9897 10.106 42.8697 10.1371L46.6682 10.2715C47.894 10.3149 48.7923 11.4413 48.5619 12.6461L47.8476 16.3793C47.6822 17.2441 48.1018 18.1154 48.8811 18.5252L52.2451 20.2944C53.3307 20.8654 53.6513 22.2701 52.9209 23.2555L50.6577 26.3091C50.1334 27.0165 50.1334 27.9835 50.6577 28.6909L52.921 31.7445C53.6513 32.7299 53.3307 34.1346 52.2451 34.7056L48.8811 36.4748C48.1018 36.8846 47.6822 37.7559 47.8476 38.6207L48.5619 42.3539C48.7923 43.5587 47.894 44.6851 46.6682 44.7285L42.8697 44.8629C41.9897 44.894 41.2336 45.497 41.0075 46.3479L40.0312 50.0213C39.7161 51.2068 38.418 51.8319 37.2948 51.3391L33.8141 49.8121C33.0078 49.4583 32.065 49.6735 31.492 50.3421L29.0186 53.2281C28.2204 54.1594 26.7796 54.1594 25.9814 53.2281L23.508 50.3421C22.935 49.6735 21.9922 49.4583 21.1859 49.8121L17.7052 51.3391C16.582 51.8319 15.2839 51.2068 14.9688 50.0213L13.9925 46.3479C13.7664 45.497 13.0103 44.894 12.1303 44.8629L8.3318 44.7285C7.10597 44.6851 6.20765 43.5587 6.43814 42.3539L7.15237 38.6207C7.31782 37.7559 6.89823 36.8846 6.11894 36.4748L2.75489 34.7056C1.66927 34.1346 1.34867 32.7299 2.07905 31.7445L4.34232 28.6909C4.86662 27.9835 4.86662 27.0165 4.34232 26.3091L2.07905 23.2555C1.34867 22.2701 1.66927 20.8654 2.75489 20.2944L6.11894 18.5252C6.89823 18.1154 7.31782 17.2441 7.15237 16.3793L6.43814 12.6461C6.20765 11.4413 7.10597 10.3149 8.3318 10.2715L12.1303 10.1371C13.0103 10.106 13.7664 9.50304 13.9925 8.65208L14.9688 4.97869C15.2839 3.79325 16.582 3.16811 17.7052 3.6609L21.1859 5.18794C21.9922 5.54168 22.935 5.32649 23.508 4.65793L25.9814 1.77191Z" fill="url(#paint0_linear_3281_3797)"/>
<path d="M17.4759 17.8338L19.3746 20.6099L21.2733 17.8338H23.7613L20.7103 22.2205L24.0101 27H21.509L19.3746 23.9621L17.2664 27H14.8177L18.0914 22.3121L15.0272 17.8338H17.4759ZM24.9911 19.9551H27.0207V24.1454L30.4515 19.9551H32.324V27H30.2944V22.8097L26.8767 27H24.9911V19.9551ZM40.2064 21.6312H37.8232V27H35.7936V21.6312H33.4103V19.9551H40.2064V21.6312ZM15.1291 31.597V36H13.8523V32.6445H12.0191V36H10.7506V31.597H15.1291ZM18.9475 31.5315C19.3567 31.5315 19.7277 31.627 20.0606 31.8179C20.3988 32.0034 20.6635 32.2681 20.8544 32.6118C21.0454 32.9501 21.1409 33.3456 21.1409 33.7985C21.1409 34.2513 21.0454 34.6496 20.8544 34.9934C20.6635 35.3316 20.3988 35.5963 20.0606 35.7872C19.7277 35.9727 19.3567 36.0655 18.9475 36.0655C18.3855 36.0655 17.9436 35.8882 17.6217 35.5335V37.5877H16.345V31.597H17.5644V32.1044C17.8809 31.7224 18.3419 31.5315 18.9475 31.5315ZM18.7266 35.0179C19.0539 35.0179 19.3213 34.9088 19.5286 34.6905C19.7414 34.4668 19.8478 34.1695 19.8478 33.7985C19.8478 33.4275 19.7414 33.1328 19.5286 32.9146C19.3213 32.6909 19.0539 32.579 18.7266 32.579C18.3992 32.579 18.1291 32.6909 17.9163 32.9146C17.709 33.1328 17.6053 33.4275 17.6053 33.7985C17.6053 34.1695 17.709 34.4668 17.9163 34.6905C18.1291 34.9088 18.3992 35.0179 18.7266 35.0179ZM24.0981 36.0655C23.6343 36.0655 23.2169 35.97 22.8459 35.779C22.4803 35.5826 22.1939 35.3125 21.9866 34.9688C21.7792 34.6251 21.6756 34.235 21.6756 33.7985C21.6756 33.362 21.7792 32.9719 21.9866 32.6282C22.1939 32.2844 22.4803 32.0171 22.8459 31.8261C23.2169 31.6297 23.6343 31.5315 24.0981 31.5315C24.5618 31.5315 24.9765 31.6297 25.3421 31.8261C25.7076 32.0171 25.9941 32.2844 26.2014 32.6282C26.4087 32.9719 26.5124 33.362 26.5124 33.7985C26.5124 34.235 26.4087 34.6251 26.2014 34.9688C25.9941 35.3125 25.7076 35.5826 25.3421 35.779C24.9765 35.97 24.5618 36.0655 24.0981 36.0655ZM24.0981 35.0179C24.4254 35.0179 24.6928 34.9088 24.9001 34.6905C25.1129 34.4668 25.2193 34.1695 25.2193 33.7985C25.2193 33.4275 25.1129 33.1328 24.9001 32.9146C24.6928 32.6909 24.4254 32.579 24.0981 32.579C23.7707 32.579 23.5006 32.6909 23.2878 32.9146C23.0751 33.1328 22.9687 33.4275 22.9687 33.7985C22.9687 34.1695 23.0751 34.4668 23.2878 34.6905C23.5006 34.9088 23.7707 35.0179 24.0981 35.0179ZM32.2616 34.9524V36.9494H31.0749V36H27.9813V36.9494H26.7946V34.9524H26.9747C27.2475 34.947 27.4357 34.786 27.5394 34.4696C27.643 34.1531 27.7085 33.703 27.7358 33.1192L27.7931 31.597H31.6314V34.9524H32.2616ZM28.8897 33.2092C28.8734 33.6566 28.8379 34.0222 28.7833 34.3059C28.7342 34.5896 28.6388 34.8051 28.4969 34.9524H30.3547V32.6445H28.9143L28.8897 33.2092ZM34.7755 31.5315C35.4575 31.5315 35.9813 31.6952 36.3468 32.0225C36.7124 32.3444 36.8952 32.8328 36.8952 33.4875V36H35.7003V35.4517C35.4602 35.8609 35.0128 36.0655 34.3581 36.0655C34.0198 36.0655 33.7252 36.0082 33.4742 35.8936C33.2287 35.779 33.0405 35.6208 32.9095 35.4189C32.7786 35.2171 32.7131 34.9879 32.7131 34.7315C32.7131 34.3223 32.8659 34.0004 33.1714 33.7657C33.4824 33.5311 33.9598 33.4138 34.6036 33.4138H35.6185C35.6185 33.1356 35.5339 32.9228 35.3648 32.7755C35.1956 32.6227 34.9419 32.5463 34.6036 32.5463C34.369 32.5463 34.1371 32.5845 33.908 32.6609C33.6843 32.7318 33.4933 32.83 33.3351 32.9555L32.8768 32.0634C33.1169 31.8943 33.4033 31.7634 33.7361 31.6706C34.0744 31.5779 34.4209 31.5315 34.7755 31.5315ZM34.6773 35.2061C34.8955 35.2061 35.0892 35.157 35.2584 35.0588C35.4275 34.9552 35.5475 34.8051 35.6185 34.6087V34.1586H34.7428C34.219 34.1586 33.9571 34.3304 33.9571 34.6742C33.9571 34.8379 34.0198 34.9688 34.1453 35.067C34.2763 35.1598 34.4536 35.2061 34.6773 35.2061ZM42.3664 34.3304H41.7526V36H40.4922V34.3304H39.8784L38.9454 36H37.4396L38.8227 33.7248L37.5378 31.597H38.8881L39.862 33.3074H40.4922V31.597H41.7526V33.3074H42.3746L43.3567 31.597H44.707L43.4221 33.7248L44.8134 36H43.2994L42.3664 34.3304Z" fill="white"/>
<defs>
<linearGradient id="paint0_linear_3281_3797" x1="27.5" y1="0" x2="27.5" y2="55" gradientUnits="userSpaceOnUse">
<stop stop-color="#E52323"/>
<stop offset="1" stop-color="#BE1E1E"/>
</linearGradient>
</defs>
</svg>
