<svg width="448" height="163" viewBox="0 0 448 163" fill="none" xmlns="http://www.w3.org/2000/svg">
<g clip-path="url(#clip0_117_2121)">
<path d="M209.026 162.98H204.373C215.556 157.543 227.129 152.949 238.997 149.237V151.333C228.765 154.562 218.754 158.453 209.026 162.98ZM422.773 162.98H418.139C409.631 158.998 400.903 155.505 391.997 152.518V150.41C402.525 153.908 412.806 158.108 422.773 162.98ZM448 116.695V118.923C443.443 116.677 438.83 114.547 434.165 112.536C420.489 106.634 406.395 101.756 391.997 97.9409V95.8719C406.668 99.7318 421.028 104.688 434.957 110.699C439.351 112.594 443.7 114.593 448 116.695ZM115.448 162.98H112.445C161.256 119.071 224.107 92.3839 289.997 86.9629V88.9699C225.346 94.3239 163.65 120.287 115.448 162.98Z" fill="#B6E4EF"/>
<path d="M253.998 141.98C253.733 141.98 253.478 142.085 253.291 142.273C253.103 142.46 252.998 142.715 252.998 142.98C252.998 143.245 253.103 143.5 253.291 143.687C253.478 143.875 253.733 143.98 253.998 143.98H284.998C285.263 143.98 285.518 143.875 285.705 143.687C285.893 143.5 285.998 143.245 285.998 142.98C285.998 142.715 285.893 142.46 285.705 142.273C285.518 142.085 285.263 141.98 284.998 141.98H253.998ZM253.998 157.98C253.733 157.98 253.478 158.085 253.291 158.273C253.103 158.46 252.998 158.715 252.998 158.98C252.998 159.245 253.103 159.5 253.291 159.687C253.478 159.875 253.733 159.98 253.998 159.98H304.998C305.263 159.98 305.518 159.875 305.705 159.687C305.893 159.5 305.998 159.245 305.998 158.98C305.998 158.715 305.893 158.46 305.705 158.273C305.518 158.085 305.263 157.98 304.998 157.98H253.998ZM309 77.98C309 77.7148 309.105 77.4604 309.293 77.2729C309.48 77.0853 309.735 76.98 310 76.98H346C346.265 76.98 346.52 77.0853 346.707 77.2729C346.895 77.4604 347 77.7148 347 77.98C347 78.2452 346.895 78.4996 346.707 78.6871C346.52 78.8746 346.265 78.98 346 78.98H310C309.735 78.98 309.48 78.8746 309.293 78.6871C309.105 78.4996 309 78.2452 309 77.98ZM309 95.98C309 95.7148 309.105 95.4604 309.293 95.2729C309.48 95.0853 309.735 94.98 310 94.98H372C372.265 94.98 372.52 95.0853 372.707 95.2729C372.895 95.4604 373 95.7148 373 95.98C373 96.2452 372.895 96.4996 372.707 96.6871C372.52 96.8746 372.265 96.98 372 96.98H310C309.735 96.98 309.48 96.8746 309.293 96.6871C309.105 96.4996 309 96.2452 309 95.98ZM310 112.98C309.735 112.98 309.48 113.085 309.293 113.273C309.105 113.46 309 113.715 309 113.98C309 114.245 309.105 114.5 309.293 114.687C309.48 114.875 309.735 114.98 310 114.98H372C372.265 114.98 372.52 114.875 372.707 114.687C372.895 114.5 373 114.245 373 113.98C373 113.715 372.895 113.46 372.707 113.273C372.52 113.085 372.265 112.98 372 112.98H310ZM309 131.98C309 131.715 309.105 131.46 309.293 131.273C309.48 131.085 309.735 130.98 310 130.98H372C372.265 130.98 372.52 131.085 372.707 131.273C372.895 131.46 373 131.715 373 131.98C373 132.245 372.895 132.5 372.707 132.687C372.52 132.875 372.265 132.98 372 132.98H310C309.735 132.98 309.48 132.875 309.293 132.687C309.105 132.5 309 132.245 309 131.98ZM321 148.98C320.735 148.98 320.48 149.085 320.293 149.273C320.105 149.46 320 149.715 320 149.98C320 150.245 320.105 150.5 320.293 150.687C320.48 150.875 320.735 150.98 321 150.98H372C372.265 150.98 372.52 150.875 372.707 150.687C372.895 150.5 373 150.245 373 149.98C373 149.715 372.895 149.46 372.707 149.273C372.52 149.085 372.265 148.98 372 148.98H321Z" fill="#F2F4F5"/>
<path d="M237.997 162.98H239.997V124.98C239.997 124.45 240.208 123.941 240.583 123.566C240.958 123.191 241.466 122.98 241.997 122.98H296.993V139.98C296.993 141.041 297.414 142.058 298.164 142.808C298.915 143.559 299.932 143.98 300.993 143.98H318.997V162.98H320.997V142.98C320.997 142.715 320.891 142.46 320.704 142.273C320.516 142.085 320.262 141.98 319.997 141.98H300.993C300.462 141.98 299.954 141.769 299.579 141.394C299.204 141.019 298.993 140.51 298.993 139.98V121.98C298.993 121.715 298.887 121.46 298.7 121.273C298.512 121.085 298.258 120.98 297.993 120.98H290.997V52.98C290.997 52.4495 291.208 51.9408 291.583 51.5658C291.958 51.1907 292.466 50.98 292.997 50.98H363.994V74.008C363.994 75.0688 364.415 76.0863 365.165 76.8364C365.915 77.5866 366.933 78.008 367.994 78.008H390.997V162.98H392.997V117.304C395.673 118.364 398.334 119.461 400.979 120.596C417.743 127.791 433.441 136.315 448 145.981V143.583C433.652 134.152 418.219 125.819 401.767 118.758C398.862 117.512 395.938 116.31 392.997 115.154V77.008C392.997 76.7428 392.891 76.4884 392.704 76.3009C392.516 76.1133 392.262 76.008 391.997 76.008H367.994C367.463 76.008 366.955 75.7973 366.58 75.4222C366.204 75.0471 365.994 74.5384 365.994 74.008V49.98C365.994 49.7148 365.888 49.4604 365.701 49.2729C365.513 49.0853 365.259 48.98 364.994 48.98H292.997C291.936 48.98 290.919 49.4014 290.168 50.1516C289.418 50.9017 288.997 51.9191 288.997 52.98V94.205C215.693 92.486 143.915 117.202 88.3418 162.98H91.5038C146.451 118.486 216.985 94.506 288.997 96.205V120.98H241.997C240.936 120.98 239.919 121.401 239.168 122.152C238.418 122.902 237.997 123.919 237.997 124.98V148.968C220.949 151.915 204.25 156.611 188.165 162.98H193.742C208.095 157.638 222.909 153.628 237.997 150.998V162.98Z" fill="#ADCFF4"/>
<path d="M304.705 125.273C304.517 125.085 304.263 124.98 303.998 124.98C303.732 124.98 303.478 125.085 303.29 125.273C303.103 125.46 302.997 125.714 302.997 125.98C302.997 126.245 303.102 126.499 303.29 126.687L315.29 138.687C315.477 138.875 315.732 138.98 315.997 138.98C316.262 138.98 316.517 138.875 316.704 138.688C316.892 138.5 316.997 138.246 316.997 137.98C316.998 137.715 316.892 137.461 316.705 137.273L304.705 125.273ZM370.29 53.2731C370.477 53.0856 370.732 52.9802 370.997 52.9802C371.263 52.9802 371.517 53.0856 371.705 53.2731L389.705 71.2731C389.892 71.4607 389.998 71.7152 389.997 71.9804C389.997 72.2457 389.892 72.5001 389.704 72.6876C389.517 72.8751 389.262 72.9804 388.997 72.9803C388.732 72.9802 388.477 72.8747 388.29 72.6871L370.29 54.6871C370.102 54.4996 369.997 54.2453 369.997 53.9801C369.997 53.7149 370.102 53.4606 370.29 53.2731Z" fill="#ADCFF4"/>
</g>
<defs>
<clipPath id="clip0_117_2121">
<rect width="448" height="162" fill="white" transform="translate(0 0.97998)"/>
</clipPath>
</defs>
</svg>
