<?xml version="1.0" encoding="UTF-8"?>
<svg width="34px" height="32px" viewBox="0 0 34 32" version="1.1" xmlns="http://www.w3.org/2000/svg" xmlns:xlink="http://www.w3.org/1999/xlink">
    <!-- Generator: Sketch 57.1 (83088) - https://sketch.com -->
    <title>Cloud</title>
    <desc>Created with Sketch.</desc>
    <g id="Symbols" stroke="none" stroke-width="1" fill="none" fill-rule="evenodd">
        <g id="Icons-/-Document-/-File-/-XL-MD-/-Hover" transform="translate(-19.000000, -35.000000)" fill="#006BDA" fill-rule="nonzero">
            <path d="M40.375305,61 L41.624695,62.5617376 L36,67.0614937 L30.375305,62.5617376 L31.624695,61 L36,64.500244 L40.375305,61 Z M37,51 L37,61 L35,61 L35,51 L37,51 Z M32.2352941,35 C35.4531515,35 38.3882731,36.5706698 40.121666,39.0955306 C40.8975904,38.7943078 41.7317407,38.6363636 42.5882353,38.6363636 C46.1249278,38.6363636 49.0280006,41.322262 49.2246725,44.7226137 C51.4934465,45.7776973 53,48.0191439 53,50.5454545 C53,54.0404453 50.1447098,56.8743741 46.5908747,56.9959367 L46.3529412,57 L40.0034682,57 L40.0034682,55 L46.3529412,55 C48.9270533,55 51,52.9977219 51,50.5454545 C51,48.7185406 49.8398875,47.0958934 48.1073415,46.4190328 L47.9049253,46.345173 L47.1844422,46.1005051 L47.2281284,45.3408671 C47.2328989,45.2579149 47.2352941,45.1745781 47.2352941,45.0909091 C47.2352941,42.6386417 45.1623474,40.6363636 42.5882353,40.6363636 C41.8393486,40.6363636 41.1184489,40.8057742 40.4702888,41.1247132 L40.2307259,41.2512856 L39.3458293,41.7519126 L38.8599213,40.8588489 C37.5810941,38.5084575 35.050062,37 32.2352941,37 C28.1017898,37 24.7647059,40.2233197 24.7647059,44.1818182 C24.7647059,44.4157956 24.7763105,44.6482208 24.7993465,44.878601 L24.8424521,45.222576 L24.9690864,46.0620946 L24.1612332,46.3232476 C22.283253,46.9303382 21,48.6240532 21,50.5454545 C21,52.9276571 22.9561848,54.8852168 25.4276846,54.9951327 L25.6470588,55 L32,55 L32,57 L25.6470588,57 C21.983602,57 19,54.1181117 19,50.5454545 C19,48.0152367 20.511009,45.7730662 22.7807358,44.7200429 C22.7700639,44.5413357 22.7647059,44.3618745 22.7647059,44.1818182 C22.7647059,39.1029299 27.012445,35 32.2352941,35 Z" id="Cloud"></path>
        </g>
    </g>
</svg>