<svg width="40" height="40" viewBox="0 0 40 40" fill="none" xmlns="http://www.w3.org/2000/svg">
<rect width="40" height="40" rx="20" fill="#E00000"/>
<path d="M23.9417 7.73145H20.5975C17.2094 7.73145 13.7906 10.2333 13.7906 15.8228C13.7906 18.718 15.0177 20.9729 17.267 22.2553L13.1501 29.707C12.9549 30.0594 12.9498 30.4588 13.1364 30.7753C13.3186 31.0845 13.6518 31.2691 14.0273 31.2691H16.1098C16.5829 31.2691 16.9518 31.0405 17.1287 30.6399L20.9888 23.0898H21.2705V30.3281C21.2705 30.8382 21.7009 31.2691 22.2104 31.2691H24.0297C24.6011 31.2691 25 30.8702 25 30.2989V8.76136C25.0001 8.15499 24.5649 7.73145 23.9417 7.73145ZM21.2705 19.7359H20.7735C18.8466 19.7359 17.6962 18.1631 17.6962 15.5284C17.6962 12.2525 19.1494 11.0853 20.5095 11.0853H21.2705V19.7359Z" fill="white"/>
</svg>
