<svg width="30" height="30" viewBox="0 0 30 30" fill="none" xmlns="http://www.w3.org/2000/svg">
<path d="M15.0002 0.000198364C6.72921 0.000198364 0.000244141 6.72916 0.000244141 15.0001C0.000244141 23.2711 6.72921 30.0001 15.0002 30.0001C23.2712 30.0001 30.0001 23.2712 30.0001 15.0001C30.0001 6.7291 23.2712 0.000198364 15.0002 0.000198364ZM15.0002 28.1251C7.7631 28.1251 1.87524 22.2372 1.87524 15.0001C1.87524 7.76305 7.7631 1.8752 15.0002 1.8752C22.2373 1.8752 28.1251 7.76299 28.1251 15.0001C28.1251 22.2372 22.2373 28.1251 15.0002 28.1251ZM23.3205 15.0001C23.3205 15.5179 22.9007 15.9376 22.383 15.9376H15.9377V22.383C15.9377 22.9007 15.5179 23.3205 15.0002 23.3205C14.4825 23.3205 14.0627 22.9007 14.0627 22.383V15.9376H7.61737C7.09964 15.9376 6.67987 15.5179 6.67987 15.0001C6.67987 14.4823 7.09964 14.0626 7.61737 14.0626H14.0627V7.61733C14.0627 7.09953 14.4825 6.67983 15.0002 6.67983C15.5179 6.67983 15.9377 7.09953 15.9377 7.61733V14.0626H22.383C22.9007 14.0626 23.3205 14.4824 23.3205 15.0001Z" fill="#3944DE"/>
</svg>
