<svg width="24" height="24" viewBox="0 0 24 24" fill="none" xmlns="http://www.w3.org/2000/svg">
<g clip-path="url(#clip0_8_671)">
<path d="M22.561 10.5607L13.2274 10.5889V1.43905C13.2278 1.24996 13.1909 1.06265 13.1187 0.88787C13.0465 0.713094 12.9406 0.554294 12.8068 0.420585C12.6731 0.286877 12.5143 0.180893 12.3396 0.108718C12.1648 0.0365426 11.9775 -0.000402472 11.7884 3.30661e-06C11.5993 -0.000402472 11.412 0.0365426 11.2372 0.108718C11.0624 0.180893 10.9036 0.286877 10.7699 0.420585C10.6362 0.554294 10.5302 0.713094 10.458 0.88787C10.3859 1.06265 10.3489 1.24996 10.3493 1.43905L10.3776 10.561H1.43905C1.24996 10.5606 1.06265 10.5975 0.88787 10.6697C0.713094 10.7418 0.554294 10.8478 0.420585 10.9815C0.286877 11.1152 0.180893 11.274 0.108718 11.4488C0.0365426 11.6236 -0.00040247 11.8109 3.30844e-06 12C-0.000402592 12.1891 0.0365443 12.3764 0.108722 12.5511C0.180901 12.7259 0.286889 12.8847 0.420601 13.0184C0.554313 13.1521 0.713115 13.258 0.88789 13.3302C1.06266 13.4023 1.24997 13.4392 1.43905 13.4388H10.3634V22.561C10.3631 22.75 10.4 22.9373 10.4722 23.1121C10.5444 23.2869 10.6504 23.4456 10.7841 23.5793C10.9178 23.713 11.0766 23.819 11.2513 23.8912C11.4261 23.9634 11.6134 24.0004 11.8025 24C11.9916 24.0004 12.1789 23.9634 12.3536 23.8912C12.5284 23.819 12.6872 23.713 12.8209 23.5793C12.9546 23.4456 13.0606 23.2869 13.1327 23.1121C13.2049 22.9373 13.2419 22.75 13.2415 22.561V13.439H22.561C22.75 13.4394 22.9373 13.4025 23.1121 13.3303C23.2869 13.2581 23.4456 13.1521 23.5793 13.0184C23.713 12.8847 23.819 12.7259 23.8912 12.5511C23.9634 12.3764 24.0004 12.1891 24 12C23.9997 11.6184 23.8479 11.2526 23.5782 10.9827C23.3084 10.7129 22.9425 10.5611 22.561 10.5607Z" fill="#3944DE"/>
</g>
<defs>
<clipPath id="clip0_8_671">
<rect width="24" height="24" fill="white"/>
</clipPath>
</defs>
</svg>
