<svg width="63" height="63" viewBox="0 0 63 63" fill="none" xmlns="http://www.w3.org/2000/svg">
<path d="M31.4999 1.20324C38.1049 5.0242 42.5491 12.1652 42.5491 20.3445C42.5491 28.5239 38.1049 35.6649 31.4999 39.4858C24.8949 35.6649 20.4507 28.5239 20.4507 20.3445C20.4507 12.1652 24.8949 5.0242 31.4999 1.20324Z" stroke="#00DCC4" stroke-width="2.5" stroke-miterlimit="10" stroke-linecap="round" stroke-linejoin="round"/>
<path d="M31.5 38.4711V20.3445" stroke="#00DCC4" stroke-width="2.5" stroke-miterlimit="10" stroke-linecap="round" stroke-linejoin="round"/>
<path d="M50.5663 53.4928C45.035 56.8776 38.4023 57.7548 32.2998 56.1253C30.2144 48.3157 32.2345 39.638 38.3611 33.5113C44.4878 27.3847 53.1656 25.3646 60.9751 27.45C62.6047 33.5529 61.7273 40.1859 58.3421 45.7174" stroke="#00DCC4" stroke-width="2.5" stroke-miterlimit="10" stroke-linecap="round" stroke-linejoin="round"/>
<path d="M33.0598 55.3652L46.6374 41.7877" stroke="#00DCC4" stroke-width="2.5" stroke-miterlimit="10" stroke-linecap="round" stroke-linejoin="round"/>
<path d="M2.02492 27.4501C-0.0604737 35.2596 1.95958 43.9373 8.08619 50.064C14.2129 56.1907 22.8907 58.2107 30.7002 56.1254C32.7856 48.3158 30.7655 39.6381 24.6388 33.5114C18.5122 27.3848 9.83443 25.3647 2.02492 27.4501Z" stroke="#00DCC4" stroke-width="2.5" stroke-miterlimit="10" stroke-linecap="round" stroke-linejoin="round"/>
<path d="M29.9401 55.3652L16.3625 41.7877" stroke="#00DCC4" stroke-width="2.5" stroke-miterlimit="10" stroke-linecap="round" stroke-linejoin="round"/>
<path d="M31.5 39.4858V61.7695" stroke="#00DCC4" stroke-width="2.5" stroke-miterlimit="10" stroke-linecap="round" stroke-linejoin="round"/>
</svg>
