<svg width="63" height="63" viewBox="0 0 63 63" fill="none" xmlns="http://www.w3.org/2000/svg">
<path d="M50.5466 13.8634V7.52049L31.5001 1.2306L12.4536 7.52049V28.4137C12.4536 33.6408 15.4468 38.4062 20.1557 40.6754L31.5001 46.1426L42.8445 40.6754C47.5532 38.4062 50.5466 33.6408 50.5466 28.4137V24.9376" stroke="#00DCC4" stroke-width="2.5" stroke-miterlimit="10" stroke-linecap="round" stroke-linejoin="round"/>
<path d="M54.5996 44.3265C41.842 57.084 21.158 57.084 8.40039 44.3265" stroke="#00DCC4" stroke-width="2.5" stroke-miterlimit="10" stroke-linecap="round" stroke-linejoin="round"/>
<path d="M54.6787 48.0743V44.211H50.8154" stroke="#00DCC4" stroke-width="2.5" stroke-miterlimit="10" stroke-linecap="round" stroke-linejoin="round"/>
<path d="M8.3208 48.0743V44.211H12.1841" stroke="#00DCC4" stroke-width="2.5" stroke-miterlimit="10" stroke-linecap="round" stroke-linejoin="round"/>
<path d="M1.23047 61.7695H61.7694" stroke="#00DCC4" stroke-width="2.5" stroke-miterlimit="10" stroke-linecap="round" stroke-linejoin="round"/>
<path d="M1.23047 53.8945H61.7694" stroke="#00DCC4" stroke-width="2.5" stroke-miterlimit="10" stroke-linecap="round" stroke-linejoin="round"/>
<path d="M35.1531 34.9887C33.1354 37.0064 29.8641 37.0064 27.8463 34.9887C26.062 33.2044 25.8276 30.3921 27.292 28.337L31.4997 22.4321L35.7074 28.337C37.1718 30.3921 36.9374 33.2044 35.1531 34.9887Z" stroke="#00DCC4" stroke-width="2.5" stroke-miterlimit="10" stroke-linecap="round" stroke-linejoin="round"/>
<path d="M39.7426 20.5071L34.2507 12.8L31.4998 15.5678V8.93963L23.2572 20.5071C20.3885 24.5329 20.8475 30.0421 24.343 33.5375C28.2956 37.4901 34.7041 37.4901 38.6567 33.5375C42.1522 30.0421 42.6113 24.5329 39.7426 20.5071Z" stroke="#00DCC4" stroke-width="2.5" stroke-miterlimit="10" stroke-linecap="round" stroke-linejoin="round"/>
</svg>
