<svg width="64" height="58" viewBox="0 0 64 58" fill="none" xmlns="http://www.w3.org/2000/svg">
<path d="M1.09649 24.9493C17.7708 41.939 46.2323 41.9361 62.9034 24.9491C64.3654 23.4872 64.3654 21.1082 62.9034 19.646C61.4411 18.184 59.0622 18.1839 57.6 19.646C54.2115 23.0346 50.2629 25.6767 45.8639 27.4988C32.669 33.1176 16.4349 29.9205 6.39971 19.646C4.93749 18.1839 2.55859 18.184 1.09637 19.646C-0.365477 21.1081 -0.365477 23.4871 1.09649 24.9493ZM2.86448 21.4138C3.35189 20.9265 4.14469 20.9267 4.63197 21.4138C15.3598 32.3964 32.7155 35.8165 46.8209 29.8086C51.5247 27.8602 55.7461 25.0357 59.3681 21.4138C59.8554 20.9265 60.6485 20.9267 61.1356 21.4138C61.6205 21.879 61.6205 22.7162 61.1356 23.1813C45.4159 39.1987 18.5815 39.196 2.86461 23.1813C2.3772 22.694 2.3772 21.9011 2.86448 21.4138ZM60.2518 50.2513H3.74816C-1.22153 50.4404 -1.21778 57.5645 3.74816 57.7518H60.2518C65.2215 57.5627 65.2176 50.4387 60.2518 50.2513ZM60.2518 55.2518H3.74816C2.09156 55.1888 2.09281 52.814 3.74816 52.7516H60.2518C61.9083 52.8146 61.9072 55.1893 60.2518 55.2518Z" fill="#00DCC4"/>
<path d="M3.22151 37.8932C3.36898 37.8237 3.52877 37.784 3.69165 37.7766C3.85453 37.7692 4.01726 37.7941 4.17044 37.85C11.2445 40.4253 18.754 42.0237 26.2866 42.5503C27.9417 42.6065 28.108 40.2297 26.4618 40.0562C19.1599 39.5458 11.8817 37.9965 5.024 35.5001C4.08406 35.1594 3.06762 35.205 2.16182 35.6287C1.25613 36.0525 0.569838 36.8035 0.229066 37.7435C-0.495856 39.6198 0.566962 41.8917 2.47109 42.5378C21.3838 49.4763 42.6152 49.4763 61.5275 42.5383C63.4678 41.835 64.4742 39.684 63.7709 37.7435C63.4301 36.8035 62.7437 36.0525 61.838 35.6287C60.9322 35.2049 59.9157 35.1593 58.9746 35.5006C52.1183 37.9965 44.8391 39.5461 37.5375 40.0562C35.8901 40.2297 36.0588 42.6088 37.7125 42.5503C45.2448 42.0239 52.7555 40.4251 59.8282 37.8505C60.4516 37.6098 61.2056 37.9627 61.4204 38.5954C61.6539 39.2398 61.3196 39.9542 60.6738 40.1884C42.3058 46.9266 21.6929 46.9266 3.32452 40.1879C2.6916 39.9731 2.33883 39.2191 2.57959 38.5955C2.63486 38.4418 2.72005 38.3006 2.83023 38.1801C2.94041 38.0596 3.0734 37.962 3.22151 37.8932ZM30.9999 27.2493C31.4677 27.9087 32.5323 27.9087 33.0001 27.2493L40.5005 17.2486C41.1231 16.4576 40.5065 15.2251 39.5005 15.2485H37.0003V1.49825C37.0003 0.80783 36.4405 0.248169 35.7502 0.248169H28.2497C27.5593 0.248169 26.9997 0.80783 26.9997 1.49825V15.2485H24.4995C23.4932 15.2251 22.877 16.4578 23.4994 17.2486L30.9999 27.2493ZM28.2497 17.7487C28.9402 17.7487 29.4998 17.189 29.4998 16.4986V2.74833H34.5001V16.4986C34.5001 17.189 35.0599 17.7487 35.7502 17.7487H37.0003L32 24.4157L26.9997 17.7487H28.2497Z" fill="#00DCC4"/>
<path d="M33.2502 41.5006C33.2502 40.8101 32.6904 40.2505 32.0001 40.2505H31.9992C31.3089 40.2505 30.7495 40.8101 30.7495 41.5006C30.811 43.1568 33.1892 43.1566 33.2502 41.5006Z" fill="#00DCC4"/>
</svg>
