<svg width="57" height="57" viewBox="0 0 57 57" fill="none" xmlns="http://www.w3.org/2000/svg">
<path fill-rule="evenodd" clip-rule="evenodd" d="M14.1644 4.11438C9.80364 4.11438 6.26855 7.64947 6.26855 12.0102C6.26855 16.371 9.80364 19.9061 14.1644 19.9061C18.5251 19.9061 22.0602 16.371 22.0602 12.0102C22.0602 7.64947 18.5251 4.11438 14.1644 4.11438ZM2.92871 12.0102C2.92871 5.80492 7.9591 0.774536 14.1644 0.774536C20.3697 0.774536 25.4001 5.80492 25.4001 12.0102C25.4001 18.2155 20.3697 23.2459 14.1644 23.2459C7.9591 23.2459 2.92871 18.2155 2.92871 12.0102Z" fill="#00DCC4"/>
<path fill-rule="evenodd" clip-rule="evenodd" d="M43.6773 0C44.274 1.16788e-06 44.8252 0.318292 45.1235 0.834974L56.7499 20.9728C57.0482 21.4895 57.0482 22.126 56.7499 22.6427C56.4516 23.1594 55.9003 23.4777 55.3037 23.4777H32.0509C31.4543 23.4777 30.903 23.1594 30.6047 22.6427C30.3064 22.126 30.3064 21.4895 30.6047 20.9728L42.2311 0.834968C42.5294 0.318287 43.0807 -1.16788e-06 43.6773 0ZM34.9433 20.1378H52.4113L43.6773 5.00981L34.9433 20.1378ZM13.0094 29.1607C13.6615 28.5085 14.7188 28.5085 15.371 29.1606L27.8657 41.6544C28.1788 41.9676 28.3548 42.3923 28.3548 42.8352C28.3548 43.2781 28.1789 43.7029 27.8657 44.0161L15.371 56.5109C15.0578 56.8241 14.6331 57 14.1902 57C13.7473 57 13.3225 56.824 13.0093 56.5108L0.515434 44.016C-0.136674 43.3639 -0.136652 42.3066 0.515481 41.6545L13.0094 29.1607ZM14.1902 32.7031L4.05788 42.8353L14.1902 52.9684L24.3232 42.8353L14.1902 32.7031ZM32.1697 32.9977C32.1697 32.0754 32.9173 31.3277 33.8396 31.3277H53.515C54.4372 31.3277 55.1849 32.0754 55.1849 32.9977V52.673C55.1849 53.5953 54.4372 54.3429 53.515 54.3429H33.8396C32.9173 54.3429 32.1697 53.5953 32.1697 52.673V32.9977ZM35.5095 34.6676V51.0031H51.845V34.6676H35.5095Z" fill="#00DCC4"/>
</svg>
