<svg width="50" height="64" viewBox="0 0 50 64" fill="none" xmlns="http://www.w3.org/2000/svg">
<path d="M48.72 40.4538C48.4775 39.825 48.12 39.2688 47.6538 38.7988C47.2488 38.3913 46.7788 38.06 46.2588 37.815C45.7638 37.5809 45.2339 37.4294 44.69 37.3663C44.8588 36.8563 44.945 36.3313 44.945 35.805C45.0127 33.2269 42.6085 30.9768 39.9813 31.0488C39.8825 31.0513 39.7825 31.0575 39.6838 31.0663C39.6988 30.9125 39.7075 30.7575 39.7075 30.6038C39.752 28.7922 38.4015 26.8517 36.69 26.0713C36.4975 25.9838 36.2963 25.91 36.0888 25.8513L47.2513 14.5963L47.2625 14.585C48.2825 13.535 48.8425 12.2188 48.8388 10.88C48.84 10.2275 48.71 9.58629 48.4513 8.97629C48.195 8.36879 47.8238 7.81879 47.35 7.34254C46.8745 6.86396 46.3056 6.48826 45.6788 6.23879C45.0775 5.99754 44.43 5.87504 43.78 5.87504C43.1325 5.87879 42.4888 6.00254 41.8938 6.24129C41.2684 6.49038 40.7009 6.86521 40.2263 7.34254L17.6738 30.0575C17.4525 29.8838 17.2238 29.665 16.995 29.4088C16.1554 28.7188 14.7025 25.531 13.8287 22.6725C12.5888 19.178 10.2174 16.7343 6.68004 15.295C6.01754 15.045 5.01379 14.7125 3.94879 14.705C3.38879 14.7063 2.90629 14.8038 2.47504 15.0013C1.94754 15.2375 1.49629 15.6675 1.23754 16.1825C1.04129 16.5575 0.935043 16.9988 0.937543 17.4263C0.938793 17.81 1.01004 18.1988 1.16254 18.6488C3.47017 23.409 6.14142 28.7854 6.53754 34.65C6.53754 35.0113 6.52129 35.4188 6.48754 35.8975C6.46379 36.23 6.57129 36.5525 6.79004 36.805C7.01004 37.0563 7.37342 37.2113 7.70592 37.2338C8.35842 37.2338 8.93504 36.7238 8.98129 36.0725C9.02004 35.5263 9.03754 35.075 9.03754 34.65C8.35004 26.2528 5.15404 21.8523 3.43867 17.4583C3.53142 16.5707 6.95892 18.0638 7.20267 18.3108C11.9198 21.0314 11.4827 25.315 13.7163 29.0613C14.2413 29.9863 14.8175 30.77 15.4263 31.3913C16.5838 32.575 17.5238 32.7988 17.6275 32.82C18.0413 32.9138 18.4913 32.7813 18.79 32.4813L42 9.10379C42.4563 8.64129 43.1088 8.37629 43.79 8.37504H43.7988C44.4625 8.37504 45.1263 8.64754 45.575 9.10254C46.0725 9.60879 46.3375 10.2238 46.3388 10.88C46.335 11.5825 46.0413 12.2438 45.4675 12.8438L29.9737 28.4678C29.4875 28.958 29.4909 29.7494 29.9812 30.2355C30.215 30.4681 30.5315 30.5984 30.8613 30.5979C31.0264 30.5981 31.1899 30.5656 31.3423 30.5021C31.4947 30.4386 31.6329 30.3454 31.749 30.228L32.9537 29.013L32.956 29.0104C33.2151 28.7514 33.5228 28.5461 33.8614 28.4063C36.7502 27.2292 38.4585 30.9167 36.1329 32.8445L35.2237 33.7615C34.7375 34.2518 34.7409 35.0432 35.2312 35.5293C35.465 35.7618 35.7815 35.8921 36.1113 35.8917C36.2764 35.8919 36.4399 35.8593 36.5923 35.7958C36.7447 35.7323 36.8829 35.6392 36.999 35.5218L37.9182 34.5948L37.9189 34.594C38.1715 34.3355 38.5908 34.046 38.989 33.855C41.6769 32.5725 43.5859 35.8387 41.609 37.71L40.3998 38.93C39.9135 39.42 39.9167 40.2115 40.4067 40.6978C40.6405 40.9304 40.9571 41.0609 41.287 41.0604C41.4521 41.0606 41.6155 41.0281 41.7678 40.9646C41.9201 40.9012 42.0584 40.8081 42.1744 40.6908C42.1744 40.6908 42.769 40.1999 43.114 40.0525C43.439 39.9113 43.7928 39.8313 44.0865 39.8313C45.4148 39.8089 46.5882 40.8917 46.5628 42.3238C46.564 43.065 46.2715 43.8 45.7803 44.2913C45.7803 44.2913 31.4815 58.7088 31.4153 58.7725C29.5815 60.5288 27.1653 61.4975 24.6103 61.5C21.899 61.4988 19.3199 60.4058 17.4012 58.4708C17.3137 58.387 11.709 52.8274 11.299 52.3237C9.89904 50.6074 9.11654 48.9612 8.76279 46.9849C8.65654 46.3849 8.03154 45.9599 7.42404 45.9599C7.09529 46.0174 6.69904 46.2099 6.50779 46.4837C6.31529 46.7562 6.24279 47.0887 6.30029 47.4174C6.70779 49.7749 7.71029 51.8987 9.36529 53.9087C9.71654 54.3362 15.2022 59.8305 15.6684 60.273C16.8709 61.4805 18.279 62.4212 19.8465 63.0624C21.3665 63.6849 22.969 63.9999 24.6078 63.9999H24.6165C26.174 63.9999 27.694 63.7124 29.1353 63.1462C30.6303 62.5599 31.979 61.6949 33.1453 60.5762C33.2228 60.5024 47.5553 46.0524 47.5553 46.0524C48.0465 45.5549 48.4265 44.9687 48.6865 44.3112C48.9353 43.6787 49.0615 43.0099 49.0628 42.3237C49.0625 41.675 48.9475 41.045 48.72 40.4538ZM14.2777 9.97367C14.3562 10.1178 14.4624 10.2451 14.5902 10.3482C14.718 10.4512 14.8648 10.5281 15.0223 10.5745C15.1798 10.6208 15.3449 10.6356 15.5081 10.6181C15.6714 10.6006 15.8296 10.5511 15.9737 10.4724C16.5798 10.1418 16.803 9.38254 16.4724 8.77654L12.7224 1.90154C12.3919 1.29542 11.6325 1.07217 11.0265 1.40279C10.4205 1.73342 10.1972 2.49267 10.5278 3.09867L14.2777 9.97367Z" fill="#00DCC4"/>
<path d="M27.2765 10.4724C27.4206 10.551 27.5788 10.6005 27.742 10.6179C27.9052 10.6354 28.0703 10.6206 28.2278 10.5743C28.3853 10.528 28.5321 10.4511 28.6599 10.348C28.7877 10.245 28.8939 10.1177 28.9725 9.97363L32.7225 3.09862C33.0531 2.4925 32.8298 1.73325 32.2238 1.40275C31.6178 1.07212 30.8584 1.2955 30.5279 1.9015L26.7779 8.7765C26.447 9.3825 26.6704 10.1418 27.2765 10.4724ZM21.625 10.625C22.3154 10.625 22.875 10.0654 22.875 9.375V1.25C22.875 0.559625 22.3154 0 21.625 0C20.9346 0 20.375 0.559625 20.375 1.25V9.375C20.375 10.0654 20.9346 10.625 21.625 10.625Z" fill="#00DCC4"/>
<path d="M7.28418 42.8408C7.97454 42.8408 8.53418 42.2812 8.53418 41.5908C8.53418 40.9005 7.97454 40.3408 7.28418 40.3408C6.59382 40.3408 6.03418 40.9005 6.03418 41.5908C6.03418 42.2812 6.59382 42.8408 7.28418 42.8408Z" fill="#00DCC4"/>
</svg>
