<svg width="266" height="253" viewBox="0 0 266 253" fill="none" xmlns="http://www.w3.org/2000/svg">
<g clip-path="url(#clip0_905_617)">
<path d="M-48.0594 -780.879C-21.3627 -788.183 16.1679 -772.729 30.6678 -750.036C45.1676 -727.344 50.0879 -693.147 25.4151 -665.803C-107.927 -518.034 1.22948 -392.009 86.1012 -348.497C103.651 -339.512 103.622 -314.349 86.0703 -305.382C32.085 -277.828 -61.9687 -186.125 -60.1239 -68.3491C-56.3095 176.107 149.19 198.503 312.253 290.308C402.679 341.216 443.434 418.053 500.181 513.887" stroke="#2FDDC0" stroke-width="0.5" stroke-miterlimit="10"/>
<path d="M-95.7975 -803.072C-79.1922 -802.204 -58.302 -784.294 -49.1804 -759.497C-41.6134 -738.956 -37.2238 -710.66 -52.0034 -685.971C-120.569 -571.499 -85.1203 -451.954 -26.7875 -396.868C-16.8674 -387.495 -18.9873 -368.281 -28.3771 -357.313C-63.6029 -316.128 -115.297 -233.986 -117.879 -140.12C-123.123 53.6903 8.43031 107.931 61.8178 222.558C97.2511 298.639 119.286 370.084 145.835 432.303" stroke="white" stroke-width="0.5" stroke-miterlimit="10"/>
<path d="M-105.343 -807.519C-90.7578 -805.024 -73.0919 -786.685 -65.1512 -761.41C-58.8565 -741.38 -54.7463 -714.307 -67.4836 -690.031C-123.664 -582.954 -89.5235 -476.443 -49.3725 -406.568C-43.0049 -395.483 -43.4346 -378.869 -51.2686 -367.713C-82.5643 -323.161 -125.964 -243.577 -129.428 -154.503C-136.482 29.1801 -43.6383 105.421 11.7275 208.967C51.1058 282.619 54.4563 360.442 74.9769 415.953" stroke="#2FDDC0" stroke-width="0.5" stroke-miterlimit="10"/>
<path d="M-114.89 -811.966C-102.326 -807.821 -87.8255 -789.102 -81.1128 -763.312C-76.0457 -743.808 -72.3371 -718.016 -82.9663 -694.069C-127.126 -594.677 -103.799 -491.95 -71.9482 -416.255C-67.2618 -405.104 -67.7904 -389.414 -74.1603 -378.113C-101.249 -329.991 -136.622 -253.156 -140.98 -168.865C-149.843 4.6913 -77.504 92.4618 -38.3559 195.409C-8.33608 274.374 -10.3663 350.834 4.11651 399.624" stroke="white" stroke-width="0.5" stroke-miterlimit="10"/>
<path d="M-124.439 -816.392C-113.895 -810.619 -102.487 -791.5 -97.0893 -765.183C-93.1957 -746.21 -90.0345 -721.736 -98.4522 -698.085C-131.039 -606.601 -117.295 -507.616 -94.5176 -425.91C-91.3922 -414.711 -92.0692 -399.885 -97.0244 -388.478C-119.534 -336.657 -147.274 -262.701 -152.504 -183.192C-163.178 -19.762 -112.362 79.7333 -88.4232 181.896C-68.638 266.332 -75.1846 341.28 -66.7395 383.35" stroke="white" stroke-width="0.5" stroke-miterlimit="10"/>
<path d="M-133.986 -820.838C-125.461 -813.438 -117.068 -793.942 -113.051 -767.085C-110.289 -748.637 -107.872 -725.537 -113.923 -702.132C-135.508 -618.717 -129.878 -523.199 -117.093 -435.597C-115.447 -424.319 -116.289 -410.404 -119.916 -398.877C-137.432 -343.322 -157.941 -272.292 -164.054 -197.574C-176.537 -44.2716 -148.221 66.6656 -138.504 168.316C-129.925 258.092 -140.004 331.65 -137.597 367" stroke="white" stroke-width="0.5" stroke-miterlimit="10"/>
<path d="M-143.532 -825.285C-137.018 -816.245 -131.575 -796.366 -129.013 -768.987C-127.339 -751.06 -125.946 -729.343 -129.406 -706.17C-140.66 -630.771 -141.687 -538.415 -139.669 -445.285C-139.424 -433.855 -140.418 -420.955 -142.808 -409.277C-154.893 -350.066 -168.609 -281.882 -175.606 -211.936C-189.899 -68.7602 -184.799 52.9361 -188.596 154.746C-192.114 249.395 -204.826 322.042 -208.465 350.659" stroke="white" stroke-width="0.5" stroke-miterlimit="10"/>
<path d="M-153.07 -829.72C-110.374 -728.175 -238.908 242.953 -279.327 334.351" stroke="white" stroke-width="0.5" stroke-miterlimit="10"/>
</g>
<defs>
<clipPath id="clip0_905_617">
<rect width="253" height="266" fill="white" transform="translate(266) rotate(90)"/>
</clipPath>
</defs>
</svg>
