<svg width="40" height="40" viewBox="0 0 40 40" fill="none" xmlns="http://www.w3.org/2000/svg">
<rect width="40" height="40" rx="20" fill="#C9C9C9"/>
<path d="M23.9417 7.73114H20.5975C17.2094 7.73114 13.7906 10.233 13.7906 15.8225C13.7906 18.7177 15.0177 20.9726 17.267 22.255L13.1501 29.7066C12.9549 30.0591 12.9498 30.4585 13.1364 30.775C13.3186 31.0842 13.6518 31.2688 14.0273 31.2688H16.1098C16.5829 31.2688 16.9518 31.0402 17.1287 30.6396L20.9888 23.0895H21.2705V30.3278C21.2705 30.8379 21.7009 31.2688 22.2104 31.2688H24.0297C24.6011 31.2688 25 30.8699 25 30.2986V8.76105C25.0001 8.15468 24.5649 7.73114 23.9417 7.73114ZM21.2705 19.7356H20.7735C18.8466 19.7356 17.6962 18.1627 17.6962 15.5281C17.6962 12.2522 19.1494 11.085 20.5095 11.085H21.2705V19.7356Z" fill="white"/>
</svg>
