<svg width="40" height="40" viewBox="0 0 40 40" fill="none" xmlns="http://www.w3.org/2000/svg">
<rect width="40" height="40" rx="20" fill="#F3F3F3"/>
<path d="M12.2054 22.9207L11.2308 26.5592L7.66846 26.6346C6.60386 24.66 6 22.4008 6 20C6 17.6785 6.56459 15.4892 7.56538 13.5615H7.56614L10.7376 14.143L12.1269 17.2954C11.8361 18.1431 11.6776 19.0531 11.6776 20C11.6777 21.0277 11.8639 22.0123 12.2054 22.9207Z" fill="#C9C9C9"/>
<path d="M33.7562 17.3846C33.917 18.2315 34.0008 19.1062 34.0008 20C34.0008 21.0023 33.8954 21.98 33.6947 22.9231C33.0132 26.1323 31.2324 28.9346 28.7655 30.9177L28.7647 30.917L24.7701 30.7131L24.2048 27.1839C25.8417 26.2239 27.1209 24.7216 27.7948 22.9231H20.3086V17.3846H33.7562Z" fill="#C9C9C9"/>
<path d="M28.7633 30.9169L28.7641 30.9177C26.3649 32.8461 23.3172 34 19.9995 34C14.668 34 10.0326 31.02 7.66797 26.6346L12.2049 22.9208C13.3872 26.0761 16.431 28.3223 19.9995 28.3223C21.5333 28.3223 22.9703 27.9077 24.2033 27.1838L28.7633 30.9169Z" fill="#C9C9C9"/>
<path d="M28.9333 9.22306L24.3979 12.9361C23.1218 12.1385 21.6133 11.6777 19.9971 11.6777C16.3479 11.6777 13.2471 14.0269 12.124 17.2954L7.56327 13.5615H7.5625C9.89252 9.06923 14.5863 6 19.9971 6C23.394 6 26.5087 7.21002 28.9333 9.22306Z" fill="#C9C9C9"/>
</svg>
