<svg width="40" height="40" viewBox="0 0 40 40" fill="none" xmlns="http://www.w3.org/2000/svg">
<g clip-path="url(#clip0_906_8421)">
<path d="M0 19.1666C0 10.1314 0 5.61375 2.80688 2.80688C5.61375 0 10.1314 0 19.1666 0H20.8333C29.8685 0 34.3862 0 37.193 2.80688C40 5.61375 40 10.1314 40 19.1666V20.8333C40 29.8685 40 34.3862 37.193 37.193C34.3862 40 29.8686 40 20.8334 40H19.1667C10.1315 40 5.61383 40 2.80695 37.1931C0 34.3862 0 29.8686 0 20.8334V19.1666Z" fill="#C9C9C9"/>
<path fill-rule="evenodd" clip-rule="evenodd" d="M10.8316 12.5H7.9143C7.08078 12.5 6.91406 12.8923 6.91406 13.3248C6.91406 14.0974 7.90313 17.929 11.5192 22.9966C13.93 26.4573 17.3265 28.3333 20.4172 28.3333C22.2716 28.3333 22.501 27.9166 22.501 27.1989V24.5833C22.501 23.7499 22.6767 23.5836 23.2638 23.5836C23.6966 23.5836 24.4384 23.7999 26.1691 25.4685C28.1472 27.4461 28.4733 28.3333 29.5859 28.3333H32.5032C33.3368 28.3333 33.7535 27.9166 33.5131 27.0944C33.25 26.2748 32.3056 25.0858 31.0524 23.6764C30.3724 22.873 29.3525 22.0078 29.0434 21.5752C28.6108 21.019 28.7344 20.7717 29.0434 20.2774C29.0434 20.2774 32.5978 15.2716 32.9687 13.5722C33.1541 12.9541 32.9687 12.5 32.0864 12.5H29.1691C28.4273 12.5 28.0853 12.8923 27.8998 13.3248C27.8998 13.3248 26.4163 16.9402 24.3147 19.2886C23.6347 19.9684 23.3256 20.1847 22.9547 20.1847C22.7693 20.1847 22.5009 19.9684 22.5009 19.3505V13.5722C22.5009 12.8305 22.2856 12.5 21.6673 12.5H17.083C16.6195 12.5 16.3406 12.8441 16.3406 13.1704C16.3406 13.8734 17.3915 14.0355 17.4998 16.0131V20.3083C17.4998 21.2499 17.3296 21.4207 16.9587 21.4207C15.9698 21.4207 13.564 17.7892 12.1372 13.6338C11.8577 12.8263 11.5773 12.5 10.8316 12.5Z" fill="white"/>
</g>
<defs>
<clipPath id="clip0_906_8421">
<rect width="40" height="40" rx="20" fill="white"/>
</clipPath>
</defs>
</svg>
