<svg width="478" height="89" viewBox="0 0 478 89" fill="none" xmlns="http://www.w3.org/2000/svg">
<path fill-rule="evenodd" clip-rule="evenodd" d="M248.826 30.3203C247.224 30.3203 245.623 30.6601 244.27 31.3372V34.571C245.33 33.7571 246.93 33.373 248.306 33.373C250.877 33.3951 253.246 34.2772 253.787 37.0805H246.728V39.9964H253.855C253.381 42.869 250.855 43.7271 248.239 43.7271C246.795 43.7271 245.33 43.3429 244.27 42.4156V45.7628C245.623 46.4177 247.178 46.7797 248.735 46.7797C252.975 46.7797 257.259 44.3837 257.259 38.7531C257.259 32.8751 252.997 30.3203 248.826 30.3203ZM284.94 39.9521H292V36.9901H284.94V33.6214H292.677V30.6371H281.558V46.463H292.812V43.4787H284.94V39.9521ZM311.68 30.6369H307.913L303.923 36.9223H301.373V30.6369H297.991V46.4629H301.373V39.9963H303.923L308.229 46.4629H311.973L306.562 38.3467L311.68 30.6369ZM315.426 33.6894H320.274V46.4627H323.635V33.6894H328.483V30.6368H315.426V33.6894ZM339.772 38.2792H337.045V33.6213H339.772C341.51 33.6213 342.976 34.0738 342.976 35.9499C342.976 37.8045 341.51 38.2792 339.772 38.2792ZM339.615 30.6369H333.662V46.4629H337.045V41.2635H339.615C343.426 41.2635 346.425 40.0425 346.425 35.9499C346.425 31.8579 343.426 30.6369 339.615 30.6369ZM386.151 30.6369H382.385L378.393 36.9223H375.844V30.6369H372.462V46.4629H375.844V39.9963H378.393L382.701 46.4629H386.443L381.031 38.3467L386.151 30.6369ZM395.625 40.6978L397.813 35.0229C397.947 34.7061 398.06 34.3902 398.172 33.7796C398.285 34.3902 398.399 34.7061 398.512 35.0229L400.721 40.6978H395.625ZM396.346 30.6365L389.897 46.4632H393.391L394.564 43.5011H401.781L402.931 46.4632H406.427L399.999 30.6365H396.346ZM417.62 43.4788H414.125V39.4996H417.62C418.952 39.4996 420.192 39.7935 420.192 41.4892C420.192 43.185 418.952 43.4788 417.62 43.4788ZM417.598 36.5154H414.125V33.6896H422.357V30.6371H410.742V46.4632H417.598C420.71 46.4632 423.642 45.4231 423.642 41.4892C423.642 37.5785 420.71 36.5154 417.598 36.5154ZM432.203 39.9521H439.263V36.9901H432.203V33.6214H439.939V30.6371H428.82V46.463H440.074V43.4787H432.203V39.9521ZM471.348 43.4788H468.619V38.8217H471.348C473.084 38.8217 474.549 39.2956 474.549 41.1502C474.549 43.0041 473.084 43.4788 471.348 43.4788ZM471.19 35.8366H468.619V30.6372H465.236V46.4632H471.19C475.002 46.4632 478 45.2429 478 41.1502C478 37.0576 475.002 35.8596 471.19 35.8366ZM363.785 39.9521C363.311 42.0643 361.721 43.6376 359.022 43.6376C356.305 43.6376 354.712 42.0644 354.237 39.9521H350.741C351.289 43.6648 354.046 46.7798 359.022 46.7798C363.998 46.7798 366.754 43.6647 367.303 39.9521H363.785ZM354.274 36.9904C354.791 34.9571 356.372 33.4631 359.022 33.4631C361.654 33.4631 363.232 34.9571 363.749 36.9904H367.284C366.68 33.3478 363.928 30.3207 359.022 30.3207C354.116 30.3207 351.363 33.3478 350.761 36.9904H354.274ZM211.395 36.9904C212.112 34.4264 214.427 33.3272 216.734 33.3272C218.199 33.3272 219.665 33.7797 220.68 34.5712V31.3376C219.327 30.6605 217.749 30.3207 216.17 30.3207C212.403 30.3207 208.628 32.4197 207.847 36.9904H211.395ZM216.734 43.7504C214.328 43.7504 211.854 42.5746 211.285 39.9523H207.774C208.365 44.6186 212.324 46.78 216.215 46.78C217.883 46.78 219.44 46.418 220.793 45.7622V42.4389C219.846 43.2979 218.358 43.7504 216.734 43.7504ZM134.988 36.9904C135.506 34.9571 137.087 33.4631 139.736 33.4631C142.368 33.4631 143.945 34.9571 144.462 36.9904H147.998C147.395 33.3478 144.642 30.3207 139.736 30.3207C134.831 30.3207 132.077 33.3478 131.475 36.9904H134.988ZM144.499 39.9521C144.025 42.0643 142.435 43.6376 139.735 43.6376C137.019 43.6376 135.426 42.0644 134.951 39.9521H131.454C132.004 43.6648 134.76 46.7798 139.735 46.7798C144.712 46.7798 147.468 43.6647 148.017 39.9521H144.499ZM94.6267 36.9904C95.344 34.4264 97.6601 33.3272 99.9663 33.3272C101.432 33.3272 102.898 33.7797 103.912 34.5712V31.3376C102.56 30.6605 100.981 30.3207 99.4017 30.3207C95.6362 30.3207 91.8609 32.4197 91.0787 36.9904H94.6267ZM99.9661 43.7504C97.5597 43.7504 95.0861 42.5746 94.5173 39.9523H91.0063C91.5971 44.6186 95.5562 46.78 99.4474 46.78C101.116 46.78 102.672 46.418 104.025 45.7622V42.4389C103.079 43.2979 101.59 43.7504 99.9661 43.7504ZM156.139 43.5013L159.386 35.0222C159.521 34.7063 159.634 34.3903 159.747 33.7797C159.86 34.3903 159.973 34.7063 160.085 35.0222L163.355 43.5013L164.505 46.4635H168.001L161.573 30.6366H157.921L151.471 46.4635H154.966L156.139 43.5013ZM265.38 43.5013L268.628 35.0222C268.763 34.7063 268.876 34.3903 268.988 33.7797C269.101 34.3903 269.215 34.7063 269.327 35.0222L272.597 43.5013L273.748 46.4635H277.243L270.815 30.6366H267.162L260.713 46.4635H264.208L265.38 43.5013ZM449.059 43.5013L452.306 35.0222C452.441 34.7063 452.553 34.3903 452.667 33.7797C452.78 34.3903 452.892 34.7063 453.005 35.0222L456.274 43.5013L457.425 46.4635H460.92L454.493 30.6366H450.84L444.39 46.4635H447.886L449.059 43.5013ZM92.3608 19.1962V12.8696H97.5084V19.1962H96.7524V13.592H93.1183V19.1962H92.3608ZM105.593 13.5924H104.16V16.232H105.593C106.621 16.232 107.469 15.9785 107.469 14.9122C107.469 13.8359 106.631 13.5924 105.593 13.5924ZM105.557 12.8691C107.017 12.8691 108.235 13.3298 108.235 14.9122C108.235 16.4936 107.017 16.9544 105.557 16.9544H104.16V19.1965H103.402V12.8693L105.557 12.8691ZM116.679 13.4839C114.967 13.4839 114.146 14.7313 114.146 16.033C114.146 17.3347 114.967 18.5813 116.679 18.5813C118.392 18.5813 119.213 17.3347 119.213 16.033C119.213 14.7313 118.392 13.4839 116.679 13.4839ZM116.679 12.7606C118.889 12.7606 119.98 14.3964 119.98 16.033C119.98 17.6687 118.889 19.3046 116.679 19.3046C114.471 19.3046 113.379 17.6687 113.379 16.033C113.379 14.3964 114.471 12.7606 116.679 12.7606ZM129.984 19.1962V14.1343L126.189 19.1962H125.486V12.8696H126.243V17.9216L130.038 12.8696H130.742V19.1962H129.984ZM138.398 19.3047C137.55 19.3047 136.857 19.178 136.153 18.9072V18.1477C136.847 18.4737 137.541 18.5904 138.344 18.5814C139.201 18.5814 140.12 18.3559 140.12 17.4164C140.12 16.503 139.245 16.2768 138.425 16.2768H137.136V15.5535H138.344C139.245 15.5535 139.868 15.2013 139.868 14.5233C139.868 13.7458 139.183 13.4841 138.227 13.4841C137.523 13.4751 136.937 13.6101 136.261 13.9267V13.1673C136.902 12.8877 137.532 12.7608 138.29 12.7608C139.624 12.7608 140.634 13.3031 140.634 14.4327C140.634 15.2013 140.174 15.6983 139.597 15.8884C140.174 16.006 140.895 16.4668 140.895 17.4879C140.895 18.8522 139.57 19.3047 138.398 19.3047ZM149.144 16.2859H147.188V18.4737H148.937C149.73 18.4737 150.65 18.4193 150.65 17.3794C150.65 16.3944 149.748 16.2859 149.144 16.2859ZM148.956 13.5928H147.188V15.5626H149.162C149.821 15.5626 150.398 15.301 150.398 14.5776C150.398 13.8272 149.847 13.5928 148.956 13.5928ZM149.019 12.8696C150.307 12.8696 151.164 13.4026 151.164 14.4691C151.164 15.2738 150.65 15.7256 150.154 15.8696C150.677 16.0152 151.416 16.4306 151.416 17.4608C151.416 18.8982 150.01 19.1962 149.09 19.1962H146.43V12.8694L149.019 12.8696ZM159.888 13.4839C158.175 13.4839 157.355 14.7313 157.355 16.033C157.355 17.3347 158.174 18.5813 159.888 18.5813C161.601 18.5813 162.422 17.3347 162.422 16.033C162.422 14.7313 161.601 13.4839 159.888 13.4839ZM159.888 12.7606C162.096 12.7606 163.188 14.3964 163.188 16.033C163.188 17.6687 162.096 19.3046 159.888 19.3046C157.68 19.3046 156.588 17.6687 156.588 16.033C156.588 14.3964 157.68 12.7606 159.888 12.7606ZM169.501 18.4738H172.801V13.5921H170.456C170.357 15.3011 170.132 17.2257 169.501 18.4738ZM167.887 20.6872V18.4738H168.653C169.465 17.0002 169.681 14.8133 169.681 12.8688H173.558V18.4738H174.352V20.6872H173.629V19.1964H168.608V20.6872H167.887ZM182.536 12.7606C183.168 12.7606 183.78 12.9055 184.312 13.1861V13.9448C183.852 13.637 183.257 13.4841 182.661 13.4841C181.355 13.4841 179.993 14.2706 179.985 16.0776C179.975 17.7684 181.382 18.5813 182.689 18.5813C183.338 18.5813 183.924 18.4283 184.357 18.1214V18.88C183.834 19.1516 183.202 19.3046 182.527 19.3046C180.94 19.3046 179.209 18.184 179.218 16.0776C179.228 13.8815 180.895 12.7606 182.536 12.7606ZM194.61 12.8691V13.5924H192.393V19.1958H191.634V13.5924H189.417V12.8691H194.61ZM202.626 16.2859H200.669V18.4737H202.418C203.212 18.4737 204.132 18.4193 204.132 17.3794C204.132 16.3944 203.229 16.2859 202.626 16.2859ZM202.437 13.5928H200.669V15.5626H202.643C203.302 15.5626 203.879 15.301 203.879 14.5776C203.879 13.8272 203.328 13.5928 202.437 13.5928ZM202.5 12.8696C203.789 12.8696 204.646 13.4026 204.646 14.4691C204.646 15.2738 204.132 15.7256 203.635 15.8696C204.158 16.0152 204.897 16.4306 204.897 17.4608C204.897 18.8982 203.492 19.1962 202.572 19.1962H199.912V12.8694L202.5 12.8696ZM214.698 12.8691V13.5924H211.2V15.6437H214.427V16.367H211.2V18.4743H214.751V19.1958H210.441V12.8691H214.698ZM225.464 12.8691V19.1958H224.706V16.3851H220.966V19.1958H220.208V12.8691H220.966V15.6627H224.706V12.8691H225.464ZM236.613 12.8691V19.1958H235.856V16.3851H232.115V19.1958H231.358V12.8691H232.115V15.6627H235.856V12.8691H236.613ZM245.414 13.4839C243.701 13.4839 242.881 14.7313 242.881 16.033C242.881 17.3347 243.701 18.5813 245.414 18.5813C247.127 18.5813 247.948 17.3347 247.948 16.033C247.948 14.7313 247.127 13.4839 245.414 13.4839ZM245.414 12.7606C247.622 12.7606 248.715 14.3964 248.715 16.033C248.715 17.6687 247.622 19.3046 245.414 19.3046C243.206 19.3046 242.114 17.6687 242.114 16.033C242.114 14.3964 243.206 12.7606 245.414 12.7606ZM258.476 12.8691V13.5924H254.977V15.6437H258.205V16.367H254.977V18.4743H258.53V19.1958H254.22V12.8691H258.476ZM273.125 13.4839C271.411 13.4839 270.591 14.7313 270.591 16.033C270.591 17.3347 271.411 18.5813 273.125 18.5813C274.838 18.5813 275.659 17.3347 275.659 16.033C275.659 14.7313 274.838 13.4839 273.125 13.4839ZM273.125 12.7606C275.334 12.7606 276.425 14.3964 276.425 16.033C276.425 17.6687 275.334 19.3046 273.125 19.3046C270.916 19.3046 269.825 17.6687 269.825 16.033C269.825 14.3964 270.916 12.7606 273.125 12.7606ZM284.401 18.4738C285.204 18.4738 286.024 18.3472 286.024 17.317C286.024 16.2769 285.195 16.1503 284.401 16.1503H282.688V18.4738H284.401ZM284.365 15.4278C285.528 15.4278 286.789 15.7701 286.789 17.317C286.789 18.8622 285.528 19.1964 284.365 19.1964H281.931V12.869H286.303V13.5921H282.688V15.4278H284.365ZM293.96 18.4738H295.393C296.43 18.4738 297.268 18.2294 297.268 17.1542C297.268 16.0869 296.421 15.8432 295.393 15.8432H293.96V18.4738ZM293.201 19.1964V13.5921H291.597V12.8688H293.96V15.1201H295.356C296.817 15.1201 298.034 15.5717 298.034 17.154C298.034 18.7356 296.817 19.1964 295.356 19.1964H293.201ZM307.683 12.8691V13.5924H304.185V15.6437H307.413V16.367H304.185V18.4743H307.737V19.1958H303.427V12.8691H307.683ZM314.478 18.4738H317.778V13.5921H315.434C315.334 15.3011 315.109 17.2257 314.478 18.4738ZM312.863 20.6872V18.4738H313.63C314.441 17.0002 314.657 14.8133 314.657 12.8688H318.534V18.4738H319.328V20.6872H318.606V19.1964H313.585V20.6872H312.863ZM329.216 19.1962V14.1343L325.42 19.1962H324.718V12.8696H325.474V17.9216L329.27 12.8696H329.974V19.1962H329.216ZM341.124 12.8691V19.1958H340.365V16.3851H336.625V19.1958H335.867V12.8691H336.625V15.6627H340.365V12.8691H341.124ZM351.272 12.8691V13.5924H347.773V15.6437H351.001V16.367H347.773V18.4743H351.325V19.1958H347.016V12.8691H351.272ZM362.038 12.8691V19.1958H361.28V16.3851H357.539V19.1958H356.782V12.8691H357.539V15.6627H361.28V12.8691H362.038ZM372.43 19.1962V14.1343L368.635 19.1962H367.932V12.8696H368.688V17.9216L372.484 12.8696H373.188V19.1962H372.43ZM383.338 12.8691V13.5924H379.838V15.6437H383.067V16.367H379.838V18.4743H383.39V19.1958H379.082V12.8691H383.338ZM31.2453 5.71941C44.4598 5.71941 55.3367 15.7291 56.7565 28.5978H62.4876C61.0456 12.5645 47.612 0 31.2453 0C14.8792 0.000144857 1.44521 12.5646 0.0039387 28.5979H5.73504C7.15414 15.7291 18.0318 5.71941 31.2453 5.71941ZM34.6973 62.7208C49.467 61.0991 61.1523 49.2053 62.4919 34.3166H56.7567C55.4401 46.2456 45.9961 55.7106 34.0982 57.0311V40.0367H28.3926V57.0311C16.4954 55.7104 7.05071 46.2457 5.73489 34.3166H0C1.33843 49.2053 13.0246 61.0991 27.7935 62.7208C25.2706 74.2781 15.0066 82.9316 2.72135 82.9316C2.24559 82.9316 1.76992 82.9179 1.29496 82.8905V88.6164C1.7676 88.6386 2.24287 88.6517 2.72135 88.6517C15.385 88.6517 26.2882 81.1264 31.2454 70.2966C36.2034 81.1264 47.1067 88.6517 59.7704 88.6517C60.2488 88.6517 60.724 88.6387 61.1968 88.6164V82.8905C60.7218 82.9179 60.2461 82.9316 59.7704 82.9316C47.485 82.9316 37.221 74.2781 34.6973 62.7208ZM94.9768 59.8169C93.2534 59.8169 92.4277 61.0709 92.4277 62.3791C92.4277 63.689 93.2534 64.9431 94.9768 64.9431C96.6979 64.9431 97.5244 63.689 97.5244 62.3791C97.5244 61.0709 96.6979 59.8169 94.9768 59.8169ZM94.9768 59.0887C97.1978 59.0887 98.2958 60.7342 98.2958 62.3791C98.2958 64.0255 97.1978 65.6713 94.9768 65.6713C92.7536 65.6713 91.6579 64.0257 91.6579 62.3791C91.6579 60.7344 92.7535 59.0887 94.9768 59.0887ZM106.188 59.0889C106.823 59.0889 107.439 59.2354 107.975 59.5177V60.2797C107.512 59.9703 106.914 59.8171 106.314 59.8171C105.001 59.8171 103.631 60.6079 103.621 62.4263C103.613 64.1255 105.028 64.9432 106.341 64.9432C106.994 64.9432 107.585 64.7894 108.019 64.4801V65.2428C107.495 65.5169 106.859 65.6716 106.178 65.6716C104.583 65.6716 102.842 64.5443 102.852 62.4263C102.859 60.2162 104.538 59.0889 106.188 59.0889ZM118.072 59.1982V65.5619H117.311V62.7347H113.548V65.5619H112.787V59.1982H113.548V62.0065H117.311V59.1982H118.072ZM126.223 59.8169C124.499 59.8169 123.674 61.0709 123.674 62.3791C123.674 63.689 124.499 64.9431 126.223 64.9431C127.945 64.9431 128.77 63.689 128.77 62.3791C128.77 61.0709 127.945 59.8169 126.223 59.8169ZM126.223 59.0887C128.444 59.0887 129.542 60.7342 129.542 62.3791C129.542 64.0255 128.444 65.6713 126.223 65.6713C123.999 65.6713 122.904 64.0257 122.904 62.3791C122.904 60.7344 123.999 59.0887 126.223 59.0887ZM137.102 62.6351H135.135V64.8343H136.893C137.691 64.8343 138.617 64.78 138.617 63.7351C138.617 62.7436 137.709 62.6351 137.102 62.6351ZM136.912 59.9255H135.135V61.9067H137.119C137.78 61.9067 138.361 61.6442 138.361 60.916C138.361 60.1616 137.808 59.9255 136.912 59.9255ZM136.974 59.198C138.271 59.198 139.133 59.7354 139.133 60.8074C139.133 61.6163 138.617 62.0705 138.117 62.2169C138.643 62.3617 139.385 62.7806 139.385 63.8165C139.385 65.2622 137.972 65.5625 137.047 65.5625H134.372V59.198H136.974ZM145.304 63.3163H148.123L146.808 60.2258C146.773 60.1444 146.746 60.0712 146.708 59.9798C146.673 60.0711 146.645 60.1444 146.609 60.2258L145.304 63.3163ZM143.527 65.5618L146.291 59.1982H147.135L149.891 65.5618H149.075L148.423 64.0255H145.005L144.352 65.5618H143.527ZM159.782 59.1982V65.5619H159.021V62.7347H155.258V65.5619H154.497V59.1982H155.258V62.0065H159.021V59.1982H159.782ZM173.687 62.6351H171.72V64.8343H173.478C174.277 64.8343 175.202 64.78 175.202 63.7351C175.202 62.7436 174.295 62.6351 173.687 62.6351ZM173.496 59.9255H171.72V61.9067H173.705C174.368 61.9067 174.948 61.6442 174.948 60.916C174.948 60.1616 174.395 59.9255 173.496 59.9255ZM173.561 59.198C174.858 59.198 175.719 59.7354 175.719 60.8074C175.719 61.6163 175.202 62.0705 174.702 62.2169C175.229 62.3617 175.973 62.7806 175.973 63.8165C175.973 65.2622 174.559 65.5625 173.634 65.5625H170.959V59.198H173.561ZM188.445 59.3798V64.8343H189.596V65.5625H186.388V64.8343H187.684V60.1894L186.388 60.6806V59.9524L187.882 59.3798H188.445ZM194.528 61.2625C194.528 62.2351 195.264 62.5255 196.061 62.5255C196.668 62.5255 197.294 62.3256 197.794 61.8796C197.676 60.5804 197.031 59.9797 196.025 59.9797C195.199 59.9797 194.528 60.3253 194.528 61.2625ZM195.97 59.2713C197.757 59.2713 198.573 60.461 198.573 62.3708C198.573 64.6435 197.357 65.6711 195.772 65.6711C195.244 65.6711 194.719 65.5444 194.274 65.3165V64.5899C194.737 64.8343 195.264 64.9438 195.752 64.9438C196.787 64.9438 197.711 64.3529 197.801 62.644C197.177 63.0628 196.579 63.2339 195.87 63.2339C194.848 63.2339 193.758 62.5888 193.758 61.2979C193.758 59.9797 194.764 59.2713 195.97 59.2713ZM205.645 59.9801C204.718 59.9801 204.176 60.3709 204.176 60.8621C204.176 61.6619 205.011 61.8528 205.718 62.0708C205.944 62.135 206.206 62.1983 206.47 62.2799C206.96 61.9615 207.196 61.5262 207.196 61.1074C207.196 60.4984 206.66 59.9801 205.645 59.9801ZM204.891 62.5069C204.257 62.8163 203.957 63.3249 203.957 63.7799C203.957 64.5081 204.566 64.9631 205.735 64.9631C206.695 64.9631 207.412 64.5903 207.412 64.0258C207.412 63.2252 206.605 63.0343 205.753 62.7801C205.482 62.7069 205.184 62.6162 204.891 62.5069ZM205.663 59.2716C207.088 59.2716 207.929 60.0796 207.957 60.9715C207.975 61.5352 207.703 62.1252 207.113 62.5341C207.703 62.8253 208.175 63.2623 208.175 63.9888C208.175 64.8437 207.449 65.6714 205.718 65.6714C204.03 65.6714 203.197 64.8075 203.197 63.8621C203.197 63.2985 203.523 62.6254 204.249 62.1983C203.769 61.9072 203.414 61.4891 203.414 60.8711C203.414 60.0887 204.086 59.2716 205.663 59.2716ZM213.406 61.2625C213.406 62.2351 214.142 62.5255 214.939 62.5255C215.546 62.5255 216.172 62.3256 216.672 61.8796C216.554 60.5804 215.909 59.9797 214.903 59.9797C214.077 59.9797 213.406 60.3253 213.406 61.2625ZM214.848 59.2713C216.634 59.2713 217.451 60.461 217.451 62.3708C217.451 64.6435 216.235 65.6711 214.65 65.6711C214.122 65.6711 213.597 65.5444 213.152 65.3165V64.5899C213.615 64.8343 214.142 64.9438 214.629 64.9438C215.664 64.9438 216.589 64.3529 216.679 62.644C216.054 63.0628 215.456 63.2339 214.748 63.2339C213.725 63.2339 212.635 62.5888 212.635 61.2979C212.635 59.9797 213.642 59.2713 214.848 59.2713ZM117.751 38.8666L112.339 30.6368H109.205V46.4627H112.587V36.696L116.759 43.071H118.72L122.894 36.719V46.4627H126.277V30.6368H123.141L117.751 38.8666ZM175.698 39.9521H182.758V36.9901H175.698V33.6214H183.434V30.6371H172.316V46.463H183.57V43.4787H175.698V39.9521ZM199.213 37.0128H192.132V30.6369H188.749V46.4629H192.132V40.0868H199.213V46.4629H202.596V30.6369H199.213V37.0128ZM239.661 30.6369H235.894L231.904 36.9223H229.355V30.6369H225.972V46.4629H229.355V39.9963H231.904L236.21 46.4629H239.954L234.543 38.3467L239.661 30.6369Z" fill="white"/>
</svg>
