<svg width="22" height="22" viewBox="0 0 22 22" fill="none" xmlns="http://www.w3.org/2000/svg">
<g clip-path="url(#clip0_906_7763)">
<path d="M17.4191 15.5811C15.9065 15.5811 14.6759 16.8117 14.6759 18.3242C14.6759 19.8368 15.9065 21.0674 17.4191 21.0674C18.9316 21.0674 20.1622 19.8368 20.1622 18.3242C20.1622 16.8117 18.9316 15.5811 17.4191 15.5811ZM17.4191 19.4215C16.8139 19.4215 16.3218 18.9294 16.3218 18.3242C16.3218 17.7191 16.8139 17.227 17.4191 17.227C18.0242 17.227 18.5163 17.7191 18.5163 18.3242C18.5163 18.9294 18.0242 19.4215 17.4191 19.4215ZM21.8251 4.97904C21.7482 4.88064 21.6499 4.80107 21.5376 4.74636C21.4253 4.69165 21.3021 4.66325 21.1772 4.6633H5.0798L4.33914 1.56438C4.29609 1.38446 4.19371 1.22427 4.04848 1.10966C3.90326 0.995055 3.72367 0.932698 3.53867 0.932648H0.822942C0.368416 0.932605 0 1.30102 0 1.75555C0 2.21007 0.368416 2.57849 0.822942 2.57849H2.88911L5.56367 13.7695C5.60667 13.9494 5.70904 14.1096 5.85427 14.2242C5.99951 14.3389 6.17913 14.4012 6.36414 14.4012H19.1747C19.553 14.4012 19.8827 14.1433 19.9735 13.7763L21.976 5.68399C22.0059 5.56273 22.0079 5.43626 21.9817 5.31414C21.9556 5.19202 21.902 5.07744 21.8251 4.97904ZM18.5309 12.7554H7.0137L5.47313 6.30919H20.1257L18.5309 12.7554ZM7.4614 15.5811C5.9488 15.5811 4.71825 16.8117 4.71825 18.3242C4.71825 19.8368 5.94884 21.0674 7.4614 21.0674C8.97395 21.0674 10.2045 19.8368 10.2045 18.3242C10.2045 16.8117 8.97395 15.5811 7.4614 15.5811ZM7.4614 19.4215C6.85626 19.4215 6.36414 18.9294 6.36414 18.3242C6.36414 17.7191 6.85626 17.227 7.4614 17.227C8.06653 17.227 8.55865 17.7191 8.55865 18.3242C8.55865 18.9294 8.06653 19.4215 7.4614 19.4215Z" fill="#0F0F0F"/>
</g>
<defs>
<clipPath id="clip0_906_7763">
<rect width="22" height="22" fill="white"/>
</clipPath>
</defs>
</svg>
