<svg width="18" height="18" viewBox="0 0 18 18" fill="none" xmlns="http://www.w3.org/2000/svg">
<path d="M3.84504 11.8881L3.84488 11.8879C2.44662 10.2079 1.50237 8.63167 0.876078 6.93177C0.467829 5.83232 0.307454 4.91511 0.376434 4.04742L0.376467 4.04699C0.435293 3.34477 0.719188 2.73663 1.21886 2.23695L2.54738 0.908437L2.54907 0.906745L2.54909 0.906766C2.94457 0.529765 3.40174 0.328558 3.88267 0.328558C4.36655 0.328558 4.82029 0.529303 5.20203 0.903195C5.44532 1.12866 5.69162 1.37857 5.92589 1.61994L5.93564 1.62997C6.05304 1.75083 6.16678 1.86792 6.28716 1.9883L7.34539 3.04653C7.34544 3.04658 7.34549 3.04663 7.34555 3.04668C7.74774 3.44525 7.96467 3.91363 7.96467 4.39635C7.96467 4.87949 7.74383 5.34773 7.34572 5.74585C7.2355 5.85607 7.12596 5.96561 7.02007 6.07503L7.01973 6.07538C6.73377 6.36807 6.43663 6.66881 6.12028 6.95818C6.35225 7.4759 6.68071 7.99078 7.16473 8.60349C8.16419 9.82887 9.20768 10.7801 10.3551 11.5087L10.3552 11.5087C10.4675 11.5802 10.5947 11.6457 10.7369 11.7168L10.738 11.7173C10.83 11.7633 10.9287 11.8126 11.0268 11.8666L12.2449 10.6485C12.6331 10.2603 13.0944 10.0473 13.5801 10.0473C14.0657 10.0473 14.5238 10.2602 14.9019 10.6527C14.9021 10.653 14.9023 10.6532 14.9026 10.6535L17.0361 12.787C17.4338 13.1847 17.6381 13.6505 17.6391 14.1251C17.64 14.5996 17.4378 15.0711 17.0446 15.4809M3.84504 11.8881L16.9725 15.4117M3.84504 11.8881C5.54483 13.92 7.59145 15.5203 9.9275 16.6526L9.92829 16.653C10.8151 17.0732 12.0123 17.5776 13.3499 17.6641L13.352 17.6642L13.3625 17.6647C13.4401 17.6681 13.5172 17.6714 13.5979 17.6714C14.5084 17.6714 15.2453 17.3556 15.8436 16.7069M3.84504 11.8881L15.8677 16.6777M17.0446 15.4809L16.9725 15.4117M17.0446 15.4809C17.0447 15.4809 17.0447 15.4809 17.0447 15.4809L16.9725 15.4117M17.0446 15.4809C16.88 15.6527 16.7085 15.8207 16.5412 15.9808M16.9725 15.4117C16.8091 15.5822 16.6386 15.7491 16.4716 15.909M16.5412 15.9808C16.5412 15.9808 16.5412 15.9808 16.5413 15.9807L16.4716 15.909M16.5412 15.9808C16.5246 15.9969 16.5082 16.0129 16.4918 16.0288C16.2659 16.2479 16.0548 16.4527 15.8677 16.6777M16.5412 15.9808C16.541 15.981 16.5409 15.9811 16.5408 15.9812L16.4716 15.909M16.4716 15.909L15.8677 16.6777M15.8677 16.6777C15.8704 16.6734 15.8731 16.6689 15.8755 16.6642L15.786 16.6194L15.863 16.6832C15.8646 16.6814 15.8661 16.6795 15.8677 16.6777ZM15.8677 16.6777C15.858 16.6925 15.8471 16.7035 15.8436 16.7069M15.8436 16.7069C15.8442 16.7062 15.8448 16.7056 15.8454 16.7049L15.7718 16.6372L15.8425 16.7079C15.8427 16.7078 15.843 16.7074 15.8436 16.7069ZM10.2979 12.5912C10.2723 12.5781 10.2463 12.565 10.2201 12.5518C10.0906 12.4862 9.95612 12.4182 9.82903 12.3355M10.2979 12.5912L6.40472 9.21667C7.47038 10.531 8.59287 11.5505 9.82903 12.3355M10.2979 12.5912C10.44 12.6623 10.5714 12.7298 10.6887 12.8044L10.2979 12.5912ZM9.82903 12.3355L9.77446 12.4193C9.77462 12.4194 9.77477 12.4195 9.77493 12.4196M9.82903 12.3355L9.77542 12.4199C9.77526 12.4198 9.77509 12.4197 9.77493 12.4196M9.77493 12.4196C9.9069 12.5055 10.047 12.5763 10.1764 12.6417C10.2022 12.6548 10.2276 12.6676 10.2524 12.6803L10.2532 12.6807C10.3954 12.7518 10.5226 12.8172 10.635 12.8887L10.6347 12.8892L10.6439 12.8938C10.6482 12.896 10.6522 12.8982 10.6586 12.9019L10.6592 12.9022C10.6649 12.9055 10.6728 12.91 10.6819 12.9146C10.8117 12.9815 10.941 13.0145 11.0723 13.0145C11.3999 13.0145 11.61 12.8059 11.6723 12.7437L13.0008 11.4151C13.1948 11.2212 13.3946 11.1283 13.5801 11.1283C13.8088 11.1283 14.0042 11.271 14.1356 11.4125L14.1355 11.4125L14.1382 11.4152L16.2801 13.5536C16.2802 13.5536 16.2802 13.5536 16.2802 13.5536C16.4807 13.7541 16.5694 13.9518 16.5679 14.1423C16.5664 14.3337 16.4737 14.5387 16.2681 14.7527L16.2671 14.7538C16.1199 14.9115 15.9652 15.0627 15.7986 15.2222L15.7981 15.2227C15.7842 15.2362 15.7703 15.2497 15.7564 15.2632C15.5217 15.4911 15.275 15.7305 15.0503 15.9992C14.6621 16.4168 14.203 16.6118 13.6015 16.6118C13.5446 16.6118 13.4836 16.6084 13.4231 16.6049C12.2782 16.5316 11.2094 16.0842 10.3981 15.6981C8.20173 14.6352 6.27357 13.1274 4.67343 11.2129C3.35424 9.62485 2.46916 8.14975 1.8842 6.57107L1.88408 6.57074C1.52144 5.60252 1.38731 4.83287 1.4425 4.1384C1.48313 3.68925 1.65423 3.31704 1.97836 2.9929L3.29914 1.67212C3.49148 1.48665 3.6949 1.39884 3.88267 1.39884C4.06574 1.39884 4.2617 1.48563 4.45074 1.67798L4.45066 1.67806L4.45414 1.68128C4.65863 1.87051 4.85249 2.06763 5.05845 2.27705C5.08997 2.3091 5.12178 2.34144 5.15395 2.37408C5.21454 2.43646 5.27598 2.49878 5.33756 2.56125L5.33892 2.56263C5.40023 2.62483 5.4617 2.68717 5.52312 2.75035L5.52311 2.75036L5.52411 2.75136L6.58266 3.80991C6.79238 4.01963 6.88728 4.21948 6.88728 4.40346C6.88728 4.58744 6.79238 4.78729 6.58266 4.997C6.5273 5.05237 6.47198 5.10858 6.417 5.16445L6.41692 5.16453C6.36181 5.22052 6.30704 5.27618 6.25231 5.33091L6.25193 5.33129C6.22712 5.35637 6.20244 5.38134 6.17787 5.40618C5.87467 5.7129 5.58899 6.0019 5.27633 6.27874L5.2762 6.2786L5.27191 6.2829L5.25415 6.30066L5.32486 6.37137L5.25414 6.30066C5.09249 6.46231 5.019 6.62624 4.99959 6.7841C4.9805 6.9394 5.01501 7.07947 5.05238 7.19158C5.0552 7.20003 5.058 7.20698 5.05973 7.2113L5.06303 7.21999L5.06278 7.22008L5.06558 7.2268C5.34348 7.89448 5.72897 8.52759 6.32645 9.27891L6.32704 9.27965C7.39843 10.601 8.52865 11.6281 9.77493 12.4196Z" fill="white" stroke="white" stroke-width="0.2"/>
</svg>
