<svg width="49" height="48" viewBox="0 0 49 48" fill="none" xmlns="http://www.w3.org/2000/svg">
<path d="M30.7998 14H18.7998C16.5907 14 14.7998 15.7909 14.7998 18V30C14.7998 32.2091 16.5907 34 18.7998 34H30.7998C33.0089 34 34.7998 32.2091 34.7998 30V18C34.7998 15.7909 33.0089 14 30.7998 14Z" fill="white"/>
<path fill-rule="evenodd" clip-rule="evenodd" d="M17.7641 33.8646L18.0224 32.8985C18.2692 32.9645 18.5296 33 18.7998 33H19.7998V34H18.7998C18.4416 34 18.0945 33.9529 17.7641 33.8646ZM29.7998 34V33H30.7998C31.07 33 31.3304 32.9645 31.5772 32.8985L31.8355 33.8646C31.5051 33.9529 31.158 34 30.7998 34H29.7998ZM32.8001 33.4647L32.2993 32.5991C32.7549 32.3355 33.1353 31.9551 33.3989 31.4995L34.2645 32.0003C33.9133 32.6073 33.4071 33.1135 32.8001 33.4647ZM34.7998 19H33.7998V18C33.7998 17.7298 33.7643 17.4694 33.6983 17.2226L34.6644 16.9643C34.7527 17.2947 34.7998 17.6418 34.7998 18V19ZM34.2645 15.9997L33.3989 16.5005C33.1353 16.0449 32.7549 15.6645 32.2993 15.4009L32.8001 14.5353C33.4071 14.8865 33.9133 15.3927 34.2645 15.9997ZM19.7998 14H18.7998C18.4416 14 18.0945 14.0471 17.7641 14.1354L18.0224 15.1015C18.2692 15.0355 18.5296 15 18.7998 15H19.7998V14ZM16.7995 14.5353L17.3003 15.4009C16.8447 15.6645 16.4643 16.0449 16.2007 16.5005L15.3351 15.9997C15.6863 15.3927 16.1925 14.8865 16.7995 14.5353ZM14.7998 29H15.7998V30C15.7998 30.2702 15.8353 30.5306 15.9013 30.7774L14.9352 31.0357C14.8469 30.7053 14.7998 30.3582 14.7998 30V29ZM16.7995 33.4647L17.3003 32.5991C16.8447 32.3355 16.4643 31.9551 16.2007 31.4995L15.3351 32.0003C15.6863 32.6073 16.1925 33.1135 16.7995 33.4647ZM14.7998 28H15.7998V26H14.7998V28ZM14.7998 25H15.7998V23H14.7998V25ZM14.7998 22H15.7998V20H14.7998V22ZM14.7998 19H15.7998V18C15.7998 17.7298 15.8353 17.4694 15.9013 17.2226L14.9352 16.9643C14.8469 17.2947 14.7998 17.6418 14.7998 18V19ZM20.7998 14V15H22.7998V14H20.7998ZM23.7998 14V15H25.7998V14H23.7998ZM26.7998 14V15H28.7998V14H26.7998ZM29.7998 14V15H30.7998C31.07 15 31.3304 15.0355 31.5772 15.1015L31.8355 14.1354C31.5051 14.0471 31.158 14 30.7998 14H29.7998ZM34.7998 20H33.7998V22H34.7998V20ZM34.7998 23H33.7998V25H34.7998V23ZM34.7998 26H33.7998V28H34.7998V26ZM34.7998 29H33.7998V30C33.7998 30.2702 33.7643 30.5306 33.6983 30.7774L34.6644 31.0357C34.7527 30.7053 34.7998 30.3582 34.7998 30V29ZM28.7998 34V33H26.7998V34H28.7998ZM25.7998 34V33H23.7998V34H25.7998ZM22.7998 34V33H20.7998V34H22.7998Z" fill="#006BDA"/>
<path d="M27.7998 19H21.7998C20.6952 19 19.7998 19.8954 19.7998 21V27C19.7998 28.1046 20.6952 29 21.7998 29H27.7998C28.9044 29 29.7998 28.1046 29.7998 27V21C29.7998 19.8954 28.9044 19 27.7998 19Z" fill="#D9E9FA"/>
<path fill-rule="evenodd" clip-rule="evenodd" d="M27.7998 20H21.7998C21.2475 20 20.7998 20.4477 20.7998 21V27C20.7998 27.5523 21.2475 28 21.7998 28H27.7998C28.3521 28 28.7998 27.5523 28.7998 27V21C28.7998 20.4477 28.3521 20 27.7998 20ZM21.7998 19C20.6952 19 19.7998 19.8954 19.7998 21V27C19.7998 28.1046 20.6952 29 21.7998 29H27.7998C28.9044 29 29.7998 28.1046 29.7998 27V21C29.7998 19.8954 28.9044 19 27.7998 19H21.7998Z" fill="#006BDA"/>
<path fill-rule="evenodd" clip-rule="evenodd" d="M9.7998 9.5C9.7998 9.22386 10.0237 9 10.2998 9H14.2998C14.5759 9 14.7998 9.22386 14.7998 9.5C14.7998 9.77614 14.5759 10 14.2998 10H11.5069L14.1534 12.6464C14.3486 12.8417 14.3486 13.1583 14.1534 13.3536C13.9581 13.5488 13.6415 13.5488 13.4462 13.3536L10.7998 10.7071V13.5C10.7998 13.7761 10.5759 14 10.2998 14C10.0237 14 9.7998 13.7761 9.7998 13.5V9.5Z" fill="#006BDA"/>
<path fill-rule="evenodd" clip-rule="evenodd" d="M9.7998 38.5C9.7998 38.7761 10.0237 39 10.2998 39H14.2998C14.5759 39 14.7998 38.7761 14.7998 38.5C14.7998 38.2239 14.5759 38 14.2998 38H11.5069L14.1534 35.3536C14.3486 35.1583 14.3486 34.8417 14.1534 34.6464C13.9581 34.4512 13.6415 34.4512 13.4462 34.6464L10.7998 37.2929V34.5C10.7998 34.2239 10.5759 34 10.2998 34C10.0237 34 9.7998 34.2239 9.7998 34.5V38.5Z" fill="#006BDA"/>
<path fill-rule="evenodd" clip-rule="evenodd" d="M39.7998 9.5C39.7998 9.22386 39.5759 9 39.2998 9H35.2998C35.0237 9 34.7998 9.22386 34.7998 9.5C34.7998 9.77614 35.0237 10 35.2998 10H38.0927L35.4462 12.6464C35.251 12.8417 35.251 13.1583 35.4462 13.3536C35.6415 13.5488 35.9581 13.5488 36.1534 13.3536L38.7998 10.7071V13.5C38.7998 13.7761 39.0237 14 39.2998 14C39.5759 14 39.7998 13.7761 39.7998 13.5V9.5Z" fill="#006BDA"/>
<path fill-rule="evenodd" clip-rule="evenodd" d="M39.7998 38.5C39.7998 38.7761 39.5759 39 39.2998 39H35.2998C35.0237 39 34.7998 38.7761 34.7998 38.5C34.7998 38.2239 35.0237 38 35.2998 38H38.0927L35.4462 35.3536C35.251 35.1583 35.251 34.8417 35.4462 34.6464C35.6415 34.4512 35.9581 34.4512 36.1534 34.6464L38.7998 37.2929V34.5C38.7998 34.2239 39.0237 34 39.2998 34C39.5759 34 39.7998 34.2239 39.7998 34.5V38.5Z" fill="#006BDA"/>
</svg>
