<svg width="37" height="31" viewBox="0 0 37 31" fill="none" xmlns="http://www.w3.org/2000/svg">
<path d="M32.7703 16.828C33.4006 17.0466 33.9993 16.9218 34.5665 16.8437C35.2756 16.75 35.764 16.9842 36.0003 17.6244C36.1422 18.0146 36.3627 18.2488 36.8039 18.202C36.8826 18.202 36.9614 18.2176 37.0402 18.2488C38.1747 18.764 37.8122 19.7788 37.8281 20.6374C37.8438 21.34 37.5129 21.8396 36.7566 21.9646C36.4572 22.0114 36.1894 22.027 36.0791 22.3704C35.827 23.1666 35.244 23.4633 34.4405 23.3696C34.3144 23.354 34.1727 23.3852 34.0466 23.3696C33.2115 23.2292 32.6915 23.354 32.5025 24.3688C32.3134 25.3992 31.4153 25.7426 30.407 25.7583C28.7525 25.7896 28.7525 25.8052 28.7368 27.382C28.721 28.2874 28.4689 28.5372 27.5551 28.506C26.3733 28.4592 26.3733 28.4592 26.3576 29.5833C26.3419 30.6606 26.2788 30.723 25.1916 30.7386C24.5141 30.7386 23.8209 30.7386 23.1433 30.7542C22.655 30.7698 22.3871 30.5981 22.261 30.0829C21.7884 28.1158 19.5983 27.0854 17.7076 27.8191C16.5416 28.2562 15.7853 28.9588 15.675 30.2234C15.6436 30.6137 15.4072 30.7542 15.029 30.7698C14.2097 30.7854 13.4061 30.8479 12.5869 30.8322C11.736 30.8322 11.5785 30.645 11.5469 29.7394C11.4997 28.4748 11.4997 28.4748 10.2234 28.506C9.32534 28.5216 9.18347 28.3812 9.16776 27.4756C9.15204 25.727 9.15204 25.727 7.34001 25.8208C6.23712 25.8676 5.27599 25.1494 5.10269 24.041C5.00818 23.3852 4.70883 23.1978 4.12585 23.2135C3.68463 23.2292 3.22773 23.2135 2.78656 23.2135C2.28237 23.2135 1.8412 23.1198 1.73091 22.5266C1.68363 22.2456 1.46306 22.183 1.22671 22.1362C0.470422 21.9802 0.123784 21.4962 0.155302 20.7312C0.17105 20.372 0.17105 19.9974 0.155302 19.6382C0.123784 18.9358 0.297108 18.3894 1.14793 18.3424C1.51032 18.3112 1.60485 18.0458 1.66789 17.7492C1.76242 17.3589 2.03027 17.1716 2.42417 17.234C3.03866 17.3276 3.62166 17.1404 4.22036 17.156C4.86631 17.1716 5.07115 16.875 5.07115 16.2504C5.03972 12.3006 5.05544 8.33501 5.03972 4.38516C5.03972 3.63577 5.00818 2.87077 5.03972 2.12137C5.08697 1.01284 5.59117 0.450818 6.70977 0.32597C8.3485 0.138586 10.0186 0.263444 11.6572 0.247838C17.7705 0.232232 23.8839 0.232232 30.013 0.232232C32.014 0.232232 32.6443 0.841172 32.6443 2.85516C32.6443 4.69738 32.6286 6.55521 32.6443 8.39743C32.6443 9.34981 32.786 9.44344 33.763 9.39663C34.7083 9.34981 35.6537 9.34981 36.599 9.3342C37.119 9.31859 37.3711 9.53718 37.3711 10.068C37.3711 11.9726 37.3711 13.8618 37.3868 15.7664C37.3868 16.3284 37.119 16.5626 36.5676 16.5626C35.5749 16.5626 34.5822 16.5626 33.5739 16.5782C33.3061 16.5626 32.9909 16.4534 32.7703 16.828ZM18.9208 1.82466C17.8493 1.82466 16.7622 1.82466 15.6908 1.82466C13.2959 1.82466 10.9167 1.80905 8.5218 1.84036C7.34001 1.85597 6.80439 2.30865 6.80439 3.27663C6.80439 7.57001 6.80439 11.8634 6.80439 16.1568C6.80439 16.6252 7.60793 17.515 8.08058 17.5618C8.66357 17.6244 8.97874 17.4838 9.04171 16.7812C9.16776 15.3762 8.99445 13.971 9.01017 12.5816C9.01017 12.0196 9.18347 11.7384 9.82953 11.7384C11.4839 11.7542 11.4839 11.7228 11.4209 10.068C11.4051 9.67764 11.4839 9.41223 11.9566 9.41223C12.9335 9.41223 13.8946 9.39663 14.8714 9.36541C15.2968 9.34981 15.612 9.47476 15.6277 9.95865C15.6436 10.6924 16.0531 11.2232 16.4943 11.7384C17.8809 13.3622 21.1738 13.003 21.7568 10.9892C22.2296 9.39663 23.1433 9.17804 24.4826 9.30299C24.6875 9.3186 24.9081 9.30299 25.1128 9.30299C26.3261 9.30299 26.3419 9.3186 26.3576 10.5208C26.3733 11.7384 26.3733 11.7384 27.6181 11.7542C27.6969 11.7542 27.7757 11.7698 27.8545 11.7542C28.5162 11.676 28.7525 11.9726 28.7368 12.5972C28.721 13.971 28.7525 15.3606 28.721 16.7344C28.7053 17.2964 28.8628 17.6087 29.5088 17.6087C30.3439 17.6087 31.0529 16.9062 30.9741 16.063C30.9426 15.7508 30.9269 15.4386 30.9269 15.1264C30.9269 11.3326 30.9269 7.52319 30.9111 3.7294C30.9111 2.24622 30.4858 1.82466 29.0046 1.82466C25.6486 1.82466 22.2768 1.82466 18.9208 1.82466ZM15.6908 12.1288C15.5017 12.7064 15.4701 13.2684 15.486 13.8306C15.5175 15.0014 15.5962 16.1724 15.5962 17.3276C15.612 20.653 15.612 23.9785 15.612 27.3196C15.612 27.5381 15.5017 27.8348 15.7381 27.9752C15.9902 28.1314 16.1635 27.8504 16.3368 27.7254C17.9597 26.6326 19.8504 26.6326 21.4733 27.741C21.6623 27.866 21.8514 28.1158 22.0877 27.9752C22.3084 27.8348 22.2138 27.5537 22.2138 27.3196C22.2138 25.3368 22.198 23.3696 22.2296 21.3868C22.2453 20.7468 22.2296 20.2316 21.3472 20.372C21.1897 20.4032 20.9376 20.3564 20.9691 20.091C21.0005 19.888 21.2054 19.9037 21.3472 19.9194C22.072 19.9974 22.2296 19.6226 22.2138 18.9826C22.1823 16.8437 22.198 14.7204 22.1822 12.5816C22.1822 12.3942 22.2925 12.16 22.0404 12.0352C20.4491 13.6276 18.133 14.1896 15.6908 12.1288ZM12.1772 20.2472H12.1929C12.1929 22.9012 12.1772 25.5554 12.1929 28.2094C12.2087 30.2858 12.2402 30.2702 14.3357 30.0985C14.7769 30.0672 14.8872 29.9112 14.8872 29.4584C14.8557 23.5258 14.8399 17.6087 14.8085 11.676C14.8085 9.92743 14.9345 10.146 13.1699 10.0836C12.3662 10.0524 12.1299 10.3334 12.1299 11.114C12.1929 14.1584 12.1772 17.2028 12.1772 20.2472ZM28.0278 20.2472C28.0278 17.9678 27.9962 15.6728 28.0435 13.3934C28.0593 12.6284 27.7914 12.4098 27.0509 12.4254C26.3891 12.441 26.2316 12.7532 26.2473 13.2842C26.2788 15.1732 26.3419 17.0622 26.3261 18.967C26.3261 19.5914 26.3733 19.9974 27.1297 19.9194C27.3187 19.9037 27.6339 19.888 27.6181 20.1692C27.6181 20.4346 27.3187 20.4032 27.1139 20.4032C26.657 20.4032 26.3419 20.497 26.3419 21.0434C26.3419 23.1198 26.3576 25.1962 26.3576 27.2726C26.3576 28.0846 26.9878 27.866 27.4291 27.9284C27.9647 28.0064 28.0435 27.6786 28.0435 27.257C28.0278 24.9152 28.0278 22.5734 28.0278 20.2472ZM22.8912 15.0014C22.9071 16.0944 22.8912 17.1872 22.9071 18.28C22.9386 20.1378 22.6865 19.8724 24.6087 19.935C25.3177 19.9506 25.5856 19.732 25.5698 18.9982C25.5384 16.6408 25.5541 14.2676 25.5541 11.9102C25.5541 9.89622 25.7904 10.146 23.6791 10.0992C23.0331 10.0836 22.8755 10.3802 22.8755 10.9578C22.9071 12.285 22.8912 13.6432 22.8912 15.0014ZM9.81371 24.3376C9.73502 24.9464 10.0028 26.0862 9.93976 27.2258C9.90833 27.944 10.3022 27.8972 10.8222 27.944C11.4524 27.9908 11.5154 27.6786 11.5154 27.2102C11.5627 22.5578 11.3421 17.921 11.4997 13.2684C11.5154 12.6752 11.2633 12.4566 10.6646 12.4254C9.92404 12.3942 9.798 12.7532 9.798 13.3778C9.81371 16.8594 9.81371 20.3252 9.81371 24.3376ZM25.5698 25.5554C25.5698 24.1502 25.5698 23.0418 25.5698 21.9176C25.5698 20.3876 25.5698 20.3876 24.0415 20.3876C22.9228 20.3876 22.9228 20.3876 22.9228 21.5118C22.9386 23.6818 23.0488 25.8676 22.9386 28.0376C22.844 30.0516 22.844 30.1298 24.8923 30.0672C25.5225 30.0516 25.7117 29.8174 25.6958 29.2242C25.6486 27.9128 25.5068 26.6014 25.5698 25.5554ZM18.905 0.903596C15.3915 0.919202 11.8778 0.903596 8.3485 0.919202C5.92205 0.919202 5.68568 1.169 5.70139 3.54203C5.71721 8.3194 5.70139 13.1124 5.71721 17.8898C5.71721 19.7164 5.76447 21.5274 5.79601 23.354C5.79601 23.5258 5.74865 23.7912 6.01656 23.76C6.28438 23.7444 6.17415 23.4789 6.15833 23.3228C6.12689 22.386 6.0481 21.4494 6.03228 20.5282C6.01656 17.7648 6.01656 15.017 6.01656 12.2536C6.01656 9.28738 6.00085 6.32102 6.01656 3.35476C6.01656 1.98082 6.85164 1.15339 8.12784 1.15339C12.1772 1.15339 16.2107 1.169 20.2601 1.169C23.3797 1.169 26.4995 1.04405 29.6191 1.169C30.7693 1.21582 31.5729 1.84036 31.6202 2.85516C31.6832 4.33824 31.6674 5.80582 31.6674 7.289C31.6832 9.0844 31.6832 10.8642 31.6832 12.6596C31.6832 16.2504 31.7777 19.8256 31.6044 23.4164C31.6044 23.5414 31.5099 23.6974 31.6832 23.7444C31.888 23.8068 31.9511 23.635 31.9825 23.4789C32.014 23.3228 32.014 23.1666 32.014 23.0106C31.9983 16.1412 31.9825 9.27178 31.9668 2.41799C31.9668 1.6686 31.6202 1.20021 30.8639 1.01284C30.4699 0.919202 30.0918 0.903596 29.6979 0.903596C26.0898 0.88799 22.4974 0.903596 18.905 0.903596ZM34.7241 15.8758C35.1968 15.8602 35.6694 15.8758 36.1422 15.8602C36.3943 15.8602 36.6621 15.8132 36.6778 15.5166C36.7093 14.8922 36.6936 14.2676 36.6621 13.6588C36.6464 13.3778 36.3943 13.2684 36.1422 13.2684C35.1495 13.2998 34.1569 13.331 33.1642 13.3778C32.8491 13.3934 32.7231 13.5652 32.66 13.8774C32.3449 15.5948 32.5813 15.8914 34.3302 15.8758C34.4562 15.8758 34.5981 15.8758 34.7241 15.8758ZM34.7083 10.0836C34.5822 10.0836 34.4405 10.0836 34.3144 10.0836C32.5655 10.0836 32.5813 10.0836 32.6443 11.8478C32.66 12.3786 32.8807 12.6128 33.3849 12.5972C34.2987 12.5816 35.2125 12.5816 36.1264 12.566C36.5203 12.566 36.6621 12.3474 36.6621 11.9726C36.7093 9.74016 36.8669 10.0992 34.8659 10.0836C34.8186 10.0836 34.7714 10.0836 34.7083 10.0836ZM9.13622 20.2472C9.1205 19.7788 9.13622 19.3104 9.1205 18.8576C9.08896 18.2176 8.53752 18.405 8.15938 18.3268C7.71816 18.2488 7.62365 18.5298 7.62365 18.8889C7.62365 19.6852 7.63947 20.497 7.60793 21.2932C7.59211 21.8552 7.79695 22.0894 8.37993 22.0738C8.97874 22.0738 9.15204 21.7928 9.1205 21.262C9.1205 20.9342 9.13622 20.5906 9.13622 20.2472ZM28.7053 20.091C28.721 20.5282 28.7053 20.981 28.721 21.418C28.7368 22.0894 29.2882 21.9958 29.6979 22.0582C30.1863 22.1206 30.2337 21.7616 30.2337 21.4024C30.2337 20.5906 30.2337 19.7944 30.1706 18.9982C30.139 18.483 29.9973 18.2488 29.4458 18.2644C28.847 18.28 28.658 18.561 28.6895 19.0918C28.721 19.4042 28.7053 19.7476 28.7053 20.091ZM35.1652 20.9498C35.1811 20.0442 35.0392 19.8568 34.3774 19.8412C33.5109 19.8256 33.4006 19.9506 33.3849 21.0902C33.3849 21.6366 33.4164 22.1362 34.2199 22.105C34.9919 22.0582 35.1495 21.9176 35.1652 20.9498ZM4.26761 18.7796C4.33069 18.2176 4.09431 17.8898 3.40099 17.9054C2.77081 17.9054 2.4872 18.1552 2.47144 18.764C2.45568 19.607 2.69203 19.8568 3.36956 19.888C4.1731 19.935 4.26761 19.451 4.26761 18.7796ZM4.28343 21.6678C4.29915 20.7468 4.14156 20.575 3.46407 20.5438C2.84958 20.5126 2.55022 20.7468 2.55022 21.3868C2.56598 22.2612 2.72353 22.4954 3.43253 22.5422C4.18882 22.589 4.28343 22.1206 4.28343 21.6678ZM34.2987 17.515C33.6999 17.437 33.3376 17.6556 33.3533 18.2644C33.3533 18.7796 33.5109 19.17 34.1727 19.1544C34.7241 19.1387 35.1811 19.0918 35.1652 18.3737C35.1652 17.7648 34.929 17.437 34.2987 17.515ZM8.31696 24.1346C8.80533 24.1658 9.13622 24.0722 9.15204 23.4946C9.16776 22.9012 8.88412 22.7452 8.3485 22.7452C7.74969 22.7452 7.16671 23.0106 7.15099 23.4946C7.15099 23.9941 7.81277 24.1034 8.31696 24.1346ZM29.6821 22.7296C29.1779 22.7296 28.7368 22.6983 28.721 23.354C28.7053 24.041 29.1937 24.0566 29.6664 24.0878C30.2021 24.119 30.7063 23.8848 30.6905 23.3852C30.6591 22.9324 30.1706 22.667 29.6821 22.7296Z" fill="#006BDA"/>
<path d="M21.7821 21.3863C21.7974 20.7463 21.7821 20.2311 20.9231 20.3715C20.7697 20.4027 20.5243 20.3559 20.555 20.0905C20.5857 19.8875 20.7851 19.9031 20.9231 19.9187C21.6286 19.9969 21.7821 19.6221 21.7668 18.9821C21.7361 16.8431 21.7514 14.7199 21.7361 12.5811C21.7361 12.3937 21.8435 12.1595 21.5979 12.0346C20.0182 13.6115 17.7634 14.1735 15.3859 12.1127C15.2019 12.6903 15.1712 13.2523 15.1865 13.8143C15.2172 14.9853 15.2939 16.1563 15.2939 17.3115C15.3092 20.6369 15.3092 23.9623 15.3092 27.3033C15.3092 27.5219 15.2019 27.8185 15.4319 27.9591C15.6774 28.1153 15.8461 27.8341 16.0149 27.7093C17.5947 26.6165 19.4352 26.6165 21.0151 27.7249C21.1992 27.8499 21.3832 28.0996 21.6133 27.9591C21.8281 27.8185 21.7361 27.5375 21.7361 27.3033C21.7821 25.3363 21.7668 23.3691 21.7821 21.3863Z" fill="#DBE3E5"/>
</svg>
