<svg width="48" height="48" viewBox="0 0 48 48" fill="none" xmlns="http://www.w3.org/2000/svg">
<path d="M27 17H15C12.7909 17 11 18.7909 11 21V33C11 35.2091 12.7909 37 15 37H27C29.2091 37 31 35.2091 31 33V21C31 18.7909 29.2091 17 27 17Z" fill="#D9E9FA"/>
<path fill-rule="evenodd" clip-rule="evenodd" d="M27 18H15C13.3431 18 12 19.3431 12 21V33C12 34.6569 13.3431 36 15 36H27C28.6569 36 30 34.6569 30 33V21C30 19.3431 28.6569 18 27 18ZM15 17C12.7909 17 11 18.7909 11 21V33C11 35.2091 12.7909 37 15 37H27C29.2091 37 31 35.2091 31 33V21C31 18.7909 29.2091 17 27 17H15Z" fill="#006BDA"/>
<path d="M18 14C18 11.7909 19.7909 10 22 10H34C36.2091 10 38 11.7909 38 14V26C38 28.2091 36.2091 30 34 30H22C19.7909 30 18 28.2091 18 26V14Z" fill="white"/>
<path fill-rule="evenodd" clip-rule="evenodd" d="M20.9643 29.8646L21.2226 28.8985C21.4694 28.9645 21.7298 29 22 29H23V30H22C21.6418 30 21.2947 29.9529 20.9643 29.8646ZM33 30V29H34C34.2702 29 34.5306 28.9645 34.7774 28.8985L35.0357 29.8646C34.7053 29.9529 34.3582 30 34 30H33ZM36.0003 29.4647L35.4995 28.5991C35.9551 28.3355 36.3355 27.9551 36.5991 27.4995L37.4647 28.0003C37.1135 28.6073 36.6073 29.1135 36.0003 29.4647ZM38 15H37V14C37 13.7298 36.9645 13.4694 36.8985 13.2226L37.8646 12.9643C37.9529 13.2947 38 13.6418 38 14V15ZM37.4647 11.9997L36.5991 12.5005C36.3355 12.0449 35.9551 11.6645 35.4995 11.4009L36.0003 10.5353C36.6073 10.8865 37.1135 11.3927 37.4647 11.9997ZM23 10H22C21.6418 10 21.2947 10.0471 20.9643 10.1354L21.2226 11.1015C21.4694 11.0355 21.7298 11 22 11H23V10ZM19.9997 10.5353L20.5005 11.4009C20.0449 11.6645 19.6645 12.0449 19.4009 12.5005L18.5353 11.9997C18.8865 11.3927 19.3927 10.8865 19.9997 10.5353ZM18 25H19V26C19 26.2702 19.0355 26.5306 19.1015 26.7774L18.1354 27.0357C18.0471 26.7053 18 26.3582 18 26V25ZM19.9997 29.4647L20.5005 28.5991C20.0449 28.3355 19.6645 27.9551 19.4009 27.4995L18.5353 28.0003C18.8865 28.6073 19.3927 29.1135 19.9997 29.4647ZM18 24H19V22H18V24ZM18 21H19V19H18V21ZM18 18H19V16H18V18ZM18 15H19V14C19 13.7298 19.0355 13.4694 19.1015 13.2226L18.1354 12.9643C18.0471 13.2947 18 13.6418 18 14V15ZM24 10V11H26V10H24ZM27 10V11H29V10H27ZM30 10V11H32V10H30ZM33 10V11H34C34.2702 11 34.5306 11.0355 34.7774 11.1015L35.0357 10.1354C34.7053 10.0471 34.3582 10 34 10H33ZM38 16H37V18H38V16ZM38 19H37V21H38V19ZM38 22H37V24H38V22ZM38 25H37V26C37 26.2702 36.9645 26.5306 36.8985 26.7774L37.8646 27.0357C37.9529 26.7053 38 26.3582 38 26V25ZM32 30V29H30V30H32ZM29 30V29H27V30H29ZM26 30V29H24V30H26Z" fill="#006BDA"/>
<path fill-rule="evenodd" clip-rule="evenodd" d="M28 15.5C28.2761 15.5 28.5 15.7239 28.5 16V19.5H32C32.2761 19.5 32.5 19.7239 32.5 20C32.5 20.2761 32.2761 20.5 32 20.5H28.5V24C28.5 24.2761 28.2761 24.5 28 24.5C27.7239 24.5 27.5 24.2761 27.5 24V20.5H24C23.7239 20.5 23.5 20.2761 23.5 20C23.5 19.7239 23.7239 19.5 24 19.5H27.5V16C27.5 15.7239 27.7239 15.5 28 15.5Z" fill="#006BDA"/>
</svg>
