<svg width="49" height="48" viewBox="0 0 49 48" fill="none" xmlns="http://www.w3.org/2000/svg">
<path d="M25.6001 31V34C25.6001 36.7614 27.8387 39 30.6001 39H14.6001C11.8387 39 9.6001 36.7614 9.6001 34V31H25.6001Z" fill="#D9E9FA"/>
<path fill-rule="evenodd" clip-rule="evenodd" d="M14.6001 10.5C14.6001 10.2239 14.824 10 15.1001 10H35.1001C35.3763 10 35.6001 10.2239 35.6001 10.5V34C35.6001 36.7614 33.3615 39 30.6001 39C27.8387 39 25.6001 36.7614 25.6001 34V32H15.1001C14.824 32 14.6001 31.7761 14.6001 31.5V10.5ZM15.6001 11V31H26.1001C26.3763 31 26.6001 31.2239 26.6001 31.5V34C26.6001 36.2091 28.391 38 30.6001 38C32.8093 38 34.6001 36.2091 34.6001 34V11H15.6001Z" fill="#006BDA"/>
<path fill-rule="evenodd" clip-rule="evenodd" d="M8.71289 31.5C8.71289 31.2239 8.94195 31 9.22452 31H26.118C26.4006 31 26.6003 31.2239 26.6003 31.5V33.5C26.6003 35.9853 28.1698 38 30.7128 38V39H14.3408C11.2325 39 8.71289 36.5376 8.71289 33.5V31.5ZM27.6741 38C26.2278 37.0046 25.6064 35.3602 25.6064 33.5V32H9.73614V33.5C9.73614 35.9853 11.7977 38 14.3408 38H27.6741Z" fill="#006BDA"/>
<path fill-rule="evenodd" clip-rule="evenodd" d="M28.6752 25.3627L26.8814 22.5887C27.3297 22.408 27.6917 22.142 27.9584 21.7866C28.2865 21.3534 28.4461 20.8322 28.4461 20.2348C28.4461 19.4552 28.1684 18.8184 27.6068 18.3472C27.0599 17.8664 26.3291 17.6373 25.4388 17.6373H22.4849V25.3627H23.5992V22.8501H25.4388C25.5789 22.8501 25.6982 22.8477 25.7945 22.8421L27.4275 25.3627H28.6752ZM26.9891 21.5713C26.6089 21.8802 26.0743 22.0346 25.3853 22.0346H23.3717V18.4528H25.3853C26.0743 18.4528 26.6089 18.6132 26.9891 18.934C27.3692 19.2428 27.5593 19.6765 27.5593 20.2348C27.5593 20.805 27.3692 21.2505 26.9891 21.5713Z" fill="#006BDA"/>
<path fill-rule="evenodd" clip-rule="evenodd" d="M30.7343 24.7771L30.7348 24.7762C31.312 23.7691 31.6001 22.6638 31.6001 21.4644C31.6001 20.266 31.3185 19.1725 30.7528 18.1885C30.1878 17.1937 29.4064 16.4124 28.4117 15.8473C27.4273 15.2814 26.3277 15 25.1179 15C23.9071 15 22.8012 15.2879 21.8052 15.8658C20.8113 16.4425 20.0248 17.229 19.4481 18.2229L19.4472 18.2246C18.882 19.2197 18.6001 20.3129 18.6001 21.5C18.6001 22.6871 18.882 23.7803 19.4471 24.7754L19.4481 24.7771C20.0244 25.7703 20.8045 26.5568 21.7864 27.1336L21.7873 27.1342C22.7831 27.7119 23.8829 28 25.0823 28C26.2817 28 27.3815 27.7119 28.3772 27.1342C29.371 26.5575 30.1576 25.7709 30.7343 24.7771ZM29.9251 18.6633L29.9257 18.6643C30.4051 19.4976 30.6462 20.4293 30.6462 21.4644C30.6462 22.4983 30.3997 23.442 29.908 24.2997C29.4154 25.1472 28.7465 25.8221 27.8984 26.3265C27.0533 26.8175 26.1161 27.0639 25.0823 27.0639C24.0483 27.0639 23.111 26.8174 22.2658 26.3263C21.4306 25.8343 20.7677 25.166 20.2749 24.3185C19.7947 23.4604 19.554 22.5222 19.554 21.5C19.554 20.4774 19.7949 19.5453 20.2749 18.6993C20.7676 17.8401 21.4362 17.166 22.283 16.674C23.1281 16.1829 24.0714 15.9361 25.1179 15.9361C26.1644 15.9361 27.1013 16.183 27.9339 16.6734L27.9368 16.675C28.783 17.1553 29.4448 17.8171 29.9251 18.6633Z" fill="#006BDA"/>
</svg>
