<svg width="49" height="48" viewBox="0 0 49 48" fill="none" xmlns="http://www.w3.org/2000/svg">
<path d="M24.3999 30C21.0862 30 18.3999 27.3137 18.3999 24C18.3999 20.6863 21.0862 18 24.3999 18C27.7136 18 30.3999 20.6863 30.3999 24C30.3999 27.3137 27.7136 30 24.3999 30Z" fill="#D9E9FA"/>
<path fill-rule="evenodd" clip-rule="evenodd" d="M33.4074 13.9437C28.107 9.18786 19.9503 9.35799 14.8542 14.4541C14.659 14.6493 14.3424 14.6493 14.1471 14.4541C13.9519 14.2588 13.9519 13.9422 14.1471 13.747C19.7213 8.17276 28.7048 8.08573 34.3855 13.4859V10.4437C34.3855 10.1675 34.6093 9.94365 34.8855 9.94365C35.1616 9.94365 35.3855 10.1675 35.3855 10.4437V14.4437C35.3855 14.5763 35.3328 14.7034 35.239 14.7972C35.1453 14.891 35.0181 14.9437 34.8855 14.9437H30.8855C30.6093 14.9437 30.3855 14.7198 30.3855 14.4437C30.3855 14.1675 30.6093 13.9437 30.8855 13.9437H33.4074ZM11.0602 19.6935L13.3102 23.5906C13.4483 23.8298 13.3664 24.1356 13.1272 24.2736C12.8881 24.4117 12.5823 24.3298 12.4442 24.0906L11.0892 21.7436C9.92942 28.5373 14.1166 35.2207 20.9061 37.04C21.1729 37.1115 21.3312 37.3856 21.2597 37.6524C21.1882 37.9191 20.914 38.0774 20.6473 38.0059C13.2896 36.0344 8.77729 28.7446 10.138 21.3807L7.66317 22.8095C7.42403 22.9476 7.11823 22.8657 6.98016 22.6265C6.84209 22.3874 6.92403 22.0816 7.16317 21.9435L11.0602 19.6935ZM37.7937 19.8936C38.0605 19.8221 38.3346 19.9804 38.4061 20.2471C40.3776 27.605 36.3203 35.158 29.2623 37.6613L31.7391 39.0913C31.9783 39.2294 32.0602 39.5352 31.9222 39.7743C31.7841 40.0135 31.4783 40.0954 31.2391 39.9574L27.775 37.9574C27.7328 37.9329 27.6954 37.9033 27.6633 37.8697C27.6065 37.8108 27.5634 37.737 27.5407 37.6524C27.5009 37.5038 27.5324 37.3529 27.6142 37.236L29.592 33.8102C29.7301 33.5711 30.0359 33.4892 30.275 33.6272C30.5142 33.7653 30.5961 34.0711 30.4581 34.3102L29.1044 36.6548C35.5661 34.2614 39.2592 27.2945 37.4402 20.5059C37.3687 20.2392 37.527 19.965 37.7937 19.8936Z" fill="#006BDA"/>
</svg>
