<svg width="48" height="48" viewBox="0 0 48 48" fill="none" xmlns="http://www.w3.org/2000/svg">
<path fill-rule="evenodd" clip-rule="evenodd" d="M11.9994 36.8518H23.0639C23.6403 36.8518 24.2016 36.979 24.5605 37.2241C24.9951 37.5212 25.1326 37.8971 25.2634 38.4629H9.66653C9.70608 37.984 10.0432 37.4455 10.369 37.2237C10.7668 36.9529 11.3605 36.8518 11.9994 36.8518ZM17.3316 33.0926H24.2637V34.1667H17.3316V33.0926ZM20.1311 29.3333H21.9974C21.9856 29.8719 21.676 30.4057 21.6642 30.9444H20.4644C20.4525 30.4057 20.146 29.8772 20.1311 29.3333ZM16.2652 22.8889C16.2652 21.603 17.3933 20.4722 18.6648 20.4722C19.9414 20.4722 21.0643 21.6084 21.0643 22.8889C21.0643 24.1693 19.9414 25.3055 18.6648 25.3055C17.3933 25.3055 16.2652 24.1747 16.2652 22.8889ZM15.7987 22.0833C15.7787 22.9829 15.5214 23.4831 16.2507 24.5817C16.4301 24.8521 16.5825 24.9467 16.7318 25.1713C16.1965 25.3153 15.2653 26.3016 14.9436 26.794C14.5512 27.3947 14.1261 28.4138 14.1307 29.3988C14.1414 31.7034 14.1323 34.01 14.1323 36.3148C13.2001 36.3148 11.7129 36.1989 10.9329 36.3819C10.9329 34.5834 10.7969 29.8026 11.0843 28.1432C11.1422 27.8085 11.2357 27.4705 11.3181 27.1703C11.5909 26.1747 12.3117 24.8777 13.015 24.1131C13.6297 23.4448 14.9503 22.2823 15.7987 22.0833ZM19.4646 19.868V16.9815H22.6639V28.7963H19.4646V25.9097C19.4646 25.6982 19.6113 25.6965 19.7855 25.6288C22.2526 24.6706 22.1313 21.0632 19.835 20.1662C19.6414 20.0906 19.4646 20.0896 19.4646 19.868ZM19.9978 15.3704H21.5975V16.4444H19.9978V15.3704ZM19.4646 13.7592H22.1307V14.8332H19.4646V13.7592ZM18.9314 15.3704H19.4646V16.4444H18.9314V19.9351C16.6845 19.9351 16.64 21.0511 16.0401 21.3196C15.1575 21.7145 15.4446 21.5351 14.4864 22.1042C12.6185 23.2135 11.1823 25.3197 10.6393 27.4936C10.3942 28.4749 10.3997 29.142 10.3997 30.3402C10.3997 32.4213 10.3997 34.5023 10.3997 36.5833C9.12582 36.9258 9.03869 38.9187 9 39H25.8634C25.8634 37.4681 24.9737 36.3148 23.5305 36.3148H14.6655V33.6296H16.7984V34.7037H24.7969V32.5555H16.7984V33.0926H14.6655V29.8704C14.6655 28.0263 15.4932 26.533 16.867 25.7092C17.2398 25.4857 17.1895 25.4926 17.5885 25.6475C18.1601 25.8693 18.3334 25.8425 18.9314 25.8425V29.3333H19.5312C19.5425 29.8388 19.9865 30.9702 19.9978 31.4815H22.1307C22.142 30.976 22.586 29.8446 22.5973 29.3333H23.1972V16.4444H22.1307V15.3704H22.6639V13.2222H18.9314V15.3704Z" fill="#006BDA" stroke="#006BDA" stroke-width="0.755906" stroke-miterlimit="22.9256"/>
<path fill-rule="evenodd" clip-rule="evenodd" d="M32.7957 11.3426L36.8115 15.3537L32.7957 15.3704V11.3426ZM16.7988 19.9352C17.0531 19.8755 17.0778 19.7934 17.332 19.7338V10.537H31.9293C32.0847 10.537 32.2625 10.7161 32.2625 10.8726V15.9074H37.2615C37.417 15.9074 37.5948 16.0865 37.5948 16.243V38.463H26.3304L26.4084 38.9981L38.128 39V15.9745C38.128 15.778 36.9211 14.6582 36.7117 14.4473L33.7456 11.46C33.5296 11.2426 32.3921 10 32.1958 10H16.7988V19.9352Z" fill="#006BDA" stroke="#006BDA" stroke-width="0.755906" stroke-miterlimit="22.9256"/>
<path d="M18.6525 25.2786C19.9675 25.2786 21.0335 24.205 21.0335 22.8806C21.0335 21.5562 19.9675 20.4826 18.6525 20.4826C17.3375 20.4826 16.2715 21.5562 16.2715 22.8806C16.2715 24.205 17.3375 25.2786 18.6525 25.2786Z" fill="#D9E9FA" stroke="#D9E9FA" stroke-width="0.755906" stroke-miterlimit="22.9256"/>
</svg>
