<svg width="48" height="48" viewBox="0 0 48 48" fill="none" xmlns="http://www.w3.org/2000/svg">
<path fill-rule="evenodd" clip-rule="evenodd" d="M21.8808 25.5759L21.3362 22.9469C21.1304 22.0558 21.1616 22.1697 21.7548 21.6532C21.9966 21.4426 22.2161 21.2695 22.4653 21.0599L23.8887 19.8763C25.1241 18.8963 25.4669 19.7963 26.6449 20.4734C27.6457 21.0485 28.7749 21.311 29.9804 21.0924C30.181 21.0561 30.323 20.9909 30.5538 20.9858C30.6576 21.2019 30.8544 22.4031 30.927 22.7661L31.6609 26.404C31.7318 26.785 31.5261 26.8429 31.3049 27.0635C31.1073 27.2604 30.947 27.4666 30.7239 27.6159L28.4401 25.3088C28.1967 25.0367 27.9374 24.802 27.677 24.5417C26.9357 23.8006 25.3839 21.9491 24.0916 21.9491C22.453 21.9491 23.8994 25.1058 21.8808 25.5759ZM20.2936 22.2324C20.2936 22.9858 20.8053 24.9293 20.988 25.7884C21.0563 26.1091 21.0857 26.6526 21.484 26.6526C22.2512 26.6526 23.1038 26.0689 23.5102 25.5046C23.9254 24.9279 24.1483 23.8906 24.1483 22.9124C25.079 22.9899 26.3644 24.5895 27.0535 25.2784C27.9554 26.18 28.8158 27.0401 29.7177 27.9418C29.9192 28.1432 30.2291 28.3774 30.3269 28.6415C30.5131 29.1446 29.8796 29.9162 29.0363 29.0763C28.9105 28.9511 28.821 28.8627 28.6967 28.7358C28.6248 28.6622 28.6056 28.6346 28.5345 28.5579L27.7058 27.743C27.3055 27.2881 25.9928 25.8026 25.6222 25.8026C25.3736 25.8026 25.1686 25.9874 25.1686 26.3126C25.1686 26.6225 25.7197 27.0617 26.0331 27.3751L27.9604 29.3018C28.1992 29.5404 28.7965 29.9986 28.7965 30.3927C28.7965 30.8473 28.4536 31.016 28.0597 31.016C27.7781 31.016 27.636 30.792 27.4786 30.6336L24.4743 27.6301C24.3122 27.4675 24.1531 27.2193 23.8649 27.2193C23.3852 27.2193 23.4113 27.5972 23.4113 27.7859C23.4113 27.9782 25.44 29.899 25.7213 30.1802C25.9468 30.4055 26.3591 30.7287 26.3591 31.1294C26.3591 31.4737 26.078 31.7527 25.6788 31.7527C25.2583 31.7527 24.207 30.5363 23.879 30.2085C23.6634 29.993 22.3317 28.5793 22.1643 28.5793C21.8398 28.5793 21.567 28.8028 21.6171 29.1264C21.6578 29.3887 22.5181 30.1514 22.7453 30.3785C23.113 30.7459 23.2413 30.7341 23.2413 31.2427C23.2413 31.5657 22.943 31.8094 22.6178 31.8094C22.2365 31.8094 22.0463 31.4931 21.8383 31.2852C21.6072 31.0541 21.4176 30.8646 21.1864 30.6335L17.2893 26.7092C17.2893 26.3539 18.0373 22.8284 18.1726 22.1522C18.2302 21.8644 18.2673 21.6787 18.3238 21.3966C18.3658 21.1869 18.4603 20.8211 18.4797 20.5891H21.5407C21.3201 20.9185 20.2936 21.3691 20.2936 22.2324ZM31.3475 19.909C31.5722 19.909 32.9709 19.6333 33.1047 19.569C33.4831 21.1928 33.8618 23.3819 34.2149 25.1461C34.2832 25.4881 34.3414 25.7785 34.4038 26.0906C34.4583 26.3628 34.5726 26.7789 34.5786 27.0492C34.2844 27.0558 33.7034 27.2065 33.4308 27.262C32.5947 27.4323 32.8945 27.8404 32.2403 24.57L31.56 21.1132C31.5004 20.8153 31.3475 20.2444 31.3475 19.909ZM16.1555 27.3893C15.8801 27.3251 15.6041 27.2759 15.3165 27.2079C15.0925 27.1551 14.6745 27.0492 14.3982 27.0492L15.121 23.2949C15.3719 22.0469 15.5895 20.7816 15.8721 19.569C15.9941 19.6276 17.4236 19.9045 17.6294 19.909C17.6294 20.2332 16.5095 25.705 16.3587 26.4589C16.3114 26.6951 16.2283 27.2376 16.1555 27.3893ZM22.6745 19.6257H18.6497C18.6497 19.0413 18.2704 19.1022 17.3223 18.9127C15.0433 18.457 15.1684 18.2972 14.9226 19.5266C14.8105 20.0874 14.7148 20.5655 14.6014 21.1321C14.3872 22.2023 14.192 23.1786 13.9778 24.2489C13.8425 24.9256 13.3779 26.9868 13.3779 27.5026C13.3779 27.9167 14.6953 28.0437 15.2722 28.159C16.1704 28.3386 17.0058 28.6967 17.0058 27.8426C17.32 28.0529 18.0038 28.8119 18.3238 29.1318C18.7944 29.6022 21.3059 32.157 21.6284 32.4017C22.2271 32.8557 22.9336 32.8992 23.5431 32.451C23.8324 32.2382 23.9271 32.0636 24.0916 31.7527C24.6236 32.1087 24.7117 32.6245 25.6413 32.6917C26.3057 32.7396 27.0272 32.2345 27.1527 31.696C27.4274 31.76 28.3727 32.374 29.1807 31.5701C29.5711 31.1816 29.7035 30.9798 29.7035 30.3927C30.684 30.3927 31.3545 29.6508 31.2838 28.6349C31.2689 28.4212 31.2422 28.4951 31.2889 28.3908C31.329 28.3011 31.8149 27.8524 31.9143 27.7859C32.1219 28.6769 32.4576 28.4083 33.6574 28.1684C34.2343 28.0531 35.5989 27.9194 35.5989 27.5026C35.5989 26.9601 35.4205 26.3556 35.3202 25.8545L34.3754 21.1321C34.2657 20.5836 34.1702 20.1062 34.0637 19.5738C33.7838 18.1743 33.8969 18.484 30.8971 19.0622C30.2769 19.1817 30.2428 19.4174 30.3838 20.0224C30.1761 20.0707 30.0515 20.13 29.7943 20.1698C28.6033 20.3541 27.882 20.1137 26.8716 19.51C26.3507 19.1989 26.0999 18.8249 25.4901 18.6244C23.8306 18.0785 23.0189 19.6257 22.6745 19.6257Z" fill="#006BDA"/>
<path fill-rule="evenodd" clip-rule="evenodd" d="M35.542 16.4523C35.542 16.7614 36.1599 17.5539 36.4305 18.0576C37.5624 20.1654 38.0363 22.2107 38.0363 24.7825C38.0363 26.7865 37.5307 28.3864 36.9593 29.8261C36.6258 30.6662 35.2177 33.1001 34.5217 33.5661C34.5217 33.3466 34.5611 33.0527 34.5821 32.7764C34.6104 32.4046 34.8254 31.526 34.1816 31.526C33.6065 31.526 33.6645 32.3971 33.6181 33.0027C33.3981 35.8728 33.159 35.3331 35.7683 35.209C36.3525 35.1811 37.2993 35.2194 37.2993 34.6427C37.2993 33.8888 36.0969 34.3027 35.2019 34.3027C35.4811 33.886 36.1006 33.2054 36.6646 32.3648C38.0853 30.2475 38.9999 27.3448 38.9999 24.4992C38.9999 21.8068 38.1505 18.9394 36.7783 16.8032C36.478 16.3357 36.3721 16.0556 35.9955 16.0556C35.7529 16.0556 35.542 16.2303 35.542 16.4523Z" fill="#006BDA"/>
<path fill-rule="evenodd" clip-rule="evenodd" d="M11.6772 14.3556C11.6772 15.1095 12.8796 14.6956 13.7746 14.6956C13.6227 14.9223 13.567 14.9635 13.3947 15.1658C13.256 15.3287 13.1566 15.4734 13.0197 15.641C12.7544 15.9658 12.5464 16.284 12.3119 16.6335C11.445 17.9256 10.6279 19.8631 10.3114 21.4338C9.56067 25.1601 10.1588 29.0202 12.1982 32.1952C12.5353 32.7199 12.5946 32.9427 12.981 32.9427C13.2921 32.9427 13.4345 32.6946 13.4345 32.4894C13.4345 32.3224 12.6679 31.1378 12.53 30.9001C11.0256 28.3082 10.5361 24.4827 11.2797 21.4384C11.8345 19.1673 12.6475 17.5964 14.066 15.8369C14.2126 15.6549 14.2559 15.5654 14.4548 15.4322C14.4507 15.6206 14.4217 15.6327 14.4064 15.7806C14.3909 15.931 14.4062 16.0739 14.3948 16.2222C14.3663 16.5926 14.1507 17.4723 14.7949 17.4723C15.1241 17.4723 15.226 17.1862 15.2683 16.9255C15.3002 16.7289 15.3413 16.2193 15.3584 15.9956C15.5784 13.1255 15.8175 13.6652 13.2082 13.7894C12.624 13.8172 11.6772 13.7789 11.6772 14.3556Z" fill="#006BDA"/>
<path fill-rule="evenodd" clip-rule="evenodd" d="M16.042 12.9389C16.042 13.224 16.1902 13.4488 16.4955 13.4488C16.7089 13.4488 17.6543 12.7636 18.082 12.5414C18.645 12.2489 19.233 11.9855 19.8481 11.7569C23.1929 10.5135 26.5875 10.7539 29.8575 12.0482C30.6046 12.344 31.2083 12.7207 31.8467 13.1197C32.2419 13.3666 33.3309 14.1296 33.5581 14.4689C33.3386 14.4689 33.0447 14.4295 32.7682 14.4085C32.3963 14.3803 31.5174 14.1653 31.5174 14.8089C31.5174 15.1475 31.7829 15.2379 32.065 15.2815L34.9753 15.4889C35.5626 15.4889 35.2414 14.0593 35.2016 13.2227C35.1914 13.0095 35.1525 12.5344 35.1158 12.2884C35.0913 12.1242 35.0926 11.9936 35.0111 11.883C34.7647 11.5492 34.1816 11.7196 34.1816 12.0888C34.1816 12.685 34.295 13.2872 34.295 13.7889C33.8726 13.5061 33.2183 12.9034 32.3905 12.3494C28.8216 9.96086 23.7982 9.28019 19.6617 10.8339L18.6414 11.2306C17.7461 11.5969 17.1318 12.0041 16.3467 12.5067C16.1715 12.6188 16.042 12.6724 16.042 12.9389Z" fill="#006BDA"/>
<path fill-rule="evenodd" clip-rule="evenodd" d="M13.6611 33.7928C13.6611 34.0929 13.7844 36.87 13.9655 37.1153C14.2118 37.4491 14.7948 37.2787 14.7948 36.9095C14.7948 36.3133 14.6815 35.7111 14.6815 35.2095C14.9083 35.3613 14.9495 35.4169 15.1519 35.5892C20.0544 39.7619 27.0716 40.1486 32.5958 36.5143C33.2432 36.0883 32.8655 35.5495 32.4809 35.5495C32.314 35.5495 31.129 36.3157 30.8913 36.4537C30.3972 36.7402 29.6827 37.0354 29.1284 37.2414C27.5117 37.8424 26.1098 38.0429 24.2048 38.0429C21.5971 38.0429 19.1328 37.1629 17.1645 35.9006L16.7216 35.6068C16.3795 35.3639 15.6151 34.8231 15.4184 34.5295L17.0623 34.6427C17.4066 34.6427 17.8074 33.8554 16.9115 33.7168L14.0012 33.5094C13.8788 33.5094 13.6611 33.737 13.6611 33.7928Z" fill="#006BDA"/>
</svg>
