<svg width="87" height="88" viewBox="0 0 87 88" fill="none" xmlns="http://www.w3.org/2000/svg">
<path d="M23.4365 48.1884L19.9424 51.5668L37.8716 65.1923L44.6593 58.4047L23.4365 48.1884Z" fill="#D9E9FA"/>
<path d="M44.2233 32.7325L34.7529 42.2029L46.6524 51.2355L54.6894 43.1986L44.2233 32.7325Z" fill="#D9E9FA"/>
<path fill-rule="evenodd" clip-rule="evenodd" d="M54.0436 41.2651C55.8308 40.0519 57.1846 38.2557 57.8402 36.1412C61.0451 35.1993 63.5651 32.6911 64.5128 29.469L64.6579 28.9758L63.7944 28.7218L63.5406 27.8583L63.0472 28.0034C62.4111 28.1906 61.8029 28.439 61.2289 28.7418C61.5318 28.1679 61.7802 27.5595 61.9672 26.9234L62.0439 26.6629C65.3852 25.7329 68.0203 23.1441 69.0025 19.8046L69.1127 19.4298L68.2492 19.1758L67.9952 18.3124L67.6205 18.4227C64.2809 19.4048 61.6922 22.0398 60.7623 25.3812L60.5017 25.4578C59.8655 25.6449 59.2573 25.8933 58.6833 26.1962C58.9862 25.6222 59.2346 25.014 59.4217 24.3778L59.5667 23.8846L58.7033 23.6307L58.4493 22.7672L57.9561 22.9123C54.7339 23.86 52.2258 26.38 51.2839 29.5849C49.1694 30.2404 47.3732 31.5942 46.1602 33.3816L47.4616 34.683C48.1934 33.495 49.232 32.5196 50.4701 31.8639C49.8143 33.1019 48.8389 34.1405 47.6509 34.8724L50.0071 37.2286C50.739 36.0406 51.7776 35.0652 53.0156 34.4094C52.3599 35.6475 51.3845 36.6861 50.1965 37.4179L52.5527 39.7741C53.2846 38.5861 54.3232 37.6107 55.5612 36.955C54.9055 38.1932 53.93 39.2316 52.742 39.9635L54.0436 41.2651ZM57.1137 32.8571C56.5388 33.1604 55.9302 33.4088 55.2946 33.5956C55.0869 34.2654 54.8092 34.9033 54.4699 35.5009C55.0673 35.1615 55.7052 34.8837 56.3752 34.676C56.5618 34.0404 56.8102 33.4318 57.1137 32.8571ZM58.5886 33.9276C60.2016 33.1415 61.5107 31.8352 62.2993 30.2169C60.6809 31.0054 59.3747 32.3146 58.5886 33.9276ZM63.0913 24.3337C63.8831 22.7766 65.1514 21.5058 66.7135 20.7116C65.9193 22.2736 64.6485 23.5419 63.0913 24.3337ZM61.1227 25.7469L61.5671 25.858L61.6781 26.3024L61.2488 26.1762L61.1227 25.7469ZM54.568 30.3115C53.9932 30.6148 53.3846 30.8632 52.7491 31.0499C52.5413 31.7199 52.2636 32.3578 51.9243 32.9552C52.5217 32.6159 53.1596 32.3382 53.8296 32.1304C54.0163 31.4949 54.2647 30.8863 54.568 30.3115ZM56.0431 31.382C57.656 30.5959 58.9652 29.2897 59.7538 27.6713C58.1354 28.4599 56.8291 29.769 56.0431 31.382ZM57.2082 25.1257C56.4196 26.7441 55.1105 28.0504 53.4975 28.8364C54.2836 27.2235 55.5898 25.9143 57.2082 25.1257Z" fill="#006BDA"/>
<path fill-rule="evenodd" clip-rule="evenodd" d="M33.4434 42.5265L46.5015 52.3788L55.8395 43.0408L44.3845 31.5856L33.4434 42.5265ZM36.1795 42.3361L46.3357 49.999L53.2939 43.0408L44.3845 34.1311L36.1795 42.3361Z" fill="#006BDA"/>
<path fill-rule="evenodd" clip-rule="evenodd" d="M19.2017 51.6772L37.8551 66.1166L50.7485 53.223L31.6566 39.2224L19.2017 51.6772ZM21.9197 51.5049L37.7031 63.7228L47.9921 53.4338L31.8375 41.5871L21.9197 51.5049Z" fill="#006BDA"/>
<path fill-rule="evenodd" clip-rule="evenodd" d="M19.1807 51.6982L37.7309 66.2406L45.6574 58.3143L23.4002 47.6L19.1807 51.6982ZM21.9134 51.5535L37.586 63.84L42.5904 58.8356L23.7525 49.7672L21.9134 51.5535Z" fill="#006BDA"/>
<path d="M17.7327 50.6006L5.18109 63.1522L4.45508 61.3326L17.5882 48.1994L41.8388 67.2238L26.2571 82.8055L24.7779 81.7392L39.1302 67.3867L17.7327 50.6006Z" fill="#006BDA"/>
<path d="M5.24265 60.5546C9.4611 70.2134 17.2582 77.9512 26.9581 82.0925L25.6036 83.4655C16.0052 79.1794 8.25731 71.4945 3.88999 61.9404L3.87793 61.914L5.24265 60.5546Z" fill="#006BDA"/>
</svg>
