<svg width="48" height="48" viewBox="0 0 48 48" fill="none" xmlns="http://www.w3.org/2000/svg">
<path fill-rule="evenodd" clip-rule="evenodd" d="M28.9851 16.5646V17.5024C28.297 17.8666 27.8558 17.7313 27.6335 18.1708C27.5703 18.2959 27.0373 19.6317 27.0373 19.6666C27.0373 19.7347 27.5499 20.8433 27.6144 20.9651L26.9802 21.5575C25.376 21.1313 26.4252 20.7058 24.9357 21.3163C24.6174 21.4468 24.0787 21.5627 23.9424 21.8379C23.8753 21.9735 23.5878 22.8269 23.5746 22.9851H22.5647C22.5428 22.7215 22.3079 22.08 22.2191 21.8878C22.0442 21.5091 21.136 21.2779 20.7489 21.1157C20.0195 20.8098 19.7848 21.5423 19.2463 21.5423C19.0159 21.5423 18.7125 21.0908 18.5249 20.9651C19.2278 19.6368 19.2727 19.822 18.5392 18.2096C18.3337 17.758 17.9261 17.8728 17.1543 17.5024V16.5646C17.5477 16.473 18.3508 16.2815 18.5284 15.9189C18.5803 15.8131 19.102 14.5098 19.102 14.4726C19.102 14.0952 18.597 13.52 18.597 13.2463C18.597 13.0158 19.0485 12.7125 19.1742 12.5249C20.0292 12.9351 20.317 13.1745 20.7828 12.983L21.858 12.5396C22.1569 12.4249 22.1481 12.4564 22.2539 12.142C22.3369 11.8954 22.3773 11.7855 22.4606 11.5551C22.6528 11.0235 22.4449 11.0821 23.3582 11.0821C23.8465 11.0821 23.5787 12.2 24.2396 12.5092C25.9589 13.3137 25.6525 13.0883 26.4185 12.7717C26.6607 12.6716 26.7658 12.6304 26.9651 12.5249L27.5973 13.1912C26.9659 14.4571 26.909 14.2574 27.3505 15.2415C27.4354 15.431 27.486 15.5533 27.5608 15.7526C27.754 16.2674 27.6715 16.0867 28.3867 16.3695C28.601 16.4542 28.765 16.5134 28.9851 16.5646ZM18.9577 11.1542L17.2094 12.9407C17.2912 13.236 17.4353 13.4456 17.5639 13.7022C17.8915 14.3558 17.9743 14.4505 17.6637 15.0542C17.4867 15.3984 16.3366 15.7431 16 15.7711V18.296L17.1646 18.7184C17.4774 18.8173 17.5171 18.7692 17.6523 19.0243C18.1953 20.0485 17.4883 20.0573 17.2264 21.1816L18.94 22.9306C20.0288 22.6345 20.0739 21.9586 21.0638 22.466C21.4118 22.6445 21.441 23.0748 21.6366 23.6246C21.8921 24.343 21.5432 24.1393 24.1517 24.1393C24.4245 24.1393 24.5469 23.5193 24.7177 23.046C24.8237 22.7521 24.7922 22.6271 25.0262 22.4889C26.018 21.9033 26.2768 22.7021 27.1816 22.913C27.3516 22.799 28.9129 21.2582 28.9129 21.1816C28.9129 20.4765 28.051 20.1369 28.3925 19.2941C28.7235 18.4771 28.8727 18.9038 30.1393 18.296V15.7711C29.7177 15.6729 29.3628 15.5205 28.9524 15.371C28.5653 15.23 28.629 15.3544 28.4845 15.0453C27.9682 13.9412 28.6222 14.2054 28.9129 12.9577L27.1646 11.1711C26.3419 11.5819 25.8766 11.964 25.356 11.7572C24.793 11.5335 24.8915 11.6352 24.7012 11.0376C24.5924 10.6955 24.3952 10.3249 24.3682 10H21.7711C21.7458 10.3039 21.5679 10.7145 21.4617 10.989C21.2137 11.63 21.4397 11.4708 20.8364 11.7383C20.3633 11.9479 20.3947 11.8316 19.8746 11.608C19.5599 11.4725 19.2426 11.305 18.9577 11.1542Z" fill="#006BDA"/>
<path fill-rule="evenodd" clip-rule="evenodd" d="M21.122 17.2139C21.122 16.0166 21.8845 15.1218 22.8533 15.1218H23.2862C24.1641 15.1218 25.0175 15.926 25.0175 17.1417C25.0175 18.8271 22.9409 19.5999 21.7179 18.4936C21.4828 18.2809 21.122 17.6441 21.122 17.2139ZM19.9678 17.0696C19.9678 18.3053 20.7221 19.3618 21.7942 19.8601C22.6253 20.2463 23.4638 20.2552 24.2962 19.8831C27.3247 18.5296 26.5345 13.9677 22.9255 13.9677C21.4093 13.9677 19.9678 15.4017 19.9678 17.0696Z" fill="#006BDA"/>
<path fill-rule="evenodd" clip-rule="evenodd" d="M17.4429 36.1143H31.9429V35.1765C31.9429 35.0103 31.8927 34.9602 31.7265 34.9602H17.4429V36.1143Z" fill="#006BDA"/>
<path fill-rule="evenodd" clip-rule="evenodd" d="M17.4429 33.2288H31.9429V32.291C31.9429 32.1248 31.8927 32.0746 31.7265 32.0746H17.4429V33.2288Z" fill="#006BDA"/>
<path fill-rule="evenodd" clip-rule="evenodd" d="M17.4429 27.4576H31.7265C32.0343 27.4576 31.9429 27.1808 31.9429 26.5199C31.9429 26.3536 31.8927 26.3035 31.7265 26.3035H17.4429V27.4576Z" fill="#006BDA"/>
<path fill-rule="evenodd" clip-rule="evenodd" d="M17.4429 30.3432H27.3981C27.7059 30.3432 27.6145 30.0664 27.6145 29.4055C27.6145 29.2392 27.5644 29.189 27.3981 29.189H17.4429V30.3432Z" fill="#006BDA"/>
<path fill-rule="evenodd" clip-rule="evenodd" d="M17.4429 39H25.3782V37.9179H17.4429V39Z" fill="#006BDA"/>
<path d="M23.0707 19.4231C24.3631 19.4231 25.4109 18.3754 25.4109 17.083C25.4109 15.7905 24.3631 14.7428 23.0707 14.7428C21.7782 14.7428 20.7305 15.7905 20.7305 17.083C20.7305 18.3754 21.7782 19.4231 23.0707 19.4231Z" fill="#D9E9FA" stroke="#D9E9FA" stroke-width="0.755906" stroke-miterlimit="22.9256"/>
</svg>
