<svg width="47" height="47" viewBox="0 0 47 47" fill="none" xmlns="http://www.w3.org/2000/svg">
<rect width="47" height="47" rx="23.5" fill="#006BDA"/>
<path d="M12.5 23C12.2239 23 12 23.2239 12 23.5C12 23.7761 12.2239 24 12.5 24V23ZM34.8536 23.8536C35.0488 23.6583 35.0488 23.3417 34.8536 23.1464L31.6716 19.9645C31.4763 19.7692 31.1597 19.7692 30.9645 19.9645C30.7692 20.1597 30.7692 20.4763 30.9645 20.6716L33.7929 23.5L30.9645 26.3284C30.7692 26.5237 30.7692 26.8403 30.9645 27.0355C31.1597 27.2308 31.4763 27.2308 31.6716 27.0355L34.8536 23.8536ZM12.5 24H34.5V23H12.5V24Z" fill="white"/>
</svg>
