<svg width="48" height="48" viewBox="0 0 48 48" fill="none" xmlns="http://www.w3.org/2000/svg">
<path fill-rule="evenodd" clip-rule="evenodd" d="M38.5497 33.7218L38.5321 32.6154H39.6209L38.5497 33.7218ZM37.7336 32.1799V34.2849H33.8864V24.7032H40.2016V31.8169H38.0966C37.9273 31.8169 37.7336 32.0106 37.7336 32.1799ZM33.0879 24.9209V34.0672C33.0879 34.6714 33.4999 35.0834 34.1041 35.0834H38.024C38.4339 35.0834 39.2151 34.1463 39.6391 33.7224C40.0624 33.299 41.0001 32.5165 41.0001 32.1073V24.9209C41.0001 24.3168 40.5881 23.9047 39.9839 23.9047H34.1041C33.4999 23.9047 33.0879 24.3168 33.0879 24.9209Z" fill="#006BDA"/>
<path fill-rule="evenodd" clip-rule="evenodd" d="M24.377 20.3477C23.1472 20.3477 22.3327 20.0149 21.6001 19.2775C19.9896 17.6566 20.1267 15.207 21.5979 13.7941C21.9271 13.4779 22.2745 13.2793 22.7042 13.0856C23.7306 12.6229 24.738 12.6275 25.7787 13.0663C27.9214 13.9696 28.951 16.8651 27.0221 19.1457C26.5125 19.7481 25.4589 20.3477 24.377 20.3477ZM19.6587 16.5006C19.6587 19.8017 23.0264 22.1058 26.0725 20.7367C26.6848 20.4615 26.9324 20.2998 27.4078 19.8217C30.5839 16.6272 27.8694 12 24.5222 12C23.5774 12 23.1023 12.0165 22.2217 12.4579C21.4971 12.8212 20.9215 13.3106 20.4702 13.9729C19.9803 14.6918 19.6587 15.523 19.6587 16.5006Z" fill="#006BDA"/>
<path fill-rule="evenodd" clip-rule="evenodd" d="M13.7064 24.7032H14.5048V34.2849H13.7064V24.7032ZM12.9805 24.2676V34.7205C12.9805 35.1869 13.9521 35.0108 14.9404 35.0108C15.2251 35.0108 15.3033 34.6518 15.3033 34.3576V24.6306C15.3033 23.7617 14.9254 23.9773 13.2708 23.9773C13.1009 23.9773 12.9805 24.0977 12.9805 24.2676Z" fill="#006BDA"/>
<path fill-rule="evenodd" clip-rule="evenodd" d="M10.8028 27.1712H11.5287V34.2849H10.8028V27.1712ZM10.0043 26.8808C10.0043 28.1629 9.89729 34.1674 10.0769 34.9382C10.6639 35.0749 11.3528 35.0108 11.9642 35.0108C12.1335 35.0108 12.3272 34.8171 12.3272 34.6479V26.8082C12.3272 26.2598 11.1788 26.4453 10.2947 26.4453C10.0716 26.4453 10.0043 26.6579 10.0043 26.8808Z" fill="#006BDA"/>
<path fill-rule="evenodd" clip-rule="evenodd" d="M7.82676 29.7118H8.55266V34.2849H7.82676V29.7118ZM7.10087 29.0585C6.92964 29.7936 7.02826 33.4713 7.02826 34.5027C7.02826 35.2091 7.66379 35.0108 8.91558 35.0108C9.11163 35.0108 9.11572 34.9762 9.27857 34.9382C9.45098 34.198 9.35111 30.3302 9.35111 29.2763C9.35111 28.6838 7.4422 28.8892 7.10087 29.0585Z" fill="#006BDA"/>
<path fill-rule="evenodd" clip-rule="evenodd" d="M31.1277 16.7909C31 17.3387 30.9606 17.2366 31.7084 17.7346C32.7545 18.4313 32.8158 18.5375 33.7921 19.3529L35.4954 21.3516C35.6469 21.5828 35.9253 21.8966 36.2245 21.5974C36.5631 21.2588 35.9069 20.6041 35.5059 20.1072L34.3216 18.8233C34.0654 18.629 33.9248 18.4295 33.6792 18.2318C33.2954 17.9227 31.7383 16.7183 31.418 16.7183C31.3997 16.7183 31.1509 16.7819 31.1277 16.7909Z" fill="#006BDA"/>
<path fill-rule="evenodd" clip-rule="evenodd" d="M11.8916 21.2915C11.8916 21.6491 12.1293 21.6544 12.3272 21.6544C12.5531 21.6544 12.788 21.2345 12.9079 21.0737C13.633 20.1016 14.3157 19.4478 15.2146 18.662C15.4152 18.4867 15.6457 18.3022 15.8686 18.1547C16.3089 17.8632 17.1906 17.3791 17.1906 17.0813C17.1906 15.8127 14.2841 18.4239 14.0501 18.659C13.68 19.031 11.8916 20.8484 11.8916 21.2915Z" fill="#006BDA"/>
<path fill-rule="evenodd" clip-rule="evenodd" d="M35.0479 30.2199C35.0479 30.416 35.0826 30.4201 35.1205 30.5828C35.6994 30.7178 38.3888 30.7178 38.9677 30.5828C39.0244 30.3397 39.126 29.857 38.6774 29.857H35.4108C35.2416 29.857 35.0479 30.0507 35.0479 30.2199Z" fill="#006BDA"/>
<path fill-rule="evenodd" clip-rule="evenodd" d="M35.0479 26.0824C35.0479 26.321 35.045 26.5179 35.4835 26.5179H38.6048C39.2672 26.5179 39.1568 25.7194 38.5322 25.7194H35.5561C35.3114 25.7194 35.0479 25.8477 35.0479 26.0824Z" fill="#006BDA"/>
<path fill-rule="evenodd" clip-rule="evenodd" d="M35.0479 28.1148C35.0479 28.2814 35.0363 28.5504 35.3382 28.5504H38.75C39.1493 28.5504 39.1493 27.8245 38.75 27.8245H35.3382C35.1683 27.8245 35.0479 27.9449 35.0479 28.1148Z" fill="#006BDA"/>
<path d="M24.2397 20.3906C26.3501 20.3906 28.0608 18.6798 28.0608 16.5694C28.0608 14.459 26.3501 12.7482 24.2397 12.7482C22.1293 12.7482 20.4185 14.459 20.4185 16.5694C20.4185 18.6798 22.1293 20.3906 24.2397 20.3906Z" fill="#D9E9FA" stroke="#D9E9FA" stroke-width="0.755906" stroke-miterlimit="22.9256"/>
<path fill-rule="evenodd" clip-rule="evenodd" d="M24.359 16.1179C24.9181 16.1179 25.4105 17.3519 24.1411 17.3519C23.6156 17.3519 23.3696 16.1179 24.359 16.1179ZM23.9234 13.5773V15.3921C23.2448 15.7511 22.9072 15.9722 22.9072 16.8438C22.9072 18.4917 25.4775 18.5211 25.5929 17.1342C26.4225 17.1342 26.9721 17.331 26.9721 16.6986C26.9721 16.239 26.0836 16.3357 25.5929 16.3357C25.448 15.7137 25.0648 15.5914 24.6493 15.3921C24.6493 14.7485 24.6997 13.9602 24.5767 13.4321C24.0981 13.3175 24.3391 13.2884 23.9234 13.5773Z" fill="#006BDA"/>
</svg>
