<svg width="21" height="19" viewBox="0 0 21 19" fill="none" xmlns="http://www.w3.org/2000/svg">
<path d="M19.993 5.05111C19.8393 4.96997 19.6598 4.95308 19.4937 5.00414C19.3276 5.05519 19.1886 5.17002 19.107 5.32345L18.0472 7.35454C16.9447 2.60986 11.5831 -0.510613 6.81547 1.08736C5.03122 1.65839 3.47392 2.78032 2.36732 4.29195C1.26071 5.80358 0.661774 7.6271 0.65656 9.50048C0.597498 16.647 8.98765 20.8963 14.7003 16.6109C14.8346 16.5057 14.9226 16.3523 14.9457 16.1833C14.9688 16.0142 14.9251 15.8429 14.824 15.7055C14.7229 15.5681 14.5722 15.4754 14.4039 15.4472C14.2357 15.419 14.0631 15.4575 13.9227 15.5544C12.8039 16.3767 11.479 16.8726 10.0953 16.987C8.71157 17.1014 7.32323 16.8299 6.08458 16.2026C4.84594 15.5753 3.80552 14.6167 3.07897 13.4336C2.35243 12.2504 1.96822 10.8889 1.96906 9.50048C1.97454 7.90484 2.48562 6.35199 3.4289 5.06501C4.37218 3.77802 5.6991 2.82314 7.21906 2.33751C11.5306 0.897043 16.3245 3.94532 16.9119 8.36845L14.0834 6.87548C13.9294 6.79411 13.7494 6.77727 13.5829 6.82865C13.4164 6.88003 13.2772 6.99543 13.1959 7.14947C13.1145 7.3035 13.0976 7.48354 13.149 7.65C13.2004 7.81645 13.3158 7.95568 13.4698 8.03704L17.3384 10.078C17.4149 10.1185 17.4986 10.1436 17.5847 10.1517C17.6708 10.1598 17.7577 10.1508 17.8404 10.1251C17.923 10.0995 17.9998 10.0578 18.0662 10.0024C18.1327 9.94703 18.1876 9.87903 18.2277 9.80236L20.2686 5.93376C20.3484 5.78004 20.3643 5.60099 20.3126 5.43564C20.261 5.2703 20.1461 5.13207 19.993 5.05111Z" fill="#0F0F0F"/>
</svg>
