<svg width="17" height="18" viewBox="0 0 17 18" fill="none" xmlns="http://www.w3.org/2000/svg">
<path d="M16.8504 14.6463L9.39197 2.27716C9.29928 2.12346 9.16846 1.99632 9.01217 1.90807C8.85589 1.81981 8.67945 1.77344 8.49997 1.77344C8.32049 1.77344 8.14405 1.81981 7.98777 1.90807C7.83148 1.99632 7.70066 2.12346 7.60797 2.27716L0.149617 14.6463C0.054335 14.8043 0.00273871 14.9848 0.000106051 15.1693C-0.0025266 15.3538 0.0438989 15.5357 0.134633 15.6963C0.225367 15.857 0.357153 15.9907 0.516509 16.0837C0.675864 16.1767 0.857069 16.2257 1.04159 16.2257H15.9584C16.1429 16.2257 16.3241 16.1767 16.4834 16.0837C16.6428 15.9907 16.7746 15.857 16.8653 15.6963C16.956 15.5357 17.0025 15.3538 16.9998 15.1693C16.9972 14.9848 16.9457 14.8043 16.8504 14.6463ZM8.50555 6.05202C8.9339 6.05202 9.29635 6.29368 9.29635 6.722C9.29635 8.02897 9.14258 9.90714 9.14258 11.2141C9.14258 11.5546 8.76915 11.6974 8.50555 11.6974C8.15413 11.6974 7.85756 11.5546 7.85756 11.2141C7.85756 9.90714 7.70382 8.02897 7.70382 6.722C7.70382 6.29368 8.05525 6.05202 8.50555 6.05202ZM8.51654 14.1466C8.0333 14.1466 7.67082 13.7513 7.67082 13.301C7.67082 12.8397 8.03327 12.4553 8.51654 12.4553C8.96684 12.4553 9.35126 12.8397 9.35126 13.301C9.35126 13.7513 8.96684 14.1466 8.51654 14.1466Z" fill="#FF8585"/>
</svg>
