<svg width="39" height="39" viewBox="0 0 39 39" fill="none" xmlns="http://www.w3.org/2000/svg">
<rect width="39" height="39" rx="19.5" fill="#0F0F0F"/>
<path d="M8.5 19C8.22386 19 8 19.2239 8 19.5C8 19.7761 8.22386 20 8.5 20V19ZM30.8536 19.8536C31.0488 19.6583 31.0488 19.3417 30.8536 19.1464L27.6716 15.9645C27.4763 15.7692 27.1597 15.7692 26.9645 15.9645C26.7692 16.1597 26.7692 16.4763 26.9645 16.6716L29.7929 19.5L26.9645 22.3284C26.7692 22.5237 26.7692 22.8403 26.9645 23.0355C27.1597 23.2308 27.4763 23.2308 27.6716 23.0355L30.8536 19.8536ZM8.5 20L30.5 20V19L8.5 19V20Z" fill="white"/>
</svg>
