<svg width="21" height="17" viewBox="0 0 21 17" fill="none" xmlns="http://www.w3.org/2000/svg">
<path d="M13.1071 8.67684L14.2998 7.4841C14.3866 7.80878 14.4375 8.14823 14.4375 8.49998C14.4375 10.6712 12.6712 12.4375 10.5 12.4375C10.1482 12.4375 9.80879 12.3866 9.48411 12.2998L10.6768 11.1071C11.3073 11.0643 11.9009 10.7945 12.3477 10.3477C12.7945 9.90086 13.0643 9.30728 13.1071 8.67684ZM20.9173 8.18121C20.8366 8.03601 19.6917 6.03002 17.4539 4.33L16.4989 5.28501C18.1307 6.4848 19.1646 7.88409 19.5717 8.50096C18.7938 9.68533 15.7426 13.75 10.5 13.75C9.71379 13.75 8.98273 13.6494 8.29482 13.489L7.21643 14.5673C8.20786 14.8713 9.29757 15.0625 10.5 15.0625C17.3698 15.0625 20.7757 9.07354 20.9173 8.81875C20.9715 8.72126 21 8.61154 21 8.49998C21 8.38842 20.9715 8.2787 20.9173 8.18121ZM18.1827 1.7452L3.7452 16.1827C3.61707 16.3108 3.44907 16.375 3.28123 16.375C3.1134 16.375 2.9454 16.3108 2.81726 16.1827C2.75629 16.1218 2.70791 16.0495 2.67491 15.9699C2.64191 15.8902 2.62492 15.8049 2.62492 15.7187C2.62492 15.6325 2.64191 15.5472 2.67491 15.4676C2.70791 15.388 2.75629 15.3157 2.81726 15.2548L4.65411 13.4179C1.68458 11.6252 0.175692 8.98626 0.0826689 8.81875C0.0284526 8.72122 0 8.61148 0 8.4999C0 8.38831 0.0284526 8.27857 0.0826689 8.18104C0.224255 7.92642 3.63019 1.93748 10.5 1.93748C12.2763 1.93748 13.8149 2.34271 15.1302 2.94187L17.2548 0.817261C17.5112 0.560832 17.9264 0.560832 18.1827 0.817261C18.439 1.07369 18.4391 1.48893 18.1827 1.7452ZM5.63274 12.4393L7.2942 10.7778C6.83532 10.134 6.56248 9.349 6.56248 8.49998C6.56248 6.32878 8.32878 4.56248 10.5 4.56248C11.349 4.56248 12.134 4.83532 12.7778 5.29403L14.1213 3.95053C13.0598 3.52544 11.8537 3.24998 10.5 3.24998C5.25736 3.24998 2.20613 7.31463 1.42847 8.499C1.9223 9.24745 3.34177 11.142 5.63274 12.4393ZM8.24691 9.82495L11.8249 6.24691C11.4346 6.0164 10.9853 5.87498 10.5 5.87498C9.05262 5.87498 7.87498 7.05262 7.87498 8.49998C7.87498 8.98528 8.0164 9.43464 8.24691 9.82495Z" fill="#B6B6B6"/>
</svg>
