<svg width="21" height="13" viewBox="0 0 21 13" fill="none" xmlns="http://www.w3.org/2000/svg">
<path d="M20.8578 6.93265C21.055 6.66261 21.0464 6.29399 20.8364 6.03253C17.6602 2.12772 14.2312 0.147461 10.6393 0.147461C4.54849 0.147461 0.317928 5.8225 0.14219 6.06253C-0.0549787 6.33257 -0.0464061 6.70119 0.163622 6.96265C3.33547 10.8717 6.7645 12.852 10.3564 12.852C16.4472 12.852 20.6778 7.17696 20.8578 6.93265ZM10.3564 11.3818C7.36458 11.3818 4.4499 9.73588 1.68097 6.49545C2.7654 5.21385 6.21157 1.61766 10.6393 1.61766C13.6311 1.61766 16.5458 3.26359 19.3147 6.50402C18.2303 7.78562 14.7841 11.3818 10.3564 11.3818Z" fill="#B6B6B6"/>
<path d="M10.497 2.7666C8.43961 2.7666 6.76367 4.44254 6.76367 6.49995C6.76367 8.55737 8.43961 10.2333 10.497 10.2333C12.5544 10.2333 14.2304 8.55737 14.2304 6.49995C14.2304 4.44254 12.5544 2.7666 10.497 2.7666ZM10.497 8.76311C9.24972 8.76311 8.23387 7.74726 8.23387 6.49995C8.23387 5.25265 9.24972 4.2368 10.497 4.2368C11.7443 4.2368 12.7602 5.25265 12.7602 6.49995C12.7602 7.74726 11.7443 8.76311 10.497 8.76311Z" fill="#B6B6B6"/>
</svg>
