<svg width="23" height="22" viewBox="0 0 23 22" fill="none" xmlns="http://www.w3.org/2000/svg">
<g clip-path="url(#clip0_195_79)">
<path d="M17.9191 15.5811C16.4065 15.5811 15.1759 16.8116 15.1759 18.3242C15.1759 19.8367 16.4065 21.0673 17.9191 21.0673C19.4316 21.0673 20.6622 19.8367 20.6622 18.3242C20.6622 16.8116 19.4316 15.5811 17.9191 15.5811ZM17.9191 19.4214C17.3139 19.4214 16.8218 18.9293 16.8218 18.3242C16.8218 17.7191 17.3139 17.2269 17.9191 17.2269C18.5242 17.2269 19.0163 17.7191 19.0163 18.3242C19.0163 18.9293 18.5242 19.4214 17.9191 19.4214ZM22.3251 4.97901C22.2482 4.88061 22.1499 4.80104 22.0376 4.74633C21.9253 4.69162 21.8021 4.66321 21.6772 4.66327H5.5798L4.83914 1.56435C4.79609 1.38442 4.69371 1.22424 4.54848 1.10963C4.40326 0.995024 4.22367 0.932667 4.03867 0.932617H1.32294C0.868416 0.932574 0.5 1.30099 0.5 1.75552C0.5 2.21004 0.868416 2.57846 1.32294 2.57846H3.38911L6.06367 13.7694C6.10667 13.9494 6.20904 14.1096 6.35427 14.2242C6.49951 14.3388 6.67913 14.4012 6.86414 14.4012H19.6747C20.053 14.4012 20.3827 14.1433 20.4735 13.7763L22.476 5.68396C22.5059 5.5627 22.5079 5.43623 22.4817 5.31411C22.4556 5.19199 22.402 5.0774 22.3251 4.97901ZM19.0309 12.7553H7.5137L5.97313 6.30916H20.6257L19.0309 12.7553ZM7.9614 15.5811C6.4488 15.5811 5.21825 16.8116 5.21825 18.3242C5.21825 19.8367 6.44884 21.0673 7.9614 21.0673C9.47395 21.0673 10.7045 19.8367 10.7045 18.3242C10.7045 16.8116 9.47395 15.5811 7.9614 15.5811ZM7.9614 19.4214C7.35626 19.4214 6.86414 18.9293 6.86414 18.3242C6.86414 17.7191 7.35626 17.2269 7.9614 17.2269C8.56653 17.2269 9.05865 17.7191 9.05865 18.3242C9.05865 18.9293 8.56653 19.4214 7.9614 19.4214Z" fill="white"/>
</g>
<defs>
<clipPath id="clip0_195_79">
<rect width="22" height="22" fill="white" transform="translate(0.5)"/>
</clipPath>
</defs>
</svg>
