<svg width="18" height="16" viewBox="0 0 18 16" fill="none" xmlns="http://www.w3.org/2000/svg">
<path d="M8.99998 15.38C8.75782 15.3806 8.51793 15.3332 8.29418 15.2405C8.07044 15.1479 7.86727 15.0118 7.69642 14.8402L1.73321 8.87678C0.847785 7.99136 0.359985 6.81416 0.359985 5.56172V5.48846C0.359985 4.23602 0.847785 3.05864 1.73321 2.1734C2.61863 1.28816 3.79619 0.800003 5.04809 0.800003H5.12189C6.37379 0.800003 7.55134 1.2878 8.43676 2.17322L8.99998 2.73644L9.56321 2.17322C10.4486 1.2878 11.6262 0.800003 12.8781 0.800003H12.9519C14.2038 0.800003 15.3813 1.2878 16.2668 2.17322C17.1522 3.05864 17.64 4.23584 17.64 5.48828V5.56154C17.64 6.81398 17.1522 7.99136 16.2668 8.8766L10.3035 14.84C10.1327 15.0117 9.92957 15.1478 9.70582 15.2405C9.48208 15.3332 9.24217 15.3806 8.99998 15.38ZM8.45998 14.0764C8.74942 14.3653 9.25109 14.3646 9.53998 14.0763L15.5032 8.1134C15.8393 7.77903 16.1057 7.38135 16.2871 6.94337C16.4685 6.50538 16.5612 6.03578 16.56 5.56172V5.48846C16.56 4.52456 16.1845 3.61844 15.5032 2.93696C14.8219 2.25548 13.9154 1.88 12.9519 1.88H12.8781C12.4041 1.87867 11.9345 1.97139 11.4965 2.15278C11.0586 2.33418 10.661 2.60066 10.3268 2.93678L9.38176 3.88178C9.33165 3.93195 9.27213 3.97175 9.20662 3.99891C9.14112 4.02606 9.0709 4.04004 8.99998 4.04004C8.92907 4.04004 8.85885 4.02606 8.79335 3.99891C8.72784 3.97175 8.66832 3.93195 8.61821 3.88178L7.67321 2.93678C7.33896 2.60066 6.94136 2.33418 6.50342 2.15278C6.06548 1.97139 5.59591 1.87867 5.12189 1.88H5.04809C4.08455 1.88 3.17807 2.25512 2.49677 2.93678C1.81547 3.61844 1.43999 4.52438 1.43999 5.48828V5.56154C1.43872 6.03558 1.53146 6.50516 1.71286 6.94312C1.89425 7.38108 2.16069 7.77873 2.49677 8.11304L8.45998 14.0764Z" fill="black"/>
</svg>
