<svg width="18" height="16" viewBox="0 0 18 16" fill="none" xmlns="http://www.w3.org/2000/svg">
<path d="M8.99937 15.3798C8.75721 15.3804 8.51732 15.333 8.29357 15.2403C8.06983 15.1477 7.86666 15.0116 7.69581 14.84L1.73259 8.87658C0.847175 7.99116 0.359375 6.81396 0.359375 5.56152V5.48826C0.359375 4.23582 0.847175 3.05844 1.73259 2.1732C2.61801 1.28796 3.79557 0.799805 5.04747 0.799805H5.12127C6.37317 0.799805 7.55073 1.2876 8.43615 2.17302L8.99937 2.73624L9.5626 2.17302C10.448 1.2876 11.6256 0.799805 12.8775 0.799805H12.9513C14.2032 0.799805 15.3807 1.2876 16.2662 2.17302C17.1516 3.05844 17.6394 4.23565 17.6394 5.48808V5.56134C17.6394 6.81378 17.1516 7.99116 16.2662 8.8764L10.3029 14.8398C10.1321 15.0115 9.92896 15.1476 9.70521 15.2403C9.48147 15.333 9.24156 15.3804 8.99937 15.3798Z" fill="#2FDDC0"/>
</svg>
