<svg width="18" height="16" viewBox="0 0 18 16" fill="none" xmlns="http://www.w3.org/2000/svg">
<path d="M8.99937 15.38C8.75721 15.3806 8.51732 15.3332 8.29357 15.2405C8.06983 15.1479 7.86666 15.0118 7.69581 14.8402L1.73259 8.87677C0.847175 7.99135 0.359375 6.81415 0.359375 5.56171V5.48845C0.359375 4.23601 0.847175 3.05863 1.73259 2.17339C2.61801 1.28815 3.79557 0.799988 5.04747 0.799988H5.12127C6.37317 0.799988 7.55073 1.28779 8.43615 2.17321L8.99937 2.73643L9.5626 2.17321C10.448 1.28779 11.6256 0.799988 12.8775 0.799988H12.9513C14.2032 0.799988 15.3807 1.28779 16.2662 2.17321C17.1516 3.05863 17.6394 4.23583 17.6394 5.48827V5.56153C17.6394 6.81397 17.1516 7.99135 16.2662 8.87659L10.3029 14.84C10.1321 15.0117 9.92896 15.1478 9.70521 15.2405C9.48147 15.3332 9.24156 15.3806 8.99937 15.38ZM8.45937 14.0764C8.74881 14.3653 9.25047 14.3646 9.53937 14.0762L15.5026 8.11339C15.8386 7.77901 16.1051 7.38134 16.2865 6.94335C16.4678 6.50537 16.5606 6.03577 16.5594 5.56171V5.48845C16.5594 4.52455 16.1839 3.61843 15.5026 2.93695C14.8213 2.25547 13.9148 1.87999 12.9513 1.87999H12.8775C12.4035 1.87865 11.9339 1.97137 11.4959 2.15277C11.058 2.33417 10.6604 2.60064 10.3262 2.93677L9.38115 3.88177C9.33104 3.93194 9.27152 3.97174 9.20601 3.99889C9.14051 4.02605 9.07029 4.04002 8.99937 4.04002C8.92846 4.04002 8.85824 4.02605 8.79274 3.99889C8.72723 3.97174 8.66771 3.93194 8.61759 3.88177L7.6726 2.93677C7.33835 2.60064 6.94075 2.33417 6.50281 2.15277C6.06487 1.97137 5.59529 1.87865 5.12127 1.87999H5.04747C4.08393 1.87999 3.17745 2.25511 2.49616 2.93677C1.81485 3.61843 1.43937 4.52437 1.43937 5.48827V5.56153C1.43811 6.03556 1.53085 6.50515 1.71225 6.94311C1.89364 7.38107 2.16008 7.77871 2.49616 8.11303L8.45937 14.0764Z" fill="black"/>
</svg>
