<svg width="12" height="11" viewBox="0 0 12 11" fill="none" xmlns="http://www.w3.org/2000/svg">
<path d="M5.04894 0.907029C5.3483 -0.0142813 6.6517 -0.0142796 6.95106 0.907031L7.5716 2.81686C7.70547 3.22889 8.08943 3.50784 8.52265 3.50784H10.5308C11.4995 3.50784 11.9023 4.74746 11.1186 5.31686L9.49395 6.4972C9.14347 6.75185 8.99681 7.20321 9.13068 7.61524L9.75122 9.52506C10.0506 10.4464 8.9961 11.2125 8.21238 10.6431L6.58778 9.46276C6.2373 9.20811 5.7627 9.20812 5.41221 9.46276L3.78761 10.6431C3.0039 11.2125 1.94942 10.4464 2.24878 9.52506L2.86932 7.61524C3.00319 7.20321 2.85653 6.75185 2.50604 6.4972L0.881445 5.31686C0.0977311 4.74746 0.500508 3.50784 1.46923 3.50784H3.47735C3.91057 3.50784 4.29453 3.22888 4.4284 2.81686L5.04894 0.907029Z" fill="#FFC700"/>
</svg>
