<svg width="58" height="58" viewBox="0 0 58 58" fill="none" xmlns="http://www.w3.org/2000/svg">
<rect width="58" height="58" rx="29" fill="#3944DE"/>
<path d="M18 28.5C17.7239 28.5 17.5 28.7239 17.5 29C17.5 29.2761 17.7239 29.5 18 29.5V28.5ZM40.3536 29.3536C40.5488 29.1583 40.5488 28.8417 40.3536 28.6464L37.1716 25.4645C36.9763 25.2692 36.6597 25.2692 36.4645 25.4645C36.2692 25.6597 36.2692 25.9763 36.4645 26.1716L39.2929 29L36.4645 31.8284C36.2692 32.0237 36.2692 32.3403 36.4645 32.5355C36.6597 32.7308 36.9763 32.7308 37.1716 32.5355L40.3536 29.3536ZM18 29.5H40V28.5H18V29.5Z" fill="white"/>
</svg>
