<svg width="19" height="21" viewBox="0 0 19 21" fill="none" xmlns="http://www.w3.org/2000/svg">
<path d="M12.3986 7.60839C12.127 7.60839 11.9068 7.82857 11.9068 8.10019V17.3953C11.9068 17.6667 12.127 17.8871 12.3986 17.8871C12.6703 17.8871 12.8904 17.6667 12.8904 17.3953V8.10019C12.8904 7.82857 12.6703 7.60839 12.3986 7.60839ZM6.59532 7.60839C6.3237 7.60839 6.10352 7.82857 6.10352 8.10019V17.3953C6.10352 17.6667 6.3237 17.8871 6.59532 17.8871C6.86699 17.8871 7.08712 17.6667 7.08712 17.3953V8.10019C7.08712 7.82857 6.86699 7.60839 6.59532 7.60839Z" fill="#929292"/>
<path d="M2.36554 6.2519V18.3689C2.36554 19.0851 2.62816 19.7576 3.08691 20.2402C3.3128 20.4796 3.58513 20.6705 3.88725 20.8011C4.18938 20.9317 4.51496 20.9994 4.84412 21H14.1492C14.4784 20.9995 14.804 20.9318 15.1061 20.8011C15.4082 20.6705 15.6806 20.4796 15.9064 20.2402C16.3652 19.7576 16.6278 19.0851 16.6278 18.3689V6.2519C17.5397 6.00984 18.1307 5.12882 18.0087 4.19307C17.8865 3.25747 17.0895 2.55763 16.1458 2.55744H13.6278V1.94268C13.6292 1.68677 13.5798 1.43312 13.4824 1.19646C13.3849 0.959809 13.2415 0.744866 13.0603 0.564112C12.8791 0.383375 12.6638 0.240443 12.4269 0.143614C12.1899 0.046786 11.9362 -0.00200875 11.6802 6.37501e-05H7.31317C7.05723 -0.00201528 6.80342 0.0467763 6.5665 0.143605C6.32957 0.240434 6.11424 0.383369 5.93302 0.564112C5.75185 0.744866 5.60839 0.959809 5.51097 1.19646C5.41355 1.43312 5.36411 1.68677 5.36553 1.94268V2.55744H2.8476C1.90393 2.55763 1.10687 3.25747 0.984655 4.19307C0.862688 5.12882 1.45359 6.00984 2.36554 6.2519ZM14.1492 20.0164H4.84417C4.00329 20.0164 3.34914 19.2941 3.34914 18.3689V6.29513H15.6442V18.3689C15.6442 19.2941 14.9901 20.0164 14.1492 20.0164ZM6.34913 1.94268C6.34753 1.81589 6.37141 1.69006 6.41936 1.57268C6.46731 1.45529 6.53836 1.34873 6.62828 1.25932C6.71817 1.16987 6.82511 1.09937 6.94276 1.05202C7.06041 1.00467 7.18637 0.981427 7.31317 0.983668H11.6802C11.807 0.981427 11.933 1.00467 12.0506 1.05202C12.1683 1.09937 12.2752 1.16987 12.3651 1.25932C12.455 1.34872 12.5261 1.45528 12.574 1.57267C12.622 1.69006 12.6458 1.81589 12.6442 1.94268V2.55744H6.34913V1.94268ZM2.8476 3.54104H16.1459C16.6348 3.54104 17.0311 3.93738 17.0311 4.42628C17.0311 4.91518 16.6348 5.31153 16.1459 5.31153H2.84755C2.35865 5.31153 1.96231 4.91518 1.96231 4.42628C1.96231 3.93738 2.3587 3.54104 2.8476 3.54104Z" fill="#929292"/>
<path d="M9.49571 7.60839C9.22409 7.60839 9.00391 7.82857 9.00391 8.10019V17.3953C9.00391 17.6667 9.22409 17.8871 9.49571 17.8871C9.76738 17.8871 9.98751 17.6667 9.98751 17.3953V8.10019C9.98751 7.82857 9.76738 7.60839 9.49571 7.60839Z" fill="#929292"/>
</svg>
