<svg width="94" height="47" viewBox="0 0 94 47" fill="none" xmlns="http://www.w3.org/2000/svg">
<rect width="94" height="47" rx="23.5" fill="#0F0F0F"/>
<path d="M36 23C35.7239 23 35.5 23.2239 35.5 23.5C35.5 23.7761 35.7239 24 36 24L36 23ZM58.3536 23.8536C58.5488 23.6583 58.5488 23.3417 58.3536 23.1465L55.1716 19.9645C54.9763 19.7692 54.6597 19.7692 54.4645 19.9645C54.2692 20.1597 54.2692 20.4763 54.4645 20.6716L57.2929 23.5L54.4645 26.3284C54.2692 26.5237 54.2692 26.8403 54.4645 27.0355C54.6597 27.2308 54.9763 27.2308 55.1716 27.0355L58.3536 23.8536ZM36 24L58 24L58 23L36 23L36 24Z" fill="white"/>
</svg>
